<svg width="240" height="54" viewBox="0 0 240 54" fill="none" xmlns="http://www.w3.org/2000/svg">
<rect x="0.5" y="0.5" width="239" height="53" rx="26.5" fill="#1F1F1F"/>
<path d="M57 23.291H21V17.6456C21 14.5809 23.6422 12.0001 26.7798 12.0001H51.2202C54.3578 12.0001 57 14.5809 57 17.6456V23.291Z" fill="#34A853"/>
<path d="M57 28.5H21V22.5C21 19.2429 23.6422 16.5 26.7798 16.5H51.2202C54.3578 16.5 57 19.2429 57 22.5V28.5Z" fill="#FBBC04"/>
<path d="M57 33.5H21V27.5C21 24.2429 23.6422 21.5 26.7798 21.5H51.2202C54.3578 21.5 57 24.2429 57 27.5V33.5Z" fill="#EA4335"/>
<path d="M21 24.7409L43.8493 29.9025C46.4795 30.5477 49.4384 29.9025 51.5753 28.2895L57 24.4183V36.5157C57 39.5804 54.3699 41.9999 51.2466 41.9999H26.7534C23.6301 41.9999 21 39.5804 21 36.5157V24.7409Z" fill="url(#paint0_linear_1492_15275)"/>
<path d="M69.195 21L72.705 11.692H74.33L77.853 21H76.28L75.422 18.608H71.626L70.768 21H69.195ZM73.134 14.435L72.107 17.282H74.941L73.914 14.435L73.563 13.369H73.485L73.134 14.435ZM81.5143 21.208C80.9163 21.208 80.3747 21.0607 79.8893 20.766C79.4127 20.4627 79.0313 20.0467 78.7453 19.518C78.468 18.9807 78.3293 18.3697 78.3293 17.685C78.3293 17.0003 78.468 16.3937 78.7453 15.865C79.0313 15.3363 79.4127 14.9203 79.8893 14.617C80.3747 14.3137 80.9163 14.162 81.5143 14.162C82.0257 14.162 82.4633 14.2747 82.8273 14.5C83.2 14.7253 83.473 14.981 83.6463 15.267H83.7243L83.6463 14.344V11.692H85.0373V21H83.7243V20.116H83.6463C83.473 20.402 83.2 20.6577 82.8273 20.883C82.4633 21.0997 82.0257 21.208 81.5143 21.208ZM81.7223 19.921C82.069 19.921 82.394 19.83 82.6973 19.648C83.0093 19.466 83.2563 19.2103 83.4383 18.881C83.629 18.543 83.7243 18.1443 83.7243 17.685C83.7243 17.2257 83.629 16.8313 83.4383 16.502C83.2563 16.164 83.0093 15.904 82.6973 15.722C82.394 15.54 82.069 15.449 81.7223 15.449C81.3757 15.449 81.0507 15.54 80.7473 15.722C80.444 15.904 80.197 16.164 80.0063 16.502C79.8157 16.8313 79.7203 17.2257 79.7203 17.685C79.7203 18.1443 79.8157 18.543 80.0063 18.881C80.197 19.2103 80.444 19.466 80.7473 19.648C81.0507 19.83 81.3757 19.921 81.7223 19.921ZM87.4971 13.395C87.2371 13.395 87.0117 13.304 86.8211 13.122C86.6391 12.9313 86.5481 12.706 86.5481 12.446C86.5481 12.186 86.6391 11.965 86.8211 11.783C87.0117 11.601 87.2371 11.51 87.4971 11.51C87.7571 11.51 87.9781 11.601 88.1601 11.783C88.3507 11.965 88.4461 12.186 88.4461 12.446C88.4461 12.706 88.3507 12.9313 88.1601 13.122C87.9781 13.304 87.7571 13.395 87.4971 13.395ZM86.7951 21V14.37H88.1991V21H86.7951ZM92.9456 21.208C92.2783 21.208 91.6889 21.0563 91.1776 20.753C90.6663 20.4497 90.2633 20.0337 89.9686 19.505C89.6739 18.9677 89.5266 18.361 89.5266 17.685C89.5266 17.009 89.6739 16.4067 89.9686 15.878C90.2633 15.3407 90.6663 14.9203 91.1776 14.617C91.6889 14.3137 92.2783 14.162 92.9456 14.162C93.6823 14.162 94.3019 14.3267 94.8046 14.656C95.3159 14.9853 95.6799 15.4317 95.8966 15.995L94.6226 16.515C94.3193 15.8043 93.7516 15.449 92.9196 15.449C92.5556 15.449 92.2219 15.5443 91.9186 15.735C91.6153 15.917 91.3726 16.177 91.1906 16.515C91.0086 16.8443 90.9176 17.2343 90.9176 17.685C90.9176 18.1357 91.0086 18.53 91.1906 18.868C91.3726 19.206 91.6153 19.466 91.9186 19.648C92.2219 19.83 92.5556 19.921 92.9196 19.921C93.3443 19.921 93.7039 19.8257 93.9986 19.635C94.2933 19.4357 94.5229 19.167 94.6876 18.829L95.9356 19.375C95.7016 19.9037 95.3289 20.3413 94.8176 20.688C94.3063 21.0347 93.6823 21.208 92.9456 21.208ZM97.9453 13.395C97.6853 13.395 97.46 13.304 97.2693 13.122C97.0873 12.9313 96.9963 12.706 96.9963 12.446C96.9963 12.186 97.0873 11.965 97.2693 11.783C97.46 11.601 97.6853 11.51 97.9453 11.51C98.2053 11.51 98.4263 11.601 98.6083 11.783C98.799 11.965 98.8943 12.186 98.8943 12.446C98.8943 12.706 98.799 12.9313 98.6083 13.122C98.4263 13.304 98.2053 13.395 97.9453 13.395ZM97.2433 21V14.37H98.6473V21H97.2433ZM103.446 21.208C102.761 21.208 102.159 21.052 101.639 20.74C101.119 20.428 100.712 20.0077 100.417 19.479C100.122 18.9503 99.9748 18.3523 99.9748 17.685C99.9748 17.0263 100.122 16.4327 100.417 15.904C100.712 15.3667 101.119 14.942 101.639 14.63C102.159 14.318 102.761 14.162 103.446 14.162C104.122 14.162 104.72 14.318 105.24 14.63C105.76 14.942 106.167 15.3667 106.462 15.904C106.757 16.4327 106.904 17.0263 106.904 17.685C106.904 18.3523 106.757 18.9503 106.462 19.479C106.167 20.0077 105.76 20.428 105.24 20.74C104.72 21.052 104.122 21.208 103.446 21.208ZM103.446 19.921C103.81 19.921 104.148 19.8343 104.46 19.661C104.772 19.479 105.023 19.2233 105.214 18.894C105.413 18.556 105.513 18.153 105.513 17.685C105.513 17.217 105.413 16.8183 105.214 16.489C105.023 16.151 104.772 15.8953 104.46 15.722C104.148 15.54 103.81 15.449 103.446 15.449C103.082 15.449 102.74 15.54 102.419 15.722C102.107 15.8953 101.851 16.151 101.652 16.489C101.461 16.8183 101.366 17.217 101.366 17.685C101.366 18.153 101.461 18.556 101.652 18.894C101.851 19.2233 102.107 19.479 102.419 19.661C102.74 19.8343 103.082 19.921 103.446 19.921ZM108.07 21V14.37H109.396V15.28H109.474C109.665 14.9593 109.946 14.695 110.319 14.487C110.7 14.2703 111.116 14.162 111.567 14.162C112.382 14.162 112.993 14.4047 113.4 14.89C113.807 15.3753 114.011 16.0167 114.011 16.814V21H112.62V16.996C112.62 16.4587 112.486 16.0687 112.217 15.826C111.948 15.5747 111.597 15.449 111.164 15.449C110.826 15.449 110.531 15.5443 110.28 15.735C110.029 15.917 109.829 16.1597 109.682 16.463C109.543 16.7663 109.474 17.0913 109.474 17.438V21H108.07ZM117.628 21.208C117.151 21.208 116.726 21.117 116.354 20.935C115.981 20.7443 115.691 20.48 115.483 20.142C115.275 19.804 115.171 19.4183 115.171 18.985C115.171 18.517 115.292 18.1183 115.535 17.789C115.786 17.451 116.12 17.1953 116.536 17.022C116.952 16.8487 117.411 16.762 117.914 16.762C118.33 16.762 118.694 16.801 119.006 16.879C119.326 16.957 119.569 17.0393 119.734 17.126V16.775C119.734 16.3417 119.578 15.995 119.266 15.735C118.954 15.475 118.551 15.345 118.057 15.345C117.719 15.345 117.398 15.423 117.095 15.579C116.791 15.7263 116.549 15.93 116.367 16.19L115.405 15.449C115.691 15.0503 116.068 14.7383 116.536 14.513C117.012 14.279 117.532 14.162 118.096 14.162C119.058 14.162 119.799 14.4003 120.319 14.877C120.839 15.345 121.099 16.0037 121.099 16.853V21H119.734V20.181H119.656C119.482 20.4497 119.222 20.688 118.876 20.896C118.529 21.104 118.113 21.208 117.628 21.208ZM117.875 20.064C118.239 20.064 118.559 19.9773 118.837 19.804C119.114 19.6307 119.331 19.4053 119.487 19.128C119.651 18.842 119.734 18.5343 119.734 18.205C119.534 18.0923 119.3 18.0013 119.032 17.932C118.763 17.854 118.477 17.815 118.174 17.815C117.602 17.815 117.194 17.932 116.952 18.166C116.709 18.3913 116.588 18.6687 116.588 18.998C116.588 19.31 116.705 19.5657 116.939 19.765C117.173 19.9643 117.485 20.064 117.875 20.064ZM122.644 21V14.37H123.97V15.345H124.048C124.196 15.007 124.447 14.7297 124.802 14.513C125.166 14.2877 125.556 14.175 125.972 14.175C126.154 14.175 126.306 14.188 126.427 14.214C126.557 14.24 126.674 14.2703 126.778 14.305V15.761C126.614 15.6917 126.445 15.6353 126.271 15.592C126.107 15.5487 125.933 15.527 125.751 15.527C125.422 15.527 125.127 15.618 124.867 15.8C124.616 15.9733 124.417 16.2117 124.269 16.515C124.122 16.8097 124.048 17.1347 124.048 17.49V21H122.644ZM132.976 21.208C132.499 21.208 132.075 21.117 131.702 20.935C131.329 20.7443 131.039 20.48 130.831 20.142C130.623 19.804 130.519 19.4183 130.519 18.985C130.519 18.517 130.64 18.1183 130.883 17.789C131.134 17.451 131.468 17.1953 131.884 17.022C132.3 16.8487 132.759 16.762 133.262 16.762C133.678 16.762 134.042 16.801 134.354 16.879C134.675 16.957 134.917 17.0393 135.082 17.126V16.775C135.082 16.3417 134.926 15.995 134.614 15.735C134.302 15.475 133.899 15.345 133.405 15.345C133.067 15.345 132.746 15.423 132.443 15.579C132.14 15.7263 131.897 15.93 131.715 16.19L130.753 15.449C131.039 15.0503 131.416 14.7383 131.884 14.513C132.361 14.279 132.881 14.162 133.444 14.162C134.406 14.162 135.147 14.4003 135.667 14.877C136.187 15.345 136.447 16.0037 136.447 16.853V21H135.082V20.181H135.004C134.831 20.4497 134.571 20.688 134.224 20.896C133.877 21.104 133.461 21.208 132.976 21.208ZM133.223 20.064C133.587 20.064 133.908 19.9773 134.185 19.804C134.462 19.6307 134.679 19.4053 134.835 19.128C135 18.842 135.082 18.5343 135.082 18.205C134.883 18.0923 134.649 18.0013 134.38 17.932C134.111 17.854 133.825 17.815 133.522 17.815C132.95 17.815 132.543 17.932 132.3 18.166C132.057 18.3913 131.936 18.6687 131.936 18.998C131.936 19.31 132.053 19.5657 132.287 19.765C132.521 19.9643 132.833 20.064 133.223 20.064Z" fill="white"/>
<path d="M76.106 41.272C75.2107 41.272 74.3777 41.1133 73.607 40.796C72.8363 40.4673 72.162 40.014 71.584 39.436C71.0173 38.858 70.5697 38.1837 70.241 37.413C69.9237 36.6423 69.765 35.8093 69.765 34.914C69.765 34.0187 69.9237 33.1857 70.241 32.415C70.5697 31.6443 71.0173 30.97 71.584 30.392C72.162 29.814 72.8363 29.3663 73.607 29.049C74.3777 28.7203 75.2107 28.556 76.106 28.556C77.058 28.556 77.908 28.7317 78.656 29.083C79.404 29.423 80.0557 29.9103 80.611 30.545L79.302 31.82C78.894 31.3327 78.4293 30.9643 77.908 30.715C77.398 30.4543 76.803 30.324 76.123 30.324C75.307 30.324 74.559 30.5167 73.879 30.902C73.199 31.276 72.655 31.8087 72.247 32.5C71.8503 33.18 71.652 33.9847 71.652 34.914C71.652 35.8433 71.8503 36.6537 72.247 37.345C72.655 38.025 73.199 38.5577 73.879 38.943C74.559 39.317 75.307 39.504 76.123 39.504C76.8597 39.504 77.5113 39.351 78.078 39.045C78.656 38.739 79.166 38.3197 79.608 37.787L80.951 39.079C80.3843 39.7477 79.6873 40.2803 78.86 40.677C78.044 41.0737 77.126 41.272 76.106 41.272ZM85.126 41.272C84.5026 41.272 83.9473 41.153 83.46 40.915C82.9726 40.6657 82.593 40.32 82.321 39.878C82.049 39.436 81.913 38.9317 81.913 38.365C81.913 37.753 82.0716 37.2317 82.389 36.801C82.7176 36.359 83.154 36.0247 83.698 35.798C84.242 35.5713 84.8426 35.458 85.5 35.458C86.044 35.458 86.52 35.509 86.928 35.611C87.3473 35.713 87.6646 35.8207 87.88 35.934V35.475C87.88 34.9083 87.676 34.455 87.268 34.115C86.86 33.775 86.333 33.605 85.687 33.605C85.245 33.605 84.8256 33.707 84.429 33.911C84.0323 34.1037 83.715 34.37 83.477 34.71L82.219 33.741C82.593 33.2197 83.086 32.8117 83.698 32.517C84.3213 32.211 85.0013 32.058 85.738 32.058C86.996 32.058 87.965 32.3697 88.645 32.993C89.325 33.605 89.665 34.4663 89.665 35.577V41H87.88V39.929H87.778C87.5513 40.2803 87.2113 40.592 86.758 40.864C86.3046 41.136 85.7606 41.272 85.126 41.272ZM85.449 39.776C85.925 39.776 86.3443 39.6627 86.707 39.436C87.0696 39.2093 87.353 38.9147 87.557 38.552C87.7723 38.178 87.88 37.7757 87.88 37.345C87.6193 37.1977 87.3133 37.0787 86.962 36.988C86.6106 36.886 86.2366 36.835 85.84 36.835C85.092 36.835 84.5593 36.988 84.242 37.294C83.9246 37.5887 83.766 37.9513 83.766 38.382C83.766 38.79 83.919 39.1243 84.225 39.385C84.531 39.6457 84.939 39.776 85.449 39.776ZM99.4892 38.484V33.928H97.9762V32.33H99.4892V29.882H101.325V32.33H103.45V33.928H101.325V38.093C101.325 38.5237 101.41 38.8523 101.58 39.079C101.762 39.3057 102.062 39.419 102.481 39.419C102.697 39.419 102.878 39.3907 103.025 39.334C103.184 39.2773 103.343 39.198 103.501 39.096V40.881C103.309 40.9603 103.105 41.0227 102.889 41.068C102.674 41.1133 102.425 41.136 102.141 41.136C101.325 41.136 100.679 40.9037 100.203 40.439C99.7272 39.963 99.4892 39.3113 99.4892 38.484ZM91.6862 41V32.33H93.4202V33.605H93.5222C93.7489 33.129 94.1002 32.7607 94.5762 32.5C95.0522 32.228 95.5679 32.092 96.1232 32.092C96.4406 32.092 96.6786 32.1147 96.8372 32.16V33.996C96.5879 33.9167 96.2819 33.877 95.9192 33.877C95.1939 33.877 94.6102 34.1093 94.1682 34.574C93.7376 35.0387 93.5222 35.6677 93.5222 36.461V41H91.6862ZM108.862 41.272C108.012 41.272 107.253 41.0737 106.584 40.677C105.915 40.2803 105.388 39.7363 105.003 39.045C104.629 38.3537 104.442 37.566 104.442 36.682C104.442 35.8547 104.623 35.0897 104.986 34.387C105.349 33.6843 105.853 33.1233 106.499 32.704C107.156 32.2733 107.91 32.058 108.76 32.058C109.655 32.058 110.415 32.2507 111.038 32.636C111.673 33.0213 112.154 33.5483 112.483 34.217C112.812 34.8857 112.976 35.6393 112.976 36.478C112.976 36.6027 112.97 36.716 112.959 36.818C112.959 36.92 112.953 36.9993 112.942 37.056H106.244C106.335 37.9173 106.635 38.5633 107.145 38.994C107.666 39.4247 108.256 39.64 108.913 39.64C109.502 39.64 109.99 39.5097 110.375 39.249C110.76 38.977 111.066 38.6427 111.293 38.246L112.806 38.977C112.432 39.657 111.922 40.2123 111.276 40.643C110.63 41.0623 109.825 41.272 108.862 41.272ZM108.777 33.622C108.165 33.622 107.644 33.809 107.213 34.183C106.782 34.557 106.493 35.0557 106.346 35.679H111.157C111.134 35.3843 111.038 35.0783 110.868 34.761C110.698 34.4437 110.437 34.1773 110.086 33.962C109.746 33.7353 109.31 33.622 108.777 33.622ZM115.733 31.055C115.393 31.055 115.099 30.936 114.849 30.698C114.611 30.4487 114.492 30.154 114.492 29.814C114.492 29.474 114.611 29.185 114.849 28.947C115.099 28.709 115.393 28.59 115.733 28.59C116.073 28.59 116.362 28.709 116.6 28.947C116.85 29.185 116.974 29.474 116.974 29.814C116.974 30.154 116.85 30.4487 116.6 30.698C116.362 30.936 116.073 31.055 115.733 31.055ZM114.815 41V32.33H116.651V41H114.815ZM118.929 41V32.33H120.663V33.605H120.765C120.958 33.163 121.287 32.8003 121.751 32.517C122.227 32.2223 122.737 32.075 123.281 32.075C123.519 32.075 123.718 32.092 123.876 32.126C124.046 32.16 124.199 32.1997 124.335 32.245V34.149C124.12 34.0583 123.899 33.9847 123.672 33.928C123.457 33.8713 123.23 33.843 122.992 33.843C122.562 33.843 122.176 33.962 121.836 34.2C121.508 34.4267 121.247 34.7383 121.054 35.135C120.862 35.5203 120.765 35.9453 120.765 36.41V41H118.929ZM128.174 41.272C127.55 41.272 126.995 41.153 126.508 40.915C126.02 40.6657 125.641 40.32 125.369 39.878C125.097 39.436 124.961 38.9317 124.961 38.365C124.961 37.753 125.119 37.2317 125.437 36.801C125.765 36.359 126.202 36.0247 126.746 35.798C127.29 35.5713 127.89 35.458 128.548 35.458C129.092 35.458 129.568 35.509 129.976 35.611C130.395 35.713 130.712 35.8207 130.928 35.934V35.475C130.928 34.9083 130.724 34.455 130.316 34.115C129.908 33.775 129.381 33.605 128.735 33.605C128.293 33.605 127.873 33.707 127.477 33.911C127.08 34.1037 126.763 34.37 126.525 34.71L125.267 33.741C125.641 33.2197 126.134 32.8117 126.746 32.517C127.369 32.211 128.049 32.058 128.786 32.058C130.044 32.058 131.013 32.3697 131.693 32.993C132.373 33.605 132.713 34.4663 132.713 35.577V41H130.928V39.929H130.826C130.599 40.2803 130.259 40.592 129.806 40.864C129.352 41.136 128.808 41.272 128.174 41.272ZM128.497 39.776C128.973 39.776 129.392 39.6627 129.755 39.436C130.117 39.2093 130.401 38.9147 130.605 38.552C130.82 38.178 130.928 37.7757 130.928 37.345C130.667 37.1977 130.361 37.0787 130.01 36.988C129.658 36.886 129.284 36.835 128.888 36.835C128.14 36.835 127.607 36.988 127.29 37.294C126.972 37.5887 126.814 37.9513 126.814 38.382C126.814 38.79 126.967 39.1243 127.273 39.385C127.579 39.6457 127.987 39.776 128.497 39.776ZM142.408 41.272C141.626 41.272 140.918 41.0793 140.283 40.694C139.66 40.2973 139.161 39.7533 138.787 39.062C138.424 38.3593 138.243 37.5603 138.243 36.665C138.243 35.7697 138.424 34.9763 138.787 34.285C139.161 33.5937 139.66 33.0497 140.283 32.653C140.918 32.2563 141.626 32.058 142.408 32.058C143.077 32.058 143.649 32.2053 144.125 32.5C144.612 32.7947 144.969 33.129 145.196 33.503H145.298L145.196 32.296V28.828H147.015V41H145.298V39.844H145.196C144.969 40.218 144.612 40.5523 144.125 40.847C143.649 41.1303 143.077 41.272 142.408 41.272ZM142.68 39.589C143.133 39.589 143.558 39.47 143.955 39.232C144.363 38.994 144.686 38.6597 144.924 38.229C145.173 37.787 145.298 37.2657 145.298 36.665C145.298 36.0643 145.173 35.5487 144.924 35.118C144.686 34.676 144.363 34.336 143.955 34.098C143.558 33.86 143.133 33.741 142.68 33.741C142.227 33.741 141.802 33.86 141.405 34.098C141.008 34.336 140.685 34.676 140.436 35.118C140.187 35.5487 140.062 36.0643 140.062 36.665C140.062 37.2657 140.187 37.787 140.436 38.229C140.685 38.6597 141.008 38.994 141.405 39.232C141.802 39.47 142.227 39.589 142.68 39.589ZM153.174 41.272C152.279 41.272 151.491 41.068 150.811 40.66C150.131 40.252 149.599 39.7023 149.213 39.011C148.828 38.3197 148.635 37.5377 148.635 36.665C148.635 35.8037 148.828 35.0273 149.213 34.336C149.599 33.6333 150.131 33.078 150.811 32.67C151.491 32.262 152.279 32.058 153.174 32.058C154.058 32.058 154.84 32.262 155.52 32.67C156.2 33.078 156.733 33.6333 157.118 34.336C157.504 35.0273 157.696 35.8037 157.696 36.665C157.696 37.5377 157.504 38.3197 157.118 39.011C156.733 39.7023 156.2 40.252 155.52 40.66C154.84 41.068 154.058 41.272 153.174 41.272ZM153.174 39.589C153.65 39.589 154.092 39.4757 154.5 39.249C154.908 39.011 155.237 38.6767 155.486 38.246C155.747 37.804 155.877 37.277 155.877 36.665C155.877 36.053 155.747 35.5317 155.486 35.101C155.237 34.659 154.908 34.3247 154.5 34.098C154.092 33.86 153.65 33.741 153.174 33.741C152.698 33.741 152.251 33.86 151.831 34.098C151.423 34.3247 151.089 34.659 150.828 35.101C150.579 35.5317 150.454 36.053 150.454 36.665C150.454 37.277 150.579 37.804 150.828 38.246C151.089 38.6767 151.423 39.011 151.831 39.249C152.251 39.4757 152.698 39.589 153.174 39.589ZM169.092 41.272C168.219 41.272 167.398 41.1133 166.627 40.796C165.868 40.4787 165.193 40.0367 164.604 39.47C164.015 38.892 163.55 38.2177 163.21 37.447C162.881 36.665 162.717 35.8207 162.717 34.914C162.717 34.0073 162.881 33.1687 163.21 32.398C163.55 31.616 164.009 30.9417 164.587 30.375C165.176 29.797 165.856 29.3493 166.627 29.032C167.398 28.7147 168.219 28.556 169.092 28.556C170.021 28.556 170.877 28.7203 171.659 29.049C172.452 29.3777 173.115 29.8367 173.648 30.426L172.356 31.701C171.959 31.259 171.483 30.919 170.928 30.681C170.384 30.443 169.772 30.324 169.092 30.324C168.287 30.324 167.545 30.5167 166.865 30.902C166.185 31.276 165.635 31.8087 165.216 32.5C164.808 33.18 164.604 33.9847 164.604 34.914C164.604 35.8433 164.814 36.6537 165.233 37.345C165.652 38.025 166.202 38.5577 166.882 38.943C167.562 39.317 168.304 39.504 169.109 39.504C169.846 39.504 170.514 39.368 171.115 39.096C171.716 38.8127 172.197 38.416 172.56 37.906C172.934 37.396 173.161 36.784 173.24 36.07H169.075V34.421H174.991C175.059 34.727 175.093 35.05 175.093 35.39V35.407C175.093 36.5857 174.832 37.617 174.311 38.501C173.801 39.3737 173.093 40.0537 172.186 40.541C171.279 41.0283 170.248 41.272 169.092 41.272ZM180.567 41.272C179.672 41.272 178.884 41.068 178.204 40.66C177.524 40.252 176.991 39.7023 176.606 39.011C176.221 38.3197 176.028 37.5377 176.028 36.665C176.028 35.8037 176.221 35.0273 176.606 34.336C176.991 33.6333 177.524 33.078 178.204 32.67C178.884 32.262 179.672 32.058 180.567 32.058C181.451 32.058 182.233 32.262 182.913 32.67C183.593 33.078 184.126 33.6333 184.511 34.336C184.896 35.0273 185.089 35.8037 185.089 36.665C185.089 37.5377 184.896 38.3197 184.511 39.011C184.126 39.7023 183.593 40.252 182.913 40.66C182.233 41.068 181.451 41.272 180.567 41.272ZM180.567 39.589C181.043 39.589 181.485 39.4757 181.893 39.249C182.301 39.011 182.63 38.6767 182.879 38.246C183.14 37.804 183.27 37.277 183.27 36.665C183.27 36.053 183.14 35.5317 182.879 35.101C182.63 34.659 182.301 34.3247 181.893 34.098C181.485 33.86 181.043 33.741 180.567 33.741C180.091 33.741 179.643 33.86 179.224 34.098C178.816 34.3247 178.482 34.659 178.221 35.101C177.972 35.5317 177.847 36.053 177.847 36.665C177.847 37.277 177.972 37.804 178.221 38.246C178.482 38.6767 178.816 39.011 179.224 39.249C179.643 39.4757 180.091 39.589 180.567 39.589ZM190.86 41.272C189.965 41.272 189.177 41.068 188.497 40.66C187.817 40.252 187.284 39.7023 186.899 39.011C186.514 38.3197 186.321 37.5377 186.321 36.665C186.321 35.8037 186.514 35.0273 186.899 34.336C187.284 33.6333 187.817 33.078 188.497 32.67C189.177 32.262 189.965 32.058 190.86 32.058C191.744 32.058 192.526 32.262 193.206 32.67C193.886 33.078 194.419 33.6333 194.804 34.336C195.189 35.0273 195.382 35.8037 195.382 36.665C195.382 37.5377 195.189 38.3197 194.804 39.011C194.419 39.7023 193.886 40.252 193.206 40.66C192.526 41.068 191.744 41.272 190.86 41.272ZM190.86 39.589C191.336 39.589 191.778 39.4757 192.186 39.249C192.594 39.011 192.923 38.6767 193.172 38.246C193.433 37.804 193.563 37.277 193.563 36.665C193.563 36.053 193.433 35.5317 193.172 35.101C192.923 34.659 192.594 34.3247 192.186 34.098C191.778 33.86 191.336 33.741 190.86 33.741C190.384 33.741 189.936 33.86 189.517 34.098C189.109 34.3247 188.775 34.659 188.514 35.101C188.265 35.5317 188.14 36.053 188.14 36.665C188.14 37.277 188.265 37.804 188.514 38.246C188.775 38.6767 189.109 39.011 189.517 39.249C189.936 39.4757 190.384 39.589 190.86 39.589ZM200.983 44.944C200.224 44.944 199.566 44.8193 199.011 44.57C198.467 44.332 198.025 44.0203 197.685 43.635C197.345 43.261 197.101 42.8757 196.954 42.479L198.654 41.765C198.835 42.2183 199.124 42.5867 199.521 42.87C199.929 43.1647 200.416 43.312 200.983 43.312C201.776 43.312 202.4 43.074 202.853 42.598C203.318 42.122 203.55 41.4477 203.55 40.575V39.742H203.448C203.176 40.15 202.796 40.4787 202.309 40.728C201.833 40.966 201.289 41.085 200.677 41.085C199.94 41.085 199.266 40.898 198.654 40.524C198.042 40.15 197.549 39.6287 197.175 38.96C196.801 38.28 196.614 37.4867 196.614 36.58C196.614 35.662 196.801 34.8687 197.175 34.2C197.549 33.52 198.042 32.993 198.654 32.619C199.266 32.245 199.94 32.058 200.677 32.058C201.289 32.058 201.833 32.1827 202.309 32.432C202.796 32.6813 203.176 33.01 203.448 33.418H203.55V32.33H205.301V40.541C205.301 41.4817 205.114 42.2807 204.74 42.938C204.377 43.5953 203.873 44.094 203.227 44.434C202.581 44.774 201.833 44.944 200.983 44.944ZM201 39.419C201.453 39.419 201.873 39.3113 202.258 39.096C202.643 38.8693 202.955 38.5463 203.193 38.127C203.431 37.6963 203.55 37.1807 203.55 36.58C203.55 35.9567 203.431 35.4353 203.193 35.016C202.955 34.5853 202.643 34.2623 202.258 34.047C201.873 33.8317 201.453 33.724 201 33.724C200.547 33.724 200.122 33.8373 199.725 34.064C199.34 34.2793 199.028 34.5967 198.79 35.016C198.552 35.4353 198.433 35.9567 198.433 36.58C198.433 37.192 198.552 37.7133 198.79 38.144C199.028 38.5633 199.34 38.8807 199.725 39.096C200.122 39.3113 200.547 39.419 201 39.419ZM207.466 41V28.828H209.302V41H207.466ZM215.345 41.272C214.495 41.272 213.735 41.0737 213.067 40.677C212.398 40.2803 211.871 39.7363 211.486 39.045C211.112 38.3537 210.925 37.566 210.925 36.682C210.925 35.8547 211.106 35.0897 211.469 34.387C211.831 33.6843 212.336 33.1233 212.982 32.704C213.639 32.2733 214.393 32.058 215.243 32.058C216.138 32.058 216.897 32.2507 217.521 32.636C218.155 33.0213 218.637 33.5483 218.966 34.217C219.294 34.8857 219.459 35.6393 219.459 36.478C219.459 36.6027 219.453 36.716 219.442 36.818C219.442 36.92 219.436 36.9993 219.425 37.056H212.727C212.817 37.9173 213.118 38.5633 213.628 38.994C214.149 39.4247 214.738 39.64 215.396 39.64C215.985 39.64 216.472 39.5097 216.858 39.249C217.243 38.977 217.549 38.6427 217.776 38.246L219.288 38.977C218.915 39.657 218.405 40.2123 217.759 40.643C217.113 41.0623 216.308 41.272 215.345 41.272ZM215.26 33.622C214.648 33.622 214.126 33.809 213.696 34.183C213.265 34.557 212.976 35.0557 212.829 35.679H217.64C217.617 35.3843 217.521 35.0783 217.351 34.761C217.181 34.4437 216.92 34.1773 216.569 33.962C216.229 33.7353 215.792 33.622 215.26 33.622Z" fill="white"/>
<rect x="0.5" y="0.5" width="239" height="53" rx="26.5" stroke="#747775"/>
<defs>
<linearGradient id="paint0_linear_1492_15275" x1="37.2843" y1="33.5448" x2="18.7823" y2="55.2227" gradientUnits="userSpaceOnUse">
<stop stop-color="#4285F4"/>
<stop offset="1" stop-color="#1B74E8"/>
</linearGradient>
</defs>
</svg>
