<svg width="199" height="54" viewBox="0 0 199 54" fill="none" xmlns="http://www.w3.org/2000/svg">
<rect x="0.5" y="0.5" width="198" height="53" rx="26.5" fill="#1F1F1F"/>
<path d="M57 23.291H21V17.6456C21 14.5809 23.6422 12.0001 26.7798 12.0001H51.2202C54.3578 12.0001 57 14.5809 57 17.6456V23.291Z" fill="#34A853"/>
<path d="M57 28.5H21V22.5C21 19.2429 23.6422 16.5 26.7798 16.5H51.2202C54.3578 16.5 57 19.2429 57 22.5V28.5Z" fill="#FBBC04"/>
<path d="M57 33.5H21V27.5C21 24.2429 23.6422 21.5 26.7798 21.5H51.2202C54.3578 21.5 57 24.2429 57 27.5V33.5Z" fill="#EA4335"/>
<path d="M21 24.7409L43.8493 29.9025C46.4795 30.5477 49.4384 29.9025 51.5753 28.2895L57 24.4183V36.5157C57 39.5804 54.3699 41.9999 51.2466 41.9999H26.7534C23.6301 41.9999 21 39.5804 21 36.5157V24.7409Z" fill="url(#paint0_linear_1492_15149)"/>
<path d="M70.053 21V11.692H71.483V15.566H75.838V11.692H77.255V21H75.838V16.918H71.483V21H70.053ZM79.9307 13.395C79.6707 13.395 79.4453 13.304 79.2547 13.122C79.0727 12.9313 78.9817 12.706 78.9817 12.446C78.9817 12.186 79.0727 11.965 79.2547 11.783C79.4453 11.601 79.6707 11.51 79.9307 11.51C80.1907 11.51 80.4117 11.601 80.5937 11.783C80.7843 11.965 80.8797 12.186 80.8797 12.446C80.8797 12.706 80.7843 12.9313 80.5937 13.122C80.4117 13.304 80.1907 13.395 79.9307 13.395ZM79.2287 21V14.37H80.6327V21H79.2287ZM82.3747 21V14.37H83.7007V15.28H83.7787C83.9693 14.9593 84.251 14.695 84.6237 14.487C85.005 14.2703 85.421 14.162 85.8717 14.162C86.6863 14.162 87.2973 14.4047 87.7047 14.89C88.112 15.3753 88.3157 16.0167 88.3157 16.814V21H86.9247V16.996C86.9247 16.4587 86.7903 16.0687 86.5217 15.826C86.253 15.5747 85.902 15.449 85.4687 15.449C85.1307 15.449 84.836 15.5443 84.5847 15.735C84.3333 15.917 84.134 16.1597 83.9867 16.463C83.848 16.7663 83.7787 17.0913 83.7787 17.438V21H82.3747ZM89.5777 21V19.83L93.2697 15.592H89.6947V14.37H94.9857V15.54L91.3067 19.778H95.0897V21H89.5777ZM98.808 21.208C97.9933 21.208 97.378 20.9653 96.962 20.48C96.5547 19.986 96.351 19.3187 96.351 18.478V14.37H97.755V18.283C97.755 18.8463 97.885 19.2623 98.145 19.531C98.4137 19.791 98.7473 19.921 99.146 19.921C99.5013 19.921 99.809 19.83 100.069 19.648C100.338 19.4573 100.541 19.2147 100.68 18.92C100.827 18.6167 100.901 18.2873 100.901 17.932V14.37H102.292V21H100.979V20.103H100.901C100.71 20.415 100.424 20.6793 100.043 20.896C99.6703 21.104 99.2587 21.208 98.808 21.208ZM104.761 21V15.592H103.552V14.37H104.761V13.824C104.761 13.356 104.861 12.9573 105.06 12.628C105.26 12.29 105.528 12.0343 105.866 11.861C106.213 11.679 106.603 11.588 107.036 11.588C107.27 11.588 107.47 11.6053 107.634 11.64C107.808 11.666 107.951 11.7007 108.063 11.744V13.109C107.951 13.0657 107.821 13.0223 107.673 12.979C107.535 12.927 107.361 12.901 107.153 12.901C106.885 12.901 106.651 12.992 106.451 13.174C106.252 13.3473 106.152 13.603 106.152 13.941V14.37H107.816V15.592H106.152V21H104.761ZM111.44 21.208C110.625 21.208 110.01 20.9653 109.594 20.48C109.186 19.986 108.983 19.3187 108.983 18.478V14.37H110.387V18.283C110.387 18.8463 110.517 19.2623 110.777 19.531C111.045 19.791 111.379 19.921 111.778 19.921C112.133 19.921 112.441 19.83 112.701 19.648C112.969 19.4573 113.173 19.2147 113.312 18.92C113.459 18.6167 113.533 18.2873 113.533 17.932V14.37H114.924V21H113.611V20.103H113.533C113.342 20.415 113.056 20.6793 112.675 20.896C112.302 21.104 111.89 21.208 111.44 21.208ZM113.104 13.018C112.887 13.018 112.696 12.94 112.532 12.784C112.376 12.6193 112.298 12.4243 112.298 12.199C112.298 11.9737 112.376 11.7873 112.532 11.64C112.696 11.484 112.887 11.406 113.104 11.406C113.338 11.406 113.533 11.484 113.689 11.64C113.845 11.7873 113.923 11.9737 113.923 12.199C113.923 12.4243 113.845 12.6193 113.689 12.784C113.533 12.94 113.338 13.018 113.104 13.018ZM110.803 13.018C110.586 13.018 110.395 12.94 110.231 12.784C110.075 12.6193 109.997 12.4243 109.997 12.199C109.997 11.9737 110.075 11.7873 110.231 11.64C110.395 11.484 110.586 11.406 110.803 11.406C111.037 11.406 111.227 11.484 111.375 11.64C111.531 11.7873 111.609 11.9737 111.609 12.199C111.609 12.4243 111.531 12.6193 111.375 12.784C111.227 12.94 111.037 13.018 110.803 13.018ZM119.502 24.016C118.922 24.016 118.419 23.9207 117.994 23.73C117.578 23.548 117.24 23.3097 116.98 23.015C116.72 22.729 116.534 22.4343 116.421 22.131L117.721 21.585C117.86 21.9317 118.081 22.2133 118.384 22.43C118.696 22.6553 119.069 22.768 119.502 22.768C120.109 22.768 120.586 22.586 120.932 22.222C121.288 21.858 121.465 21.3423 121.465 20.675V20.038H121.387C121.179 20.35 120.889 20.6013 120.516 20.792C120.152 20.974 119.736 21.065 119.268 21.065C118.705 21.065 118.189 20.922 117.721 20.636C117.253 20.35 116.876 19.9513 116.59 19.44C116.304 18.92 116.161 18.3133 116.161 17.62C116.161 16.918 116.304 16.3113 116.59 15.8C116.876 15.28 117.253 14.877 117.721 14.591C118.189 14.305 118.705 14.162 119.268 14.162C119.736 14.162 120.152 14.2573 120.516 14.448C120.889 14.6387 121.179 14.89 121.387 15.202H121.465V14.37H122.804V20.649C122.804 21.3683 122.661 21.9793 122.375 22.482C122.098 22.9847 121.712 23.366 121.218 23.626C120.724 23.886 120.152 24.016 119.502 24.016ZM119.515 19.791C119.862 19.791 120.183 19.7087 120.477 19.544C120.772 19.3707 121.01 19.1237 121.192 18.803C121.374 18.4737 121.465 18.0793 121.465 17.62C121.465 17.1433 121.374 16.7447 121.192 16.424C121.01 16.0947 120.772 15.8477 120.477 15.683C120.183 15.5183 119.862 15.436 119.515 15.436C119.169 15.436 118.844 15.5227 118.54 15.696C118.246 15.8607 118.007 16.1033 117.825 16.424C117.643 16.7447 117.552 17.1433 117.552 17.62C117.552 18.088 117.643 18.4867 117.825 18.816C118.007 19.1367 118.246 19.3793 118.54 19.544C118.844 19.7087 119.169 19.791 119.515 19.791ZM127.412 21.208C126.762 21.208 126.182 21.0563 125.67 20.753C125.159 20.4497 124.756 20.0337 124.461 19.505C124.175 18.9763 124.032 18.374 124.032 17.698C124.032 17.0653 124.171 16.4803 124.448 15.943C124.726 15.4057 125.111 14.9767 125.605 14.656C126.108 14.3267 126.684 14.162 127.334 14.162C128.019 14.162 128.6 14.3093 129.076 14.604C129.562 14.8987 129.93 15.3017 130.181 15.813C130.433 16.3243 130.558 16.9007 130.558 17.542C130.558 17.6373 130.554 17.724 130.545 17.802C130.545 17.88 130.541 17.9407 130.532 17.984H125.41C125.48 18.6427 125.709 19.1367 126.099 19.466C126.498 19.7953 126.949 19.96 127.451 19.96C127.902 19.96 128.275 19.8603 128.569 19.661C128.864 19.453 129.098 19.1973 129.271 18.894L130.428 19.453C130.142 19.973 129.752 20.3977 129.258 20.727C128.764 21.0477 128.149 21.208 127.412 21.208ZM127.347 15.358C126.879 15.358 126.481 15.501 126.151 15.787C125.822 16.073 125.601 16.4543 125.488 16.931H129.167C129.15 16.7057 129.076 16.4717 128.946 16.229C128.816 15.9863 128.617 15.7827 128.348 15.618C128.088 15.4447 127.755 15.358 127.347 15.358ZM131.861 21V14.37H133.187V15.28H133.265C133.456 14.9593 133.737 14.695 134.11 14.487C134.491 14.2703 134.907 14.162 135.358 14.162C136.173 14.162 136.784 14.4047 137.191 14.89C137.598 15.3753 137.802 16.0167 137.802 16.814V21H136.411V16.996C136.411 16.4587 136.277 16.0687 136.008 15.826C135.739 15.5747 135.388 15.449 134.955 15.449C134.617 15.449 134.322 15.5443 134.071 15.735C133.82 15.917 133.62 16.1597 133.473 16.463C133.334 16.7663 133.265 17.0913 133.265 17.438V21H131.861ZM142.098 21V19.83L145.79 15.592H142.215V14.37H147.506V15.54L143.827 19.778H147.61V21H142.098ZM151.328 21.208C150.514 21.208 149.898 20.9653 149.482 20.48C149.075 19.986 148.871 19.3187 148.871 18.478V14.37H150.275V18.283C150.275 18.8463 150.405 19.2623 150.665 19.531C150.934 19.791 151.268 19.921 151.666 19.921C152.022 19.921 152.329 19.83 152.589 19.648C152.858 19.4573 153.062 19.2147 153.2 18.92C153.348 18.6167 153.421 18.2873 153.421 17.932V14.37H154.812V21H153.499V20.103H153.421C153.231 20.415 152.945 20.6793 152.563 20.896C152.191 21.104 151.779 21.208 151.328 21.208Z" fill="white"/>
<path d="M76.14 41.272C75.2673 41.272 74.4457 41.1133 73.675 40.796C72.9157 40.4787 72.2413 40.0367 71.652 39.47C71.0627 38.892 70.598 38.2177 70.258 37.447C69.9293 36.665 69.765 35.8207 69.765 34.914C69.765 34.0073 69.9293 33.1687 70.258 32.398C70.598 31.616 71.057 30.9417 71.635 30.375C72.2243 29.797 72.9043 29.3493 73.675 29.032C74.4457 28.7147 75.2673 28.556 76.14 28.556C77.0693 28.556 77.925 28.7203 78.707 29.049C79.5003 29.3777 80.1633 29.8367 80.696 30.426L79.404 31.701C79.0073 31.259 78.5313 30.919 77.976 30.681C77.432 30.443 76.82 30.324 76.14 30.324C75.3353 30.324 74.593 30.5167 73.913 30.902C73.233 31.276 72.6833 31.8087 72.264 32.5C71.856 33.18 71.652 33.9847 71.652 34.914C71.652 35.8433 71.8617 36.6537 72.281 37.345C72.7003 38.025 73.25 38.5577 73.93 38.943C74.61 39.317 75.3523 39.504 76.157 39.504C76.8937 39.504 77.5623 39.368 78.163 39.096C78.7637 38.8127 79.2453 38.416 79.608 37.906C79.982 37.396 80.2087 36.784 80.288 36.07H76.123V34.421H82.039C82.107 34.727 82.141 35.05 82.141 35.39V35.407C82.141 36.5857 81.8803 37.617 81.359 38.501C80.849 39.3737 80.1407 40.0537 79.234 40.541C78.3273 41.0283 77.296 41.272 76.14 41.272ZM87.6149 41.272C86.7195 41.272 85.9319 41.068 85.2519 40.66C84.5719 40.252 84.0392 39.7023 83.6539 39.011C83.2685 38.3197 83.0759 37.5377 83.0759 36.665C83.0759 35.8037 83.2685 35.0273 83.6539 34.336C84.0392 33.6333 84.5719 33.078 85.2519 32.67C85.9319 32.262 86.7195 32.058 87.6149 32.058C88.4989 32.058 89.2809 32.262 89.9609 32.67C90.6409 33.078 91.1735 33.6333 91.5589 34.336C91.9442 35.0273 92.1369 35.8037 92.1369 36.665C92.1369 37.5377 91.9442 38.3197 91.5589 39.011C91.1735 39.7023 90.6409 40.252 89.9609 40.66C89.2809 41.068 88.4989 41.272 87.6149 41.272ZM87.6149 39.589C88.0909 39.589 88.5329 39.4757 88.9409 39.249C89.3489 39.011 89.6775 38.6767 89.9269 38.246C90.1875 37.804 90.3179 37.277 90.3179 36.665C90.3179 36.053 90.1875 35.5317 89.9269 35.101C89.6775 34.659 89.3489 34.3247 88.9409 34.098C88.5329 33.86 88.0909 33.741 87.6149 33.741C87.1389 33.741 86.6912 33.86 86.2719 34.098C85.8639 34.3247 85.5295 34.659 85.2689 35.101C85.0195 35.5317 84.8949 36.053 84.8949 36.665C84.8949 37.277 85.0195 37.804 85.2689 38.246C85.5295 38.6767 85.8639 39.011 86.2719 39.249C86.6912 39.4757 87.1389 39.589 87.6149 39.589ZM97.9078 41.272C97.0125 41.272 96.2248 41.068 95.5448 40.66C94.8648 40.252 94.3322 39.7023 93.9468 39.011C93.5615 38.3197 93.3688 37.5377 93.3688 36.665C93.3688 35.8037 93.5615 35.0273 93.9468 34.336C94.3322 33.6333 94.8648 33.078 95.5448 32.67C96.2248 32.262 97.0125 32.058 97.9078 32.058C98.7918 32.058 99.5738 32.262 100.254 32.67C100.934 33.078 101.467 33.6333 101.852 34.336C102.237 35.0273 102.43 35.8037 102.43 36.665C102.43 37.5377 102.237 38.3197 101.852 39.011C101.467 39.7023 100.934 40.252 100.254 40.66C99.5738 41.068 98.7918 41.272 97.9078 41.272ZM97.9078 39.589C98.3838 39.589 98.8258 39.4757 99.2338 39.249C99.6418 39.011 99.9705 38.6767 100.22 38.246C100.481 37.804 100.611 37.277 100.611 36.665C100.611 36.053 100.481 35.5317 100.22 35.101C99.9705 34.659 99.6418 34.3247 99.2338 34.098C98.8258 33.86 98.3838 33.741 97.9078 33.741C97.4318 33.741 96.9842 33.86 96.5648 34.098C96.1568 34.3247 95.8225 34.659 95.5618 35.101C95.3125 35.5317 95.1878 36.053 95.1878 36.665C95.1878 37.277 95.3125 37.804 95.5618 38.246C95.8225 38.6767 96.1568 39.011 96.5648 39.249C96.9842 39.4757 97.4318 39.589 97.9078 39.589ZM108.031 44.944C107.271 44.944 106.614 44.8193 106.059 44.57C105.515 44.332 105.073 44.0203 104.733 43.635C104.393 43.261 104.149 42.8757 104.002 42.479L105.702 41.765C105.883 42.2183 106.172 42.5867 106.569 42.87C106.977 43.1647 107.464 43.312 108.031 43.312C108.824 43.312 109.447 43.074 109.901 42.598C110.365 42.122 110.598 41.4477 110.598 40.575V39.742H110.496C110.224 40.15 109.844 40.4787 109.357 40.728C108.881 40.966 108.337 41.085 107.725 41.085C106.988 41.085 106.314 40.898 105.702 40.524C105.09 40.15 104.597 39.6287 104.223 38.96C103.849 38.28 103.662 37.4867 103.662 36.58C103.662 35.662 103.849 34.8687 104.223 34.2C104.597 33.52 105.09 32.993 105.702 32.619C106.314 32.245 106.988 32.058 107.725 32.058C108.337 32.058 108.881 32.1827 109.357 32.432C109.844 32.6813 110.224 33.01 110.496 33.418H110.598V32.33H112.349V40.541C112.349 41.4817 112.162 42.2807 111.788 42.938C111.425 43.5953 110.921 44.094 110.275 44.434C109.629 44.774 108.881 44.944 108.031 44.944ZM108.048 39.419C108.501 39.419 108.92 39.3113 109.306 39.096C109.691 38.8693 110.003 38.5463 110.241 38.127C110.479 37.6963 110.598 37.1807 110.598 36.58C110.598 35.9567 110.479 35.4353 110.241 35.016C110.003 34.5853 109.691 34.2623 109.306 34.047C108.92 33.8317 108.501 33.724 108.048 33.724C107.594 33.724 107.169 33.8373 106.773 34.064C106.387 34.2793 106.076 34.5967 105.838 35.016C105.6 35.4353 105.481 35.9567 105.481 36.58C105.481 37.192 105.6 37.7133 105.838 38.144C106.076 38.5633 106.387 38.8807 106.773 39.096C107.169 39.3113 107.594 39.419 108.048 39.419ZM114.514 41V28.828H116.35V41H114.514ZM122.392 41.272C121.542 41.272 120.783 41.0737 120.114 40.677C119.446 40.2803 118.919 39.7363 118.533 39.045C118.159 38.3537 117.972 37.566 117.972 36.682C117.972 35.8547 118.154 35.0897 118.516 34.387C118.879 33.6843 119.383 33.1233 120.029 32.704C120.687 32.2733 121.44 32.058 122.29 32.058C123.186 32.058 123.945 32.2507 124.568 32.636C125.203 33.0213 125.685 33.5483 126.013 34.217C126.342 34.8857 126.506 35.6393 126.506 36.478C126.506 36.6027 126.501 36.716 126.489 36.818C126.489 36.92 126.484 36.9993 126.472 37.056H119.774C119.865 37.9173 120.165 38.5633 120.675 38.994C121.197 39.4247 121.786 39.64 122.443 39.64C123.033 39.64 123.52 39.5097 123.905 39.249C124.291 38.977 124.597 38.6427 124.823 38.246L126.336 38.977C125.962 39.657 125.452 40.2123 124.806 40.643C124.16 41.0623 123.356 41.272 122.392 41.272ZM122.307 33.622C121.695 33.622 121.174 33.809 120.743 34.183C120.313 34.557 120.024 35.0557 119.876 35.679H124.687C124.665 35.3843 124.568 35.0783 124.398 34.761C124.228 34.4437 123.968 34.1773 123.616 33.962C123.276 33.7353 122.84 33.622 122.307 33.622ZM133.979 41L130.715 28.828H132.789L134.727 36.733L134.931 37.787H135.033L135.288 36.733L137.736 28.828H139.606L141.952 36.733L142.207 37.77H142.309L142.513 36.733L144.451 28.828H146.508L143.295 41H141.323L138.994 32.925L138.722 31.786H138.62L138.331 32.925L135.9 41H133.979ZM149.922 41.272C149.299 41.272 148.743 41.153 148.256 40.915C147.769 40.6657 147.389 40.32 147.117 39.878C146.845 39.436 146.709 38.9317 146.709 38.365C146.709 37.753 146.868 37.2317 147.185 36.801C147.514 36.359 147.95 36.0247 148.494 35.798C149.038 35.5713 149.639 35.458 150.296 35.458C150.84 35.458 151.316 35.509 151.724 35.611C152.143 35.713 152.461 35.8207 152.676 35.934V35.475C152.676 34.9083 152.472 34.455 152.064 34.115C151.656 33.775 151.129 33.605 150.483 33.605C150.041 33.605 149.622 33.707 149.225 33.911C148.828 34.1037 148.511 34.37 148.273 34.71L147.015 33.741C147.389 33.2197 147.882 32.8117 148.494 32.517C149.117 32.211 149.797 32.058 150.534 32.058C151.792 32.058 152.761 32.3697 153.441 32.993C154.121 33.605 154.461 34.4663 154.461 35.577V41H152.676V39.929H152.574C152.347 40.2803 152.007 40.592 151.554 40.864C151.101 41.136 150.557 41.272 149.922 41.272ZM150.245 39.776C150.721 39.776 151.14 39.6627 151.503 39.436C151.866 39.2093 152.149 38.9147 152.353 38.552C152.568 38.178 152.676 37.7757 152.676 37.345C152.415 37.1977 152.109 37.0787 151.758 36.988C151.407 36.886 151.033 36.835 150.636 36.835C149.888 36.835 149.355 36.988 149.038 37.294C148.721 37.5887 148.562 37.9513 148.562 38.382C148.562 38.79 148.715 39.1243 149.021 39.385C149.327 39.6457 149.735 39.776 150.245 39.776ZM156.499 41V28.828H158.335V41H156.499ZM160.517 41V28.828H162.353V41H160.517ZM168.395 41.272C167.545 41.272 166.786 41.0737 166.117 40.677C165.449 40.2803 164.922 39.7363 164.536 39.045C164.162 38.3537 163.975 37.566 163.975 36.682C163.975 35.8547 164.157 35.0897 164.519 34.387C164.882 33.6843 165.386 33.1233 166.032 32.704C166.69 32.2733 167.443 32.058 168.293 32.058C169.189 32.058 169.948 32.2507 170.571 32.636C171.206 33.0213 171.688 33.5483 172.016 34.217C172.345 34.8857 172.509 35.6393 172.509 36.478C172.509 36.6027 172.504 36.716 172.492 36.818C172.492 36.92 172.487 36.9993 172.475 37.056H165.777C165.868 37.9173 166.168 38.5633 166.678 38.994C167.2 39.4247 167.789 39.64 168.446 39.64C169.036 39.64 169.523 39.5097 169.908 39.249C170.294 38.977 170.6 38.6427 170.826 38.246L172.339 38.977C171.965 39.657 171.455 40.2123 170.809 40.643C170.163 41.0623 169.359 41.272 168.395 41.272ZM168.31 33.622C167.698 33.622 167.177 33.809 166.746 34.183C166.316 34.557 166.027 35.0557 165.879 35.679H170.69C170.668 35.3843 170.571 35.0783 170.401 34.761C170.231 34.4437 169.971 34.1773 169.619 33.962C169.279 33.7353 168.843 33.622 168.31 33.622ZM174.882 38.484V33.928H173.369V32.33H174.882V29.882H176.718V32.33H178.843V33.928H176.718V38.093C176.718 38.5237 176.803 38.8523 176.973 39.079C177.154 39.3057 177.454 39.419 177.874 39.419C178.089 39.419 178.27 39.3907 178.418 39.334C178.576 39.2773 178.735 39.198 178.894 39.096V40.881C178.701 40.9603 178.497 41.0227 178.282 41.068C178.066 41.1133 177.811 41.136 177.517 41.136C176.712 41.136 176.072 40.9037 175.596 40.439C175.12 39.963 174.882 39.3113 174.882 38.484Z" fill="white"/>
<rect x="0.5" y="0.5" width="198" height="53" rx="26.5" stroke="#747775"/>
<defs>
<linearGradient id="paint0_linear_1492_15149" x1="37.2843" y1="33.5448" x2="18.7823" y2="55.2227" gradientUnits="userSpaceOnUse">
<stop stop-color="#4285F4"/>
<stop offset="1" stop-color="#1B74E8"/>
</linearGradient>
</defs>
</svg>
