<svg xmlns="http://www.w3.org/2000/svg" width="130px" height="113px" viewBox="0 0 130 113">
    <g fill="none" fill-rule="evenodd" opacity="0.25">
        <g fill="#FFFFFF" fill-rule="nonzero" transform="translate(-657 -6081)">
            <g transform="translate(270 6055)">
                <path d="M466.8 115.6c8.266708-2.933348 14.39998-7.466636 18.4-13.6 4.00002-6.133364 6-13.466624 6-22h-24.4V26h50v54c0 7.733372-1.33332 14.733302-4 21s-6.266644 11.866642-10.8 16.8-9.79997 9.199982-15.8 12.8c-6.00003 3.600018-12.466632 6.333324-19.4 8.2v-23.2zm-79.6 0c8.266708-2.933348 14.39998-7.466636 18.4-13.6 4.00002-6.133364 6-13.466624 6-22h-24.4V26h50v54c0 7.733372-1.33332 14.733302-4 21s-6.266644 11.866642-10.8 16.8-9.79997 9.199982-15.8 12.8c-6.00003 3.600018-12.466632 6.333324-19.4 8.2v-23.2z"/>
            </g>
        </g>
    </g>
</svg>
