<svg width="199" height="54" viewBox="0 0 199 54" fill="none" xmlns="http://www.w3.org/2000/svg">
<rect x="0.5" y="0.5" width="198" height="53" rx="26.5" fill="#1F1F1F"/>
<path d="M57 23.291H21V17.6456C21 14.5809 23.6422 12.0001 26.7798 12.0001H51.2202C54.3578 12.0001 57 14.5809 57 17.6456V23.291Z" fill="#34A853"/>
<path d="M57 28.5H21V22.5C21 19.2429 23.6422 16.5 26.7798 16.5H51.2202C54.3578 16.5 57 19.2429 57 22.5V28.5Z" fill="#FBBC04"/>
<path d="M57 33.5H21V27.5C21 24.2429 23.6422 21.5 26.7798 21.5H51.2202C54.3578 21.5 57 24.2429 57 27.5V33.5Z" fill="#EA4335"/>
<path d="M21 24.7409L43.8493 29.9025C46.4795 30.5477 49.4384 29.9025 51.5753 28.2895L57 24.4183V36.5157C57 39.5804 54.3699 41.9999 51.2466 41.9999H26.7534C23.6301 41.9999 21 39.5804 21 36.5157V24.7409Z" fill="url(#paint0_linear_1492_15194)"/>
<path d="M69.195 21L72.705 11.692H74.33L77.853 21H76.28L75.422 18.608H71.626L70.768 21H69.195ZM73.134 14.435L72.107 17.282H74.941L73.914 14.435L73.563 13.369H73.485L73.134 14.435ZM81.7338 24.016C81.1531 24.016 80.6505 23.9207 80.2258 23.73C79.8098 23.548 79.4718 23.3097 79.2118 23.015C78.9518 22.729 78.7655 22.4343 78.6528 22.131L79.9528 21.585C80.0915 21.9317 80.3125 22.2133 80.6158 22.43C80.9278 22.6553 81.3005 22.768 81.7338 22.768C82.3405 22.768 82.8171 22.586 83.1638 22.222C83.5191 21.858 83.6968 21.3423 83.6968 20.675V20.038H83.6188C83.4108 20.35 83.1205 20.6013 82.7478 20.792C82.3838 20.974 81.9678 21.065 81.4998 21.065C80.9365 21.065 80.4208 20.922 79.9528 20.636C79.4848 20.35 79.1078 19.9513 78.8218 19.44C78.5358 18.92 78.3928 18.3133 78.3928 17.62C78.3928 16.918 78.5358 16.3113 78.8218 15.8C79.1078 15.28 79.4848 14.877 79.9528 14.591C80.4208 14.305 80.9365 14.162 81.4998 14.162C81.9678 14.162 82.3838 14.2573 82.7478 14.448C83.1205 14.6387 83.4108 14.89 83.6188 15.202H83.6968V14.37H85.0358V20.649C85.0358 21.3683 84.8928 21.9793 84.6068 22.482C84.3295 22.9847 83.9438 23.366 83.4498 23.626C82.9558 23.886 82.3838 24.016 81.7338 24.016ZM81.7468 19.791C82.0935 19.791 82.4141 19.7087 82.7088 19.544C83.0035 19.3707 83.2418 19.1237 83.4238 18.803C83.6058 18.4737 83.6968 18.0793 83.6968 17.62C83.6968 17.1433 83.6058 16.7447 83.4238 16.424C83.2418 16.0947 83.0035 15.8477 82.7088 15.683C82.4141 15.5183 82.0935 15.436 81.7468 15.436C81.4001 15.436 81.0751 15.5227 80.7718 15.696C80.4771 15.8607 80.2388 16.1033 80.0568 16.424C79.8748 16.7447 79.7838 17.1433 79.7838 17.62C79.7838 18.088 79.8748 18.4867 80.0568 18.816C80.2388 19.1367 80.4771 19.3793 80.7718 19.544C81.0751 19.7087 81.4001 19.791 81.7468 19.791ZM89.6049 24.016C89.0242 24.016 88.5216 23.9207 88.0969 23.73C87.6809 23.548 87.3429 23.3097 87.0829 23.015C86.8229 22.729 86.6366 22.4343 86.5239 22.131L87.8239 21.585C87.9626 21.9317 88.1836 22.2133 88.4869 22.43C88.7989 22.6553 89.1716 22.768 89.6049 22.768C90.2116 22.768 90.6882 22.586 91.0349 22.222C91.3902 21.858 91.5679 21.3423 91.5679 20.675V20.038H91.4899C91.2819 20.35 90.9916 20.6013 90.6189 20.792C90.2549 20.974 89.8389 21.065 89.3709 21.065C88.8076 21.065 88.2919 20.922 87.8239 20.636C87.3559 20.35 86.9789 19.9513 86.6929 19.44C86.4069 18.92 86.2639 18.3133 86.2639 17.62C86.2639 16.918 86.4069 16.3113 86.6929 15.8C86.9789 15.28 87.3559 14.877 87.8239 14.591C88.2919 14.305 88.8076 14.162 89.3709 14.162C89.8389 14.162 90.2549 14.2573 90.6189 14.448C90.9916 14.6387 91.2819 14.89 91.4899 15.202H91.5679V14.37H92.9069V20.649C92.9069 21.3683 92.7639 21.9793 92.4779 22.482C92.2006 22.9847 91.8149 23.366 91.3209 23.626C90.8269 23.886 90.2549 24.016 89.6049 24.016ZM89.6179 19.791C89.9646 19.791 90.2852 19.7087 90.5799 19.544C90.8746 19.3707 91.1129 19.1237 91.2949 18.803C91.4769 18.4737 91.5679 18.0793 91.5679 17.62C91.5679 17.1433 91.4769 16.7447 91.2949 16.424C91.1129 16.0947 90.8746 15.8477 90.5799 15.683C90.2852 15.5183 89.9646 15.436 89.6179 15.436C89.2712 15.436 88.9462 15.5227 88.6429 15.696C88.3482 15.8607 88.1099 16.1033 87.9279 16.424C87.7459 16.7447 87.6549 17.1433 87.6549 17.62C87.6549 18.088 87.7459 18.4867 87.9279 18.816C88.1099 19.1367 88.3482 19.3793 88.6429 19.544C88.9462 19.7087 89.2712 19.791 89.6179 19.791ZM95.3555 13.395C95.0955 13.395 94.8701 13.304 94.6795 13.122C94.4975 12.9313 94.4065 12.706 94.4065 12.446C94.4065 12.186 94.4975 11.965 94.6795 11.783C94.8701 11.601 95.0955 11.51 95.3555 11.51C95.6155 11.51 95.8365 11.601 96.0185 11.783C96.2091 11.965 96.3045 12.186 96.3045 12.446C96.3045 12.706 96.2091 12.9313 96.0185 13.122C95.8365 13.304 95.6155 13.395 95.3555 13.395ZM94.6535 21V14.37H96.0575V21H94.6535ZM100.204 21.208C99.3898 21.208 98.7745 20.9653 98.3585 20.48C97.9511 19.986 97.7475 19.3187 97.7475 18.478V14.37H99.1515V18.283C99.1515 18.8463 99.2815 19.2623 99.5415 19.531C99.8101 19.791 100.144 19.921 100.542 19.921C100.898 19.921 101.205 19.83 101.465 19.648C101.734 19.4573 101.938 19.2147 102.076 18.92C102.224 18.6167 102.297 18.2873 102.297 17.932V14.37H103.688V21H102.375V20.103H102.297C102.107 20.415 101.821 20.6793 101.439 20.896C101.067 21.104 100.655 21.208 100.204 21.208ZM105.34 21V14.37H106.666V15.28H106.744C106.935 14.9593 107.217 14.695 107.589 14.487C107.971 14.2703 108.387 14.162 108.837 14.162C109.652 14.162 110.263 14.4047 110.67 14.89C111.078 15.3753 111.281 16.0167 111.281 16.814V21H109.89V16.996C109.89 16.4587 109.756 16.0687 109.487 15.826C109.219 15.5747 108.868 15.449 108.434 15.449C108.096 15.449 107.802 15.5443 107.55 15.735C107.299 15.917 107.1 16.1597 106.952 16.463C106.814 16.7663 106.744 17.0913 106.744 17.438V21H105.34ZM115.808 24.016C115.227 24.016 114.725 23.9207 114.3 23.73C113.884 23.548 113.546 23.3097 113.286 23.015C113.026 22.729 112.84 22.4343 112.727 22.131L114.027 21.585C114.166 21.9317 114.387 22.2133 114.69 22.43C115.002 22.6553 115.375 22.768 115.808 22.768C116.415 22.768 116.891 22.586 117.238 22.222C117.593 21.858 117.771 21.3423 117.771 20.675V20.038H117.693C117.485 20.35 117.195 20.6013 116.822 20.792C116.458 20.974 116.042 21.065 115.574 21.065C115.011 21.065 114.495 20.922 114.027 20.636C113.559 20.35 113.182 19.9513 112.896 19.44C112.61 18.92 112.467 18.3133 112.467 17.62C112.467 16.918 112.61 16.3113 112.896 15.8C113.182 15.28 113.559 14.877 114.027 14.591C114.495 14.305 115.011 14.162 115.574 14.162C116.042 14.162 116.458 14.2573 116.822 14.448C117.195 14.6387 117.485 14.89 117.693 15.202H117.771V14.37H119.11V20.649C119.11 21.3683 118.967 21.9793 118.681 22.482C118.404 22.9847 118.018 23.366 117.524 23.626C117.03 23.886 116.458 24.016 115.808 24.016ZM115.821 19.791C116.168 19.791 116.488 19.7087 116.783 19.544C117.078 19.3707 117.316 19.1237 117.498 18.803C117.68 18.4737 117.771 18.0793 117.771 17.62C117.771 17.1433 117.68 16.7447 117.498 16.424C117.316 16.0947 117.078 15.8477 116.783 15.683C116.488 15.5183 116.168 15.436 115.821 15.436C115.474 15.436 115.149 15.5227 114.846 15.696C114.551 15.8607 114.313 16.1033 114.131 16.424C113.949 16.7447 113.858 17.1433 113.858 17.62C113.858 18.088 113.949 18.4867 114.131 18.816C114.313 19.1367 114.551 19.3793 114.846 19.544C115.149 19.7087 115.474 19.791 115.821 19.791ZM121.559 13.395C121.299 13.395 121.073 13.304 120.883 13.122C120.701 12.9313 120.61 12.706 120.61 12.446C120.61 12.186 120.701 11.965 120.883 11.783C121.073 11.601 121.299 11.51 121.559 11.51C121.819 11.51 122.04 11.601 122.222 11.783C122.412 11.965 122.508 12.186 122.508 12.446C122.508 12.706 122.412 12.9313 122.222 13.122C122.04 13.304 121.819 13.395 121.559 13.395ZM120.857 21V14.37H122.261V21H120.857ZM129.117 21.208C128.64 21.208 128.215 21.117 127.843 20.935C127.47 20.7443 127.18 20.48 126.972 20.142C126.764 19.804 126.66 19.4183 126.66 18.985C126.66 18.517 126.781 18.1183 127.024 17.789C127.275 17.451 127.609 17.1953 128.025 17.022C128.441 16.8487 128.9 16.762 129.403 16.762C129.819 16.762 130.183 16.801 130.495 16.879C130.815 16.957 131.058 17.0393 131.223 17.126V16.775C131.223 16.3417 131.067 15.995 130.755 15.735C130.443 15.475 130.04 15.345 129.546 15.345C129.208 15.345 128.887 15.423 128.584 15.579C128.28 15.7263 128.038 15.93 127.856 16.19L126.894 15.449C127.18 15.0503 127.557 14.7383 128.025 14.513C128.501 14.279 129.021 14.162 129.585 14.162C130.547 14.162 131.288 14.4003 131.808 14.877C132.328 15.345 132.588 16.0037 132.588 16.853V21H131.223V20.181H131.145C130.971 20.4497 130.711 20.688 130.365 20.896C130.018 21.104 129.602 21.208 129.117 21.208ZM129.364 20.064C129.728 20.064 130.048 19.9773 130.326 19.804C130.603 19.6307 130.82 19.4053 130.976 19.128C131.14 18.842 131.223 18.5343 131.223 18.205C131.023 18.0923 130.789 18.0013 130.521 17.932C130.252 17.854 129.966 17.815 129.663 17.815C129.091 17.815 128.683 17.932 128.441 18.166C128.198 18.3913 128.077 18.6687 128.077 18.998C128.077 19.31 128.194 19.5657 128.428 19.765C128.662 19.9643 128.974 20.064 129.364 20.064Z" fill="white"/>
<path d="M76.14 41.272C75.2673 41.272 74.4457 41.1133 73.675 40.796C72.9157 40.4787 72.2413 40.0367 71.652 39.47C71.0627 38.892 70.598 38.2177 70.258 37.447C69.9293 36.665 69.765 35.8207 69.765 34.914C69.765 34.0073 69.9293 33.1687 70.258 32.398C70.598 31.616 71.057 30.9417 71.635 30.375C72.2243 29.797 72.9043 29.3493 73.675 29.032C74.4457 28.7147 75.2673 28.556 76.14 28.556C77.0693 28.556 77.925 28.7203 78.707 29.049C79.5003 29.3777 80.1633 29.8367 80.696 30.426L79.404 31.701C79.0073 31.259 78.5313 30.919 77.976 30.681C77.432 30.443 76.82 30.324 76.14 30.324C75.3353 30.324 74.593 30.5167 73.913 30.902C73.233 31.276 72.6833 31.8087 72.264 32.5C71.856 33.18 71.652 33.9847 71.652 34.914C71.652 35.8433 71.8617 36.6537 72.281 37.345C72.7003 38.025 73.25 38.5577 73.93 38.943C74.61 39.317 75.3523 39.504 76.157 39.504C76.8937 39.504 77.5623 39.368 78.163 39.096C78.7637 38.8127 79.2453 38.416 79.608 37.906C79.982 37.396 80.2087 36.784 80.288 36.07H76.123V34.421H82.039C82.107 34.727 82.141 35.05 82.141 35.39V35.407C82.141 36.5857 81.8803 37.617 81.359 38.501C80.849 39.3737 80.1407 40.0537 79.234 40.541C78.3273 41.0283 77.296 41.272 76.14 41.272ZM87.6149 41.272C86.7195 41.272 85.9319 41.068 85.2519 40.66C84.5719 40.252 84.0392 39.7023 83.6539 39.011C83.2685 38.3197 83.0759 37.5377 83.0759 36.665C83.0759 35.8037 83.2685 35.0273 83.6539 34.336C84.0392 33.6333 84.5719 33.078 85.2519 32.67C85.9319 32.262 86.7195 32.058 87.6149 32.058C88.4989 32.058 89.2809 32.262 89.9609 32.67C90.6409 33.078 91.1735 33.6333 91.5589 34.336C91.9442 35.0273 92.1369 35.8037 92.1369 36.665C92.1369 37.5377 91.9442 38.3197 91.5589 39.011C91.1735 39.7023 90.6409 40.252 89.9609 40.66C89.2809 41.068 88.4989 41.272 87.6149 41.272ZM87.6149 39.589C88.0909 39.589 88.5329 39.4757 88.9409 39.249C89.3489 39.011 89.6775 38.6767 89.9269 38.246C90.1875 37.804 90.3179 37.277 90.3179 36.665C90.3179 36.053 90.1875 35.5317 89.9269 35.101C89.6775 34.659 89.3489 34.3247 88.9409 34.098C88.5329 33.86 88.0909 33.741 87.6149 33.741C87.1389 33.741 86.6912 33.86 86.2719 34.098C85.8639 34.3247 85.5295 34.659 85.2689 35.101C85.0195 35.5317 84.8949 36.053 84.8949 36.665C84.8949 37.277 85.0195 37.804 85.2689 38.246C85.5295 38.6767 85.8639 39.011 86.2719 39.249C86.6912 39.4757 87.1389 39.589 87.6149 39.589ZM97.9078 41.272C97.0125 41.272 96.2248 41.068 95.5448 40.66C94.8648 40.252 94.3322 39.7023 93.9468 39.011C93.5615 38.3197 93.3688 37.5377 93.3688 36.665C93.3688 35.8037 93.5615 35.0273 93.9468 34.336C94.3322 33.6333 94.8648 33.078 95.5448 32.67C96.2248 32.262 97.0125 32.058 97.9078 32.058C98.7918 32.058 99.5738 32.262 100.254 32.67C100.934 33.078 101.467 33.6333 101.852 34.336C102.237 35.0273 102.43 35.8037 102.43 36.665C102.43 37.5377 102.237 38.3197 101.852 39.011C101.467 39.7023 100.934 40.252 100.254 40.66C99.5738 41.068 98.7918 41.272 97.9078 41.272ZM97.9078 39.589C98.3838 39.589 98.8258 39.4757 99.2338 39.249C99.6418 39.011 99.9705 38.6767 100.22 38.246C100.481 37.804 100.611 37.277 100.611 36.665C100.611 36.053 100.481 35.5317 100.22 35.101C99.9705 34.659 99.6418 34.3247 99.2338 34.098C98.8258 33.86 98.3838 33.741 97.9078 33.741C97.4318 33.741 96.9842 33.86 96.5648 34.098C96.1568 34.3247 95.8225 34.659 95.5618 35.101C95.3125 35.5317 95.1878 36.053 95.1878 36.665C95.1878 37.277 95.3125 37.804 95.5618 38.246C95.8225 38.6767 96.1568 39.011 96.5648 39.249C96.9842 39.4757 97.4318 39.589 97.9078 39.589ZM108.031 44.944C107.271 44.944 106.614 44.8193 106.059 44.57C105.515 44.332 105.073 44.0203 104.733 43.635C104.393 43.261 104.149 42.8757 104.002 42.479L105.702 41.765C105.883 42.2183 106.172 42.5867 106.569 42.87C106.977 43.1647 107.464 43.312 108.031 43.312C108.824 43.312 109.447 43.074 109.901 42.598C110.365 42.122 110.598 41.4477 110.598 40.575V39.742H110.496C110.224 40.15 109.844 40.4787 109.357 40.728C108.881 40.966 108.337 41.085 107.725 41.085C106.988 41.085 106.314 40.898 105.702 40.524C105.09 40.15 104.597 39.6287 104.223 38.96C103.849 38.28 103.662 37.4867 103.662 36.58C103.662 35.662 103.849 34.8687 104.223 34.2C104.597 33.52 105.09 32.993 105.702 32.619C106.314 32.245 106.988 32.058 107.725 32.058C108.337 32.058 108.881 32.1827 109.357 32.432C109.844 32.6813 110.224 33.01 110.496 33.418H110.598V32.33H112.349V40.541C112.349 41.4817 112.162 42.2807 111.788 42.938C111.425 43.5953 110.921 44.094 110.275 44.434C109.629 44.774 108.881 44.944 108.031 44.944ZM108.048 39.419C108.501 39.419 108.92 39.3113 109.306 39.096C109.691 38.8693 110.003 38.5463 110.241 38.127C110.479 37.6963 110.598 37.1807 110.598 36.58C110.598 35.9567 110.479 35.4353 110.241 35.016C110.003 34.5853 109.691 34.2623 109.306 34.047C108.92 33.8317 108.501 33.724 108.048 33.724C107.594 33.724 107.169 33.8373 106.773 34.064C106.387 34.2793 106.076 34.5967 105.838 35.016C105.6 35.4353 105.481 35.9567 105.481 36.58C105.481 37.192 105.6 37.7133 105.838 38.144C106.076 38.5633 106.387 38.8807 106.773 39.096C107.169 39.3113 107.594 39.419 108.048 39.419ZM114.514 41V28.828H116.35V41H114.514ZM122.392 41.272C121.542 41.272 120.783 41.0737 120.114 40.677C119.446 40.2803 118.919 39.7363 118.533 39.045C118.159 38.3537 117.972 37.566 117.972 36.682C117.972 35.8547 118.154 35.0897 118.516 34.387C118.879 33.6843 119.383 33.1233 120.029 32.704C120.687 32.2733 121.44 32.058 122.29 32.058C123.186 32.058 123.945 32.2507 124.568 32.636C125.203 33.0213 125.685 33.5483 126.013 34.217C126.342 34.8857 126.506 35.6393 126.506 36.478C126.506 36.6027 126.501 36.716 126.489 36.818C126.489 36.92 126.484 36.9993 126.472 37.056H119.774C119.865 37.9173 120.165 38.5633 120.675 38.994C121.197 39.4247 121.786 39.64 122.443 39.64C123.033 39.64 123.52 39.5097 123.905 39.249C124.291 38.977 124.597 38.6427 124.823 38.246L126.336 38.977C125.962 39.657 125.452 40.2123 124.806 40.643C124.16 41.0623 123.356 41.272 122.392 41.272ZM122.307 33.622C121.695 33.622 121.174 33.809 120.743 34.183C120.313 34.557 120.024 35.0557 119.876 35.679H124.687C124.665 35.3843 124.568 35.0783 124.398 34.761C124.228 34.4437 123.968 34.1773 123.616 33.962C123.276 33.7353 122.84 33.622 122.307 33.622ZM133.979 41L130.715 28.828H132.789L134.727 36.733L134.931 37.787H135.033L135.288 36.733L137.736 28.828H139.606L141.952 36.733L142.207 37.77H142.309L142.513 36.733L144.451 28.828H146.508L143.295 41H141.323L138.994 32.925L138.722 31.786H138.62L138.331 32.925L135.9 41H133.979ZM149.922 41.272C149.299 41.272 148.743 41.153 148.256 40.915C147.769 40.6657 147.389 40.32 147.117 39.878C146.845 39.436 146.709 38.9317 146.709 38.365C146.709 37.753 146.868 37.2317 147.185 36.801C147.514 36.359 147.95 36.0247 148.494 35.798C149.038 35.5713 149.639 35.458 150.296 35.458C150.84 35.458 151.316 35.509 151.724 35.611C152.143 35.713 152.461 35.8207 152.676 35.934V35.475C152.676 34.9083 152.472 34.455 152.064 34.115C151.656 33.775 151.129 33.605 150.483 33.605C150.041 33.605 149.622 33.707 149.225 33.911C148.828 34.1037 148.511 34.37 148.273 34.71L147.015 33.741C147.389 33.2197 147.882 32.8117 148.494 32.517C149.117 32.211 149.797 32.058 150.534 32.058C151.792 32.058 152.761 32.3697 153.441 32.993C154.121 33.605 154.461 34.4663 154.461 35.577V41H152.676V39.929H152.574C152.347 40.2803 152.007 40.592 151.554 40.864C151.101 41.136 150.557 41.272 149.922 41.272ZM150.245 39.776C150.721 39.776 151.14 39.6627 151.503 39.436C151.866 39.2093 152.149 38.9147 152.353 38.552C152.568 38.178 152.676 37.7757 152.676 37.345C152.415 37.1977 152.109 37.0787 151.758 36.988C151.407 36.886 151.033 36.835 150.636 36.835C149.888 36.835 149.355 36.988 149.038 37.294C148.721 37.5887 148.562 37.9513 148.562 38.382C148.562 38.79 148.715 39.1243 149.021 39.385C149.327 39.6457 149.735 39.776 150.245 39.776ZM156.499 41V28.828H158.335V41H156.499ZM160.517 41V28.828H162.353V41H160.517ZM168.395 41.272C167.545 41.272 166.786 41.0737 166.117 40.677C165.449 40.2803 164.922 39.7363 164.536 39.045C164.162 38.3537 163.975 37.566 163.975 36.682C163.975 35.8547 164.157 35.0897 164.519 34.387C164.882 33.6843 165.386 33.1233 166.032 32.704C166.69 32.2733 167.443 32.058 168.293 32.058C169.189 32.058 169.948 32.2507 170.571 32.636C171.206 33.0213 171.688 33.5483 172.016 34.217C172.345 34.8857 172.509 35.6393 172.509 36.478C172.509 36.6027 172.504 36.716 172.492 36.818C172.492 36.92 172.487 36.9993 172.475 37.056H165.777C165.868 37.9173 166.168 38.5633 166.678 38.994C167.2 39.4247 167.789 39.64 168.446 39.64C169.036 39.64 169.523 39.5097 169.908 39.249C170.294 38.977 170.6 38.6427 170.826 38.246L172.339 38.977C171.965 39.657 171.455 40.2123 170.809 40.643C170.163 41.0623 169.359 41.272 168.395 41.272ZM168.31 33.622C167.698 33.622 167.177 33.809 166.746 34.183C166.316 34.557 166.027 35.0557 165.879 35.679H170.69C170.668 35.3843 170.571 35.0783 170.401 34.761C170.231 34.4437 169.971 34.1773 169.619 33.962C169.279 33.7353 168.843 33.622 168.31 33.622ZM174.882 38.484V33.928H173.369V32.33H174.882V29.882H176.718V32.33H178.843V33.928H176.718V38.093C176.718 38.5237 176.803 38.8523 176.973 39.079C177.154 39.3057 177.454 39.419 177.874 39.419C178.089 39.419 178.27 39.3907 178.418 39.334C178.576 39.2773 178.735 39.198 178.894 39.096V40.881C178.701 40.9603 178.497 41.0227 178.282 41.068C178.066 41.1133 177.811 41.136 177.517 41.136C176.712 41.136 176.072 40.9037 175.596 40.439C175.12 39.963 174.882 39.3113 174.882 38.484Z" fill="white"/>
<rect x="0.5" y="0.5" width="198" height="53" rx="26.5" stroke="#747775"/>
<defs>
<linearGradient id="paint0_linear_1492_15194" x1="37.2843" y1="33.5448" x2="18.7823" y2="55.2227" gradientUnits="userSpaceOnUse">
<stop stop-color="#4285F4"/>
<stop offset="1" stop-color="#1B74E8"/>
</linearGradient>
</defs>
</svg>
