<svg width="199" height="54" viewBox="0 0 199 54" fill="none" xmlns="http://www.w3.org/2000/svg">
<rect x="0.5" y="0.5" width="198" height="53" rx="26.5" fill="#1F1F1F"/>
<path d="M57 23.291H21V17.6456C21 14.5809 23.6422 12.0001 26.7798 12.0001H51.2202C54.3578 12.0001 57 14.5809 57 17.6456V23.291Z" fill="#34A853"/>
<path d="M57 28.5H21V22.5C21 19.2429 23.6422 16.5 26.7798 16.5H51.2202C54.3578 16.5 57 19.2429 57 22.5V28.5Z" fill="#FBBC04"/>
<path d="M57 33.5H21V27.5C21 24.2429 23.6422 21.5 26.7798 21.5H51.2202C54.3578 21.5 57 24.2429 57 27.5V33.5Z" fill="#EA4335"/>
<path d="M21 24.7409L43.8493 29.9025C46.4795 30.5477 49.4384 29.9025 51.5753 28.2895L57 24.4183V36.5157C57 39.5804 54.3699 41.9999 51.2466 41.9999H26.7534C23.6301 41.9999 21 39.5804 21 36.5157V24.7409Z" fill="url(#paint0_linear_1492_15140)"/>
<path d="M69.195 21L72.705 11.692H74.33L77.853 21H76.28L75.422 18.608H71.626L70.768 21H69.195ZM73.134 14.435L72.107 17.282H74.941L73.914 14.435L73.563 13.369H73.485L73.134 14.435ZM79.6768 13.395C79.4168 13.395 79.1914 13.304 79.0008 13.122C78.8188 12.9313 78.7278 12.706 78.7278 12.446C78.7278 12.186 78.8188 11.965 79.0008 11.783C79.1914 11.601 79.4168 11.51 79.6768 11.51C79.9368 11.51 80.1578 11.601 80.3398 11.783C80.5304 11.965 80.6258 12.186 80.6258 12.446C80.6258 12.706 80.5304 12.9313 80.3398 13.122C80.1578 13.304 79.9368 13.395 79.6768 13.395ZM78.4158 23.938C78.1471 23.938 77.9044 23.9077 77.6878 23.847V22.495C77.7744 22.547 77.8741 22.586 77.9868 22.612C78.0908 22.6467 78.1948 22.664 78.2988 22.664C78.5501 22.664 78.7234 22.586 78.8188 22.43C78.9228 22.2827 78.9748 22.066 78.9748 21.78V14.37H80.3788V21.793C80.3788 22.5557 80.1924 23.1017 79.8198 23.431C79.4471 23.769 78.9791 23.938 78.4158 23.938ZM85.1773 21.208C84.4926 21.208 83.8903 21.052 83.3703 20.74C82.8503 20.428 82.4429 20.0077 82.1483 19.479C81.8536 18.9503 81.7063 18.3523 81.7063 17.685C81.7063 17.0263 81.8536 16.4327 82.1483 15.904C82.4429 15.3667 82.8503 14.942 83.3703 14.63C83.8903 14.318 84.4926 14.162 85.1773 14.162C85.8533 14.162 86.4513 14.318 86.9713 14.63C87.4913 14.942 87.8986 15.3667 88.1933 15.904C88.4879 16.4327 88.6353 17.0263 88.6353 17.685C88.6353 18.3523 88.4879 18.9503 88.1933 19.479C87.8986 20.0077 87.4913 20.428 86.9713 20.74C86.4513 21.052 85.8533 21.208 85.1773 21.208ZM85.1773 19.921C85.5413 19.921 85.8793 19.8343 86.1913 19.661C86.5033 19.479 86.7546 19.2233 86.9453 18.894C87.1446 18.556 87.2443 18.153 87.2443 17.685C87.2443 17.217 87.1446 16.8183 86.9453 16.489C86.7546 16.151 86.5033 15.8953 86.1913 15.722C85.8793 15.54 85.5413 15.449 85.1773 15.449C84.8133 15.449 84.4709 15.54 84.1503 15.722C83.8383 15.8953 83.5826 16.151 83.3833 16.489C83.1926 16.8183 83.0973 17.217 83.0973 17.685C83.0973 18.153 83.1926 18.556 83.3833 18.894C83.5826 19.2233 83.8383 19.479 84.1503 19.661C84.4709 19.8343 84.8133 19.921 85.1773 19.921ZM92.2699 21.208C91.4552 21.208 90.8399 20.9653 90.4239 20.48C90.0166 19.986 89.8129 19.3187 89.8129 18.478V14.37H91.2169V18.283C91.2169 18.8463 91.3469 19.2623 91.6069 19.531C91.8756 19.791 92.2092 19.921 92.6079 19.921C92.9632 19.921 93.2709 19.83 93.5309 19.648C93.7996 19.4573 94.0032 19.2147 94.1419 18.92C94.2892 18.6167 94.3629 18.2873 94.3629 17.932V14.37H95.7539V21H94.4409V20.103H94.3629C94.1722 20.415 93.8862 20.6793 93.5049 20.896C93.1322 21.104 92.7206 21.208 92.2699 21.208ZM98.1714 19.076V15.592H97.0144V14.37H98.1714V12.498H99.5754V14.37H101.2V15.592H99.5754V18.777C99.5754 19.1063 99.6404 19.3577 99.7704 19.531C99.9091 19.7043 100.139 19.791 100.459 19.791C100.624 19.791 100.763 19.7693 100.875 19.726C100.997 19.6827 101.118 19.622 101.239 19.544V20.909C101.092 20.9697 100.936 21.0173 100.771 21.052C100.607 21.0867 100.412 21.104 100.186 21.104C99.5711 21.104 99.0814 20.9263 98.7174 20.571C98.3534 20.207 98.1714 19.7087 98.1714 19.076ZM105.323 21.208C104.673 21.208 104.092 21.0563 103.581 20.753C103.069 20.4497 102.666 20.0337 102.372 19.505C102.086 18.9763 101.943 18.374 101.943 17.698C101.943 17.0653 102.081 16.4803 102.359 15.943C102.636 15.4057 103.022 14.9767 103.516 14.656C104.018 14.3267 104.595 14.162 105.245 14.162C105.929 14.162 106.51 14.3093 106.987 14.604C107.472 14.8987 107.84 15.3017 108.092 15.813C108.343 16.3243 108.469 16.9007 108.469 17.542C108.469 17.6373 108.464 17.724 108.456 17.802C108.456 17.88 108.451 17.9407 108.443 17.984H103.321C103.39 18.6427 103.62 19.1367 104.01 19.466C104.408 19.7953 104.859 19.96 105.362 19.96C105.812 19.96 106.185 19.8603 106.48 19.661C106.774 19.453 107.008 19.1973 107.182 18.894L108.339 19.453C108.053 19.973 107.663 20.3977 107.169 20.727C106.675 21.0477 106.059 21.208 105.323 21.208ZM105.258 15.358C104.79 15.358 104.391 15.501 104.062 15.787C103.732 16.073 103.511 16.4543 103.399 16.931H107.078C107.06 16.7057 106.987 16.4717 106.857 16.229C106.727 15.9863 106.527 15.7827 106.259 15.618C105.999 15.4447 105.665 15.358 105.258 15.358ZM109.771 21V14.37H111.097V15.345H111.175C111.322 15.007 111.574 14.7297 111.929 14.513C112.293 14.2877 112.683 14.175 113.099 14.175C113.281 14.175 113.433 14.188 113.554 14.214C113.684 14.24 113.801 14.2703 113.905 14.305V15.761C113.74 15.6917 113.571 15.6353 113.398 15.592C113.233 15.5487 113.06 15.527 112.878 15.527C112.549 15.527 112.254 15.618 111.994 15.8C111.743 15.9733 111.543 16.2117 111.396 16.515C111.249 16.8097 111.175 17.1347 111.175 17.49V21H109.771ZM120.103 21.208C119.626 21.208 119.202 21.117 118.829 20.935C118.456 20.7443 118.166 20.48 117.958 20.142C117.75 19.804 117.646 19.4183 117.646 18.985C117.646 18.517 117.767 18.1183 118.01 17.789C118.261 17.451 118.595 17.1953 119.011 17.022C119.427 16.8487 119.886 16.762 120.389 16.762C120.805 16.762 121.169 16.801 121.481 16.879C121.802 16.957 122.044 17.0393 122.209 17.126V16.775C122.209 16.3417 122.053 15.995 121.741 15.735C121.429 15.475 121.026 15.345 120.532 15.345C120.194 15.345 119.873 15.423 119.57 15.579C119.267 15.7263 119.024 15.93 118.842 16.19L117.88 15.449C118.166 15.0503 118.543 14.7383 119.011 14.513C119.488 14.279 120.008 14.162 120.571 14.162C121.533 14.162 122.274 14.4003 122.794 14.877C123.314 15.345 123.574 16.0037 123.574 16.853V21H122.209V20.181H122.131C121.958 20.4497 121.698 20.688 121.351 20.896C121.004 21.104 120.588 21.208 120.103 21.208ZM120.35 20.064C120.714 20.064 121.035 19.9773 121.312 19.804C121.589 19.6307 121.806 19.4053 121.962 19.128C122.127 18.842 122.209 18.5343 122.209 18.205C122.01 18.0923 121.776 18.0013 121.507 17.932C121.238 17.854 120.952 17.815 120.649 17.815C120.077 17.815 119.67 17.932 119.427 18.166C119.184 18.3913 119.063 18.6687 119.063 18.998C119.063 19.31 119.18 19.5657 119.414 19.765C119.648 19.9643 119.96 20.064 120.35 20.064ZM127.525 21.208C126.71 21.208 126.095 20.9653 125.679 20.48C125.271 19.986 125.068 19.3187 125.068 18.478V14.37H126.472V18.283C126.472 18.8463 126.602 19.2623 126.862 19.531C127.13 19.791 127.464 19.921 127.863 19.921C128.218 19.921 128.526 19.83 128.786 19.648C129.054 19.4573 129.258 19.2147 129.397 18.92C129.544 18.6167 129.618 18.2873 129.618 17.932V14.37H131.009V21H129.696V20.103H129.618C129.427 20.415 129.141 20.6793 128.76 20.896C128.387 21.104 127.975 21.208 127.525 21.208Z" fill="white"/>
<path d="M76.14 41.272C75.2673 41.272 74.4457 41.1133 73.675 40.796C72.9157 40.4787 72.2413 40.0367 71.652 39.47C71.0627 38.892 70.598 38.2177 70.258 37.447C69.9293 36.665 69.765 35.8207 69.765 34.914C69.765 34.0073 69.9293 33.1687 70.258 32.398C70.598 31.616 71.057 30.9417 71.635 30.375C72.2243 29.797 72.9043 29.3493 73.675 29.032C74.4457 28.7147 75.2673 28.556 76.14 28.556C77.0693 28.556 77.925 28.7203 78.707 29.049C79.5003 29.3777 80.1633 29.8367 80.696 30.426L79.404 31.701C79.0073 31.259 78.5313 30.919 77.976 30.681C77.432 30.443 76.82 30.324 76.14 30.324C75.3353 30.324 74.593 30.5167 73.913 30.902C73.233 31.276 72.6833 31.8087 72.264 32.5C71.856 33.18 71.652 33.9847 71.652 34.914C71.652 35.8433 71.8617 36.6537 72.281 37.345C72.7003 38.025 73.25 38.5577 73.93 38.943C74.61 39.317 75.3523 39.504 76.157 39.504C76.8937 39.504 77.5623 39.368 78.163 39.096C78.7637 38.8127 79.2453 38.416 79.608 37.906C79.982 37.396 80.2087 36.784 80.288 36.07H76.123V34.421H82.039C82.107 34.727 82.141 35.05 82.141 35.39V35.407C82.141 36.5857 81.8803 37.617 81.359 38.501C80.849 39.3737 80.1407 40.0537 79.234 40.541C78.3273 41.0283 77.296 41.272 76.14 41.272ZM87.6149 41.272C86.7195 41.272 85.9319 41.068 85.2519 40.66C84.5719 40.252 84.0392 39.7023 83.6539 39.011C83.2685 38.3197 83.0759 37.5377 83.0759 36.665C83.0759 35.8037 83.2685 35.0273 83.6539 34.336C84.0392 33.6333 84.5719 33.078 85.2519 32.67C85.9319 32.262 86.7195 32.058 87.6149 32.058C88.4989 32.058 89.2809 32.262 89.9609 32.67C90.6409 33.078 91.1735 33.6333 91.5589 34.336C91.9442 35.0273 92.1369 35.8037 92.1369 36.665C92.1369 37.5377 91.9442 38.3197 91.5589 39.011C91.1735 39.7023 90.6409 40.252 89.9609 40.66C89.2809 41.068 88.4989 41.272 87.6149 41.272ZM87.6149 39.589C88.0909 39.589 88.5329 39.4757 88.9409 39.249C89.3489 39.011 89.6775 38.6767 89.9269 38.246C90.1875 37.804 90.3179 37.277 90.3179 36.665C90.3179 36.053 90.1875 35.5317 89.9269 35.101C89.6775 34.659 89.3489 34.3247 88.9409 34.098C88.5329 33.86 88.0909 33.741 87.6149 33.741C87.1389 33.741 86.6912 33.86 86.2719 34.098C85.8639 34.3247 85.5295 34.659 85.2689 35.101C85.0195 35.5317 84.8949 36.053 84.8949 36.665C84.8949 37.277 85.0195 37.804 85.2689 38.246C85.5295 38.6767 85.8639 39.011 86.2719 39.249C86.6912 39.4757 87.1389 39.589 87.6149 39.589ZM97.9078 41.272C97.0125 41.272 96.2248 41.068 95.5448 40.66C94.8648 40.252 94.3322 39.7023 93.9468 39.011C93.5615 38.3197 93.3688 37.5377 93.3688 36.665C93.3688 35.8037 93.5615 35.0273 93.9468 34.336C94.3322 33.6333 94.8648 33.078 95.5448 32.67C96.2248 32.262 97.0125 32.058 97.9078 32.058C98.7918 32.058 99.5738 32.262 100.254 32.67C100.934 33.078 101.467 33.6333 101.852 34.336C102.237 35.0273 102.43 35.8037 102.43 36.665C102.43 37.5377 102.237 38.3197 101.852 39.011C101.467 39.7023 100.934 40.252 100.254 40.66C99.5738 41.068 98.7918 41.272 97.9078 41.272ZM97.9078 39.589C98.3838 39.589 98.8258 39.4757 99.2338 39.249C99.6418 39.011 99.9705 38.6767 100.22 38.246C100.481 37.804 100.611 37.277 100.611 36.665C100.611 36.053 100.481 35.5317 100.22 35.101C99.9705 34.659 99.6418 34.3247 99.2338 34.098C98.8258 33.86 98.3838 33.741 97.9078 33.741C97.4318 33.741 96.9842 33.86 96.5648 34.098C96.1568 34.3247 95.8225 34.659 95.5618 35.101C95.3125 35.5317 95.1878 36.053 95.1878 36.665C95.1878 37.277 95.3125 37.804 95.5618 38.246C95.8225 38.6767 96.1568 39.011 96.5648 39.249C96.9842 39.4757 97.4318 39.589 97.9078 39.589ZM108.031 44.944C107.271 44.944 106.614 44.8193 106.059 44.57C105.515 44.332 105.073 44.0203 104.733 43.635C104.393 43.261 104.149 42.8757 104.002 42.479L105.702 41.765C105.883 42.2183 106.172 42.5867 106.569 42.87C106.977 43.1647 107.464 43.312 108.031 43.312C108.824 43.312 109.447 43.074 109.901 42.598C110.365 42.122 110.598 41.4477 110.598 40.575V39.742H110.496C110.224 40.15 109.844 40.4787 109.357 40.728C108.881 40.966 108.337 41.085 107.725 41.085C106.988 41.085 106.314 40.898 105.702 40.524C105.09 40.15 104.597 39.6287 104.223 38.96C103.849 38.28 103.662 37.4867 103.662 36.58C103.662 35.662 103.849 34.8687 104.223 34.2C104.597 33.52 105.09 32.993 105.702 32.619C106.314 32.245 106.988 32.058 107.725 32.058C108.337 32.058 108.881 32.1827 109.357 32.432C109.844 32.6813 110.224 33.01 110.496 33.418H110.598V32.33H112.349V40.541C112.349 41.4817 112.162 42.2807 111.788 42.938C111.425 43.5953 110.921 44.094 110.275 44.434C109.629 44.774 108.881 44.944 108.031 44.944ZM108.048 39.419C108.501 39.419 108.92 39.3113 109.306 39.096C109.691 38.8693 110.003 38.5463 110.241 38.127C110.479 37.6963 110.598 37.1807 110.598 36.58C110.598 35.9567 110.479 35.4353 110.241 35.016C110.003 34.5853 109.691 34.2623 109.306 34.047C108.92 33.8317 108.501 33.724 108.048 33.724C107.594 33.724 107.169 33.8373 106.773 34.064C106.387 34.2793 106.076 34.5967 105.838 35.016C105.6 35.4353 105.481 35.9567 105.481 36.58C105.481 37.192 105.6 37.7133 105.838 38.144C106.076 38.5633 106.387 38.8807 106.773 39.096C107.169 39.3113 107.594 39.419 108.048 39.419ZM114.514 41V28.828H116.35V41H114.514ZM122.392 41.272C121.542 41.272 120.783 41.0737 120.114 40.677C119.446 40.2803 118.919 39.7363 118.533 39.045C118.159 38.3537 117.972 37.566 117.972 36.682C117.972 35.8547 118.154 35.0897 118.516 34.387C118.879 33.6843 119.383 33.1233 120.029 32.704C120.687 32.2733 121.44 32.058 122.29 32.058C123.186 32.058 123.945 32.2507 124.568 32.636C125.203 33.0213 125.685 33.5483 126.013 34.217C126.342 34.8857 126.506 35.6393 126.506 36.478C126.506 36.6027 126.501 36.716 126.489 36.818C126.489 36.92 126.484 36.9993 126.472 37.056H119.774C119.865 37.9173 120.165 38.5633 120.675 38.994C121.197 39.4247 121.786 39.64 122.443 39.64C123.033 39.64 123.52 39.5097 123.905 39.249C124.291 38.977 124.597 38.6427 124.823 38.246L126.336 38.977C125.962 39.657 125.452 40.2123 124.806 40.643C124.16 41.0623 123.356 41.272 122.392 41.272ZM122.307 33.622C121.695 33.622 121.174 33.809 120.743 34.183C120.313 34.557 120.024 35.0557 119.876 35.679H124.687C124.665 35.3843 124.568 35.0783 124.398 34.761C124.228 34.4437 123.968 34.1773 123.616 33.962C123.276 33.7353 122.84 33.622 122.307 33.622ZM133.979 41L130.715 28.828H132.789L134.727 36.733L134.931 37.787H135.033L135.288 36.733L137.736 28.828H139.606L141.952 36.733L142.207 37.77H142.309L142.513 36.733L144.451 28.828H146.508L143.295 41H141.323L138.994 32.925L138.722 31.786H138.62L138.331 32.925L135.9 41H133.979ZM149.922 41.272C149.299 41.272 148.743 41.153 148.256 40.915C147.769 40.6657 147.389 40.32 147.117 39.878C146.845 39.436 146.709 38.9317 146.709 38.365C146.709 37.753 146.868 37.2317 147.185 36.801C147.514 36.359 147.95 36.0247 148.494 35.798C149.038 35.5713 149.639 35.458 150.296 35.458C150.84 35.458 151.316 35.509 151.724 35.611C152.143 35.713 152.461 35.8207 152.676 35.934V35.475C152.676 34.9083 152.472 34.455 152.064 34.115C151.656 33.775 151.129 33.605 150.483 33.605C150.041 33.605 149.622 33.707 149.225 33.911C148.828 34.1037 148.511 34.37 148.273 34.71L147.015 33.741C147.389 33.2197 147.882 32.8117 148.494 32.517C149.117 32.211 149.797 32.058 150.534 32.058C151.792 32.058 152.761 32.3697 153.441 32.993C154.121 33.605 154.461 34.4663 154.461 35.577V41H152.676V39.929H152.574C152.347 40.2803 152.007 40.592 151.554 40.864C151.101 41.136 150.557 41.272 149.922 41.272ZM150.245 39.776C150.721 39.776 151.14 39.6627 151.503 39.436C151.866 39.2093 152.149 38.9147 152.353 38.552C152.568 38.178 152.676 37.7757 152.676 37.345C152.415 37.1977 152.109 37.0787 151.758 36.988C151.407 36.886 151.033 36.835 150.636 36.835C149.888 36.835 149.355 36.988 149.038 37.294C148.721 37.5887 148.562 37.9513 148.562 38.382C148.562 38.79 148.715 39.1243 149.021 39.385C149.327 39.6457 149.735 39.776 150.245 39.776ZM156.499 41V28.828H158.335V41H156.499ZM160.517 41V28.828H162.353V41H160.517ZM168.395 41.272C167.545 41.272 166.786 41.0737 166.117 40.677C165.449 40.2803 164.922 39.7363 164.536 39.045C164.162 38.3537 163.975 37.566 163.975 36.682C163.975 35.8547 164.157 35.0897 164.519 34.387C164.882 33.6843 165.386 33.1233 166.032 32.704C166.69 32.2733 167.443 32.058 168.293 32.058C169.189 32.058 169.948 32.2507 170.571 32.636C171.206 33.0213 171.688 33.5483 172.016 34.217C172.345 34.8857 172.509 35.6393 172.509 36.478C172.509 36.6027 172.504 36.716 172.492 36.818C172.492 36.92 172.487 36.9993 172.475 37.056H165.777C165.868 37.9173 166.168 38.5633 166.678 38.994C167.2 39.4247 167.789 39.64 168.446 39.64C169.036 39.64 169.523 39.5097 169.908 39.249C170.294 38.977 170.6 38.6427 170.826 38.246L172.339 38.977C171.965 39.657 171.455 40.2123 170.809 40.643C170.163 41.0623 169.359 41.272 168.395 41.272ZM168.31 33.622C167.698 33.622 167.177 33.809 166.746 34.183C166.316 34.557 166.027 35.0557 165.879 35.679H170.69C170.668 35.3843 170.571 35.0783 170.401 34.761C170.231 34.4437 169.971 34.1773 169.619 33.962C169.279 33.7353 168.843 33.622 168.31 33.622ZM174.882 38.484V33.928H173.369V32.33H174.882V29.882H176.718V32.33H178.843V33.928H176.718V38.093C176.718 38.5237 176.803 38.8523 176.973 39.079C177.154 39.3057 177.454 39.419 177.874 39.419C178.089 39.419 178.27 39.3907 178.418 39.334C178.576 39.2773 178.735 39.198 178.894 39.096V40.881C178.701 40.9603 178.497 41.0227 178.282 41.068C178.066 41.1133 177.811 41.136 177.517 41.136C176.712 41.136 176.072 40.9037 175.596 40.439C175.12 39.963 174.882 39.3113 174.882 38.484Z" fill="white"/>
<rect x="0.5" y="0.5" width="198" height="53" rx="26.5" stroke="#747775"/>
<defs>
<linearGradient id="paint0_linear_1492_15140" x1="37.2843" y1="33.5448" x2="18.7823" y2="55.2227" gradientUnits="userSpaceOnUse">
<stop stop-color="#4285F4"/>
<stop offset="1" stop-color="#1B74E8"/>
</linearGradient>
</defs>
</svg>
