<svg width="199" height="54" viewBox="0 0 199 54" fill="none" xmlns="http://www.w3.org/2000/svg">
<rect x="0.5" y="0.5" width="198" height="53" rx="26.5" fill="#1F1F1F"/>
<path d="M57 23.291H21V17.6456C21 14.5809 23.6422 12.0001 26.7798 12.0001H51.2202C54.3578 12.0001 57 14.5809 57 17.6456V23.291Z" fill="#34A853"/>
<path d="M57 28.5H21V22.5C21 19.2429 23.6422 16.5 26.7798 16.5H51.2202C54.3578 16.5 57 19.2429 57 22.5V28.5Z" fill="#FBBC04"/>
<path d="M57 33.5H21V27.5C21 24.2429 23.6422 21.5 26.7798 21.5H51.2202C54.3578 21.5 57 24.2429 57 27.5V33.5Z" fill="#EA4335"/>
<path d="M21 24.7409L43.8493 29.9025C46.4795 30.5477 49.4384 29.9025 51.5753 28.2895L57 24.4183V36.5157C57 39.5804 54.3699 41.9999 51.2466 41.9999H26.7534C23.6301 41.9999 21 39.5804 21 36.5157V24.7409Z" fill="url(#paint0_linear_1492_15248)"/>
<path d="M70.053 21V11.692H71.483V19.648H75.487V21H70.053ZM79.6019 21.208C78.9519 21.208 78.3712 21.0563 77.8599 20.753C77.3486 20.4497 76.9456 20.0337 76.6509 19.505C76.3649 18.9763 76.2219 18.374 76.2219 17.698C76.2219 17.0653 76.3606 16.4803 76.6379 15.943C76.9152 15.4057 77.3009 14.9767 77.7949 14.656C78.2976 14.3267 78.8739 14.162 79.5239 14.162C80.2086 14.162 80.7892 14.3093 81.2659 14.604C81.7512 14.8987 82.1196 15.3017 82.3709 15.813C82.6222 16.3243 82.7479 16.9007 82.7479 17.542C82.7479 17.6373 82.7436 17.724 82.7349 17.802C82.7349 17.88 82.7306 17.9407 82.7219 17.984H77.5999C77.6692 18.6427 77.8989 19.1367 78.2889 19.466C78.6876 19.7953 79.1382 19.96 79.6409 19.96C80.0916 19.96 80.4642 19.8603 80.7589 19.661C81.0536 19.453 81.2876 19.1973 81.4609 18.894L82.6179 19.453C82.3319 19.973 81.9419 20.3977 81.4479 20.727C80.9539 21.0477 80.3386 21.208 79.6019 21.208ZM79.5369 15.358C79.0689 15.358 78.6702 15.501 78.3409 15.787C78.0116 16.073 77.7906 16.4543 77.6779 16.931H81.3569C81.3396 16.7057 81.2659 16.4717 81.1359 16.229C81.0059 15.9863 80.8066 15.7827 80.5379 15.618C80.2779 15.4447 79.9442 15.358 79.5369 15.358ZM87.1039 24.016C86.5233 24.016 86.0206 23.9207 85.5959 23.73C85.1799 23.548 84.8419 23.3097 84.5819 23.015C84.3219 22.729 84.1356 22.4343 84.0229 22.131L85.3229 21.585C85.4616 21.9317 85.6826 22.2133 85.9859 22.43C86.2979 22.6553 86.6706 22.768 87.1039 22.768C87.7106 22.768 88.1873 22.586 88.5339 22.222C88.8893 21.858 89.0669 21.3423 89.0669 20.675V20.038H88.9889C88.7809 20.35 88.4906 20.6013 88.1179 20.792C87.7539 20.974 87.3379 21.065 86.8699 21.065C86.3066 21.065 85.7909 20.922 85.3229 20.636C84.8549 20.35 84.4779 19.9513 84.1919 19.44C83.9059 18.92 83.7629 18.3133 83.7629 17.62C83.7629 16.918 83.9059 16.3113 84.1919 15.8C84.4779 15.28 84.8549 14.877 85.3229 14.591C85.7909 14.305 86.3066 14.162 86.8699 14.162C87.3379 14.162 87.7539 14.2573 88.1179 14.448C88.4906 14.6387 88.7809 14.89 88.9889 15.202H89.0669V14.37H90.4059V20.649C90.4059 21.3683 90.2629 21.9793 89.9769 22.482C89.6996 22.9847 89.3139 23.366 88.8199 23.626C88.3259 23.886 87.7539 24.016 87.1039 24.016ZM87.1169 19.791C87.4636 19.791 87.7843 19.7087 88.0789 19.544C88.3736 19.3707 88.6119 19.1237 88.7939 18.803C88.9759 18.4737 89.0669 18.0793 89.0669 17.62C89.0669 17.1433 88.9759 16.7447 88.7939 16.424C88.6119 16.0947 88.3736 15.8477 88.0789 15.683C87.7843 15.5183 87.4636 15.436 87.1169 15.436C86.7703 15.436 86.4453 15.5227 86.1419 15.696C85.8473 15.8607 85.6089 16.1033 85.4269 16.424C85.2449 16.7447 85.1539 17.1433 85.1539 17.62C85.1539 18.088 85.2449 18.4867 85.4269 18.816C85.6089 19.1367 85.8473 19.3793 86.1419 19.544C86.4453 19.7087 86.7703 19.791 87.1169 19.791ZM94.975 24.016C94.3943 24.016 93.8917 23.9207 93.467 23.73C93.051 23.548 92.713 23.3097 92.453 23.015C92.193 22.729 92.0067 22.4343 91.894 22.131L93.194 21.585C93.3327 21.9317 93.5537 22.2133 93.857 22.43C94.169 22.6553 94.5417 22.768 94.975 22.768C95.5817 22.768 96.0583 22.586 96.405 22.222C96.7603 21.858 96.938 21.3423 96.938 20.675V20.038H96.86C96.652 20.35 96.3617 20.6013 95.989 20.792C95.625 20.974 95.209 21.065 94.741 21.065C94.1777 21.065 93.662 20.922 93.194 20.636C92.726 20.35 92.349 19.9513 92.063 19.44C91.777 18.92 91.634 18.3133 91.634 17.62C91.634 16.918 91.777 16.3113 92.063 15.8C92.349 15.28 92.726 14.877 93.194 14.591C93.662 14.305 94.1777 14.162 94.741 14.162C95.209 14.162 95.625 14.2573 95.989 14.448C96.3617 14.6387 96.652 14.89 96.86 15.202H96.938V14.37H98.277V20.649C98.277 21.3683 98.134 21.9793 97.848 22.482C97.5707 22.9847 97.185 23.366 96.691 23.626C96.197 23.886 95.625 24.016 94.975 24.016ZM94.988 19.791C95.3347 19.791 95.6553 19.7087 95.95 19.544C96.2447 19.3707 96.483 19.1237 96.665 18.803C96.847 18.4737 96.938 18.0793 96.938 17.62C96.938 17.1433 96.847 16.7447 96.665 16.424C96.483 16.0947 96.2447 15.8477 95.95 15.683C95.6553 15.5183 95.3347 15.436 94.988 15.436C94.6413 15.436 94.3163 15.5227 94.013 15.696C93.7183 15.8607 93.48 16.1033 93.298 16.424C93.116 16.7447 93.025 17.1433 93.025 17.62C93.025 18.088 93.116 18.4867 93.298 18.816C93.48 19.1367 93.7183 19.3793 94.013 19.544C94.3163 19.7087 94.6413 19.791 94.988 19.791ZM103.656 19.076V15.592H102.499V14.37H103.656V12.498H105.06V14.37H106.685V15.592H105.06V18.777C105.06 19.1063 105.125 19.3577 105.255 19.531C105.393 19.7043 105.623 19.791 105.944 19.791C106.108 19.791 106.247 19.7693 106.36 19.726C106.481 19.6827 106.602 19.622 106.724 19.544V20.909C106.576 20.9697 106.42 21.0173 106.256 21.052C106.091 21.0867 105.896 21.104 105.671 21.104C105.055 21.104 104.566 20.9263 104.202 20.571C103.838 20.207 103.656 19.7087 103.656 19.076ZM108.901 13.395C108.641 13.395 108.416 13.304 108.225 13.122C108.043 12.9313 107.952 12.706 107.952 12.446C107.952 12.186 108.043 11.965 108.225 11.783C108.416 11.601 108.641 11.51 108.901 11.51C109.161 11.51 109.382 11.601 109.564 11.783C109.755 11.965 109.85 12.186 109.85 12.446C109.85 12.706 109.755 12.9313 109.564 13.122C109.382 13.304 109.161 13.395 108.901 13.395ZM108.199 21V14.37H109.603V21H108.199ZM111.358 21V11.692H112.762V21H111.358ZM118.258 13.395C117.998 13.395 117.772 13.304 117.582 13.122C117.4 12.9313 117.309 12.706 117.309 12.446C117.309 12.186 117.4 11.965 117.582 11.783C117.772 11.601 117.998 11.51 118.258 11.51C118.518 11.51 118.739 11.601 118.921 11.783C119.111 11.965 119.207 12.186 119.207 12.446C119.207 12.706 119.111 12.9313 118.921 13.122C118.739 13.304 118.518 13.395 118.258 13.395ZM117.556 21V14.37H118.96V21H117.556Z" fill="white"/>
<path d="M76.14 41.272C75.2673 41.272 74.4457 41.1133 73.675 40.796C72.9157 40.4787 72.2413 40.0367 71.652 39.47C71.0627 38.892 70.598 38.2177 70.258 37.447C69.9293 36.665 69.765 35.8207 69.765 34.914C69.765 34.0073 69.9293 33.1687 70.258 32.398C70.598 31.616 71.057 30.9417 71.635 30.375C72.2243 29.797 72.9043 29.3493 73.675 29.032C74.4457 28.7147 75.2673 28.556 76.14 28.556C77.0693 28.556 77.925 28.7203 78.707 29.049C79.5003 29.3777 80.1633 29.8367 80.696 30.426L79.404 31.701C79.0073 31.259 78.5313 30.919 77.976 30.681C77.432 30.443 76.82 30.324 76.14 30.324C75.3353 30.324 74.593 30.5167 73.913 30.902C73.233 31.276 72.6833 31.8087 72.264 32.5C71.856 33.18 71.652 33.9847 71.652 34.914C71.652 35.8433 71.8617 36.6537 72.281 37.345C72.7003 38.025 73.25 38.5577 73.93 38.943C74.61 39.317 75.3523 39.504 76.157 39.504C76.8937 39.504 77.5623 39.368 78.163 39.096C78.7637 38.8127 79.2453 38.416 79.608 37.906C79.982 37.396 80.2087 36.784 80.288 36.07H76.123V34.421H82.039C82.107 34.727 82.141 35.05 82.141 35.39V35.407C82.141 36.5857 81.8803 37.617 81.359 38.501C80.849 39.3737 80.1407 40.0537 79.234 40.541C78.3273 41.0283 77.296 41.272 76.14 41.272ZM87.6149 41.272C86.7195 41.272 85.9319 41.068 85.2519 40.66C84.5719 40.252 84.0392 39.7023 83.6539 39.011C83.2685 38.3197 83.0759 37.5377 83.0759 36.665C83.0759 35.8037 83.2685 35.0273 83.6539 34.336C84.0392 33.6333 84.5719 33.078 85.2519 32.67C85.9319 32.262 86.7195 32.058 87.6149 32.058C88.4989 32.058 89.2809 32.262 89.9609 32.67C90.6409 33.078 91.1735 33.6333 91.5589 34.336C91.9442 35.0273 92.1369 35.8037 92.1369 36.665C92.1369 37.5377 91.9442 38.3197 91.5589 39.011C91.1735 39.7023 90.6409 40.252 89.9609 40.66C89.2809 41.068 88.4989 41.272 87.6149 41.272ZM87.6149 39.589C88.0909 39.589 88.5329 39.4757 88.9409 39.249C89.3489 39.011 89.6775 38.6767 89.9269 38.246C90.1875 37.804 90.3179 37.277 90.3179 36.665C90.3179 36.053 90.1875 35.5317 89.9269 35.101C89.6775 34.659 89.3489 34.3247 88.9409 34.098C88.5329 33.86 88.0909 33.741 87.6149 33.741C87.1389 33.741 86.6912 33.86 86.2719 34.098C85.8639 34.3247 85.5295 34.659 85.2689 35.101C85.0195 35.5317 84.8949 36.053 84.8949 36.665C84.8949 37.277 85.0195 37.804 85.2689 38.246C85.5295 38.6767 85.8639 39.011 86.2719 39.249C86.6912 39.4757 87.1389 39.589 87.6149 39.589ZM97.9078 41.272C97.0125 41.272 96.2248 41.068 95.5448 40.66C94.8648 40.252 94.3322 39.7023 93.9468 39.011C93.5615 38.3197 93.3688 37.5377 93.3688 36.665C93.3688 35.8037 93.5615 35.0273 93.9468 34.336C94.3322 33.6333 94.8648 33.078 95.5448 32.67C96.2248 32.262 97.0125 32.058 97.9078 32.058C98.7918 32.058 99.5738 32.262 100.254 32.67C100.934 33.078 101.467 33.6333 101.852 34.336C102.237 35.0273 102.43 35.8037 102.43 36.665C102.43 37.5377 102.237 38.3197 101.852 39.011C101.467 39.7023 100.934 40.252 100.254 40.66C99.5738 41.068 98.7918 41.272 97.9078 41.272ZM97.9078 39.589C98.3838 39.589 98.8258 39.4757 99.2338 39.249C99.6418 39.011 99.9705 38.6767 100.22 38.246C100.481 37.804 100.611 37.277 100.611 36.665C100.611 36.053 100.481 35.5317 100.22 35.101C99.9705 34.659 99.6418 34.3247 99.2338 34.098C98.8258 33.86 98.3838 33.741 97.9078 33.741C97.4318 33.741 96.9842 33.86 96.5648 34.098C96.1568 34.3247 95.8225 34.659 95.5618 35.101C95.3125 35.5317 95.1878 36.053 95.1878 36.665C95.1878 37.277 95.3125 37.804 95.5618 38.246C95.8225 38.6767 96.1568 39.011 96.5648 39.249C96.9842 39.4757 97.4318 39.589 97.9078 39.589ZM108.031 44.944C107.271 44.944 106.614 44.8193 106.059 44.57C105.515 44.332 105.073 44.0203 104.733 43.635C104.393 43.261 104.149 42.8757 104.002 42.479L105.702 41.765C105.883 42.2183 106.172 42.5867 106.569 42.87C106.977 43.1647 107.464 43.312 108.031 43.312C108.824 43.312 109.447 43.074 109.901 42.598C110.365 42.122 110.598 41.4477 110.598 40.575V39.742H110.496C110.224 40.15 109.844 40.4787 109.357 40.728C108.881 40.966 108.337 41.085 107.725 41.085C106.988 41.085 106.314 40.898 105.702 40.524C105.09 40.15 104.597 39.6287 104.223 38.96C103.849 38.28 103.662 37.4867 103.662 36.58C103.662 35.662 103.849 34.8687 104.223 34.2C104.597 33.52 105.09 32.993 105.702 32.619C106.314 32.245 106.988 32.058 107.725 32.058C108.337 32.058 108.881 32.1827 109.357 32.432C109.844 32.6813 110.224 33.01 110.496 33.418H110.598V32.33H112.349V40.541C112.349 41.4817 112.162 42.2807 111.788 42.938C111.425 43.5953 110.921 44.094 110.275 44.434C109.629 44.774 108.881 44.944 108.031 44.944ZM108.048 39.419C108.501 39.419 108.92 39.3113 109.306 39.096C109.691 38.8693 110.003 38.5463 110.241 38.127C110.479 37.6963 110.598 37.1807 110.598 36.58C110.598 35.9567 110.479 35.4353 110.241 35.016C110.003 34.5853 109.691 34.2623 109.306 34.047C108.92 33.8317 108.501 33.724 108.048 33.724C107.594 33.724 107.169 33.8373 106.773 34.064C106.387 34.2793 106.076 34.5967 105.838 35.016C105.6 35.4353 105.481 35.9567 105.481 36.58C105.481 37.192 105.6 37.7133 105.838 38.144C106.076 38.5633 106.387 38.8807 106.773 39.096C107.169 39.3113 107.594 39.419 108.048 39.419ZM114.514 41V28.828H116.35V41H114.514ZM122.392 41.272C121.542 41.272 120.783 41.0737 120.114 40.677C119.446 40.2803 118.919 39.7363 118.533 39.045C118.159 38.3537 117.972 37.566 117.972 36.682C117.972 35.8547 118.154 35.0897 118.516 34.387C118.879 33.6843 119.383 33.1233 120.029 32.704C120.687 32.2733 121.44 32.058 122.29 32.058C123.186 32.058 123.945 32.2507 124.568 32.636C125.203 33.0213 125.685 33.5483 126.013 34.217C126.342 34.8857 126.506 35.6393 126.506 36.478C126.506 36.6027 126.501 36.716 126.489 36.818C126.489 36.92 126.484 36.9993 126.472 37.056H119.774C119.865 37.9173 120.165 38.5633 120.675 38.994C121.197 39.4247 121.786 39.64 122.443 39.64C123.033 39.64 123.52 39.5097 123.905 39.249C124.291 38.977 124.597 38.6427 124.823 38.246L126.336 38.977C125.962 39.657 125.452 40.2123 124.806 40.643C124.16 41.0623 123.356 41.272 122.392 41.272ZM122.307 33.622C121.695 33.622 121.174 33.809 120.743 34.183C120.313 34.557 120.024 35.0557 119.876 35.679H124.687C124.665 35.3843 124.568 35.0783 124.398 34.761C124.228 34.4437 123.968 34.1773 123.616 33.962C123.276 33.7353 122.84 33.622 122.307 33.622ZM133.979 41L130.715 28.828H132.789L134.727 36.733L134.931 37.787H135.033L135.288 36.733L137.736 28.828H139.606L141.952 36.733L142.207 37.77H142.309L142.513 36.733L144.451 28.828H146.508L143.295 41H141.323L138.994 32.925L138.722 31.786H138.62L138.331 32.925L135.9 41H133.979ZM149.922 41.272C149.299 41.272 148.743 41.153 148.256 40.915C147.769 40.6657 147.389 40.32 147.117 39.878C146.845 39.436 146.709 38.9317 146.709 38.365C146.709 37.753 146.868 37.2317 147.185 36.801C147.514 36.359 147.95 36.0247 148.494 35.798C149.038 35.5713 149.639 35.458 150.296 35.458C150.84 35.458 151.316 35.509 151.724 35.611C152.143 35.713 152.461 35.8207 152.676 35.934V35.475C152.676 34.9083 152.472 34.455 152.064 34.115C151.656 33.775 151.129 33.605 150.483 33.605C150.041 33.605 149.622 33.707 149.225 33.911C148.828 34.1037 148.511 34.37 148.273 34.71L147.015 33.741C147.389 33.2197 147.882 32.8117 148.494 32.517C149.117 32.211 149.797 32.058 150.534 32.058C151.792 32.058 152.761 32.3697 153.441 32.993C154.121 33.605 154.461 34.4663 154.461 35.577V41H152.676V39.929H152.574C152.347 40.2803 152.007 40.592 151.554 40.864C151.101 41.136 150.557 41.272 149.922 41.272ZM150.245 39.776C150.721 39.776 151.14 39.6627 151.503 39.436C151.866 39.2093 152.149 38.9147 152.353 38.552C152.568 38.178 152.676 37.7757 152.676 37.345C152.415 37.1977 152.109 37.0787 151.758 36.988C151.407 36.886 151.033 36.835 150.636 36.835C149.888 36.835 149.355 36.988 149.038 37.294C148.721 37.5887 148.562 37.9513 148.562 38.382C148.562 38.79 148.715 39.1243 149.021 39.385C149.327 39.6457 149.735 39.776 150.245 39.776ZM156.499 41V28.828H158.335V41H156.499ZM160.517 41V28.828H162.353V41H160.517ZM168.395 41.272C167.545 41.272 166.786 41.0737 166.117 40.677C165.449 40.2803 164.922 39.7363 164.536 39.045C164.162 38.3537 163.975 37.566 163.975 36.682C163.975 35.8547 164.157 35.0897 164.519 34.387C164.882 33.6843 165.386 33.1233 166.032 32.704C166.69 32.2733 167.443 32.058 168.293 32.058C169.189 32.058 169.948 32.2507 170.571 32.636C171.206 33.0213 171.688 33.5483 172.016 34.217C172.345 34.8857 172.509 35.6393 172.509 36.478C172.509 36.6027 172.504 36.716 172.492 36.818C172.492 36.92 172.487 36.9993 172.475 37.056H165.777C165.868 37.9173 166.168 38.5633 166.678 38.994C167.2 39.4247 167.789 39.64 168.446 39.64C169.036 39.64 169.523 39.5097 169.908 39.249C170.294 38.977 170.6 38.6427 170.826 38.246L172.339 38.977C171.965 39.657 171.455 40.2123 170.809 40.643C170.163 41.0623 169.359 41.272 168.395 41.272ZM168.31 33.622C167.698 33.622 167.177 33.809 166.746 34.183C166.316 34.557 166.027 35.0557 165.879 35.679H170.69C170.668 35.3843 170.571 35.0783 170.401 34.761C170.231 34.4437 169.971 34.1773 169.619 33.962C169.279 33.7353 168.843 33.622 168.31 33.622ZM174.882 38.484V33.928H173.369V32.33H174.882V29.882H176.718V32.33H178.843V33.928H176.718V38.093C176.718 38.5237 176.803 38.8523 176.973 39.079C177.154 39.3057 177.454 39.419 177.874 39.419C178.089 39.419 178.27 39.3907 178.418 39.334C178.576 39.2773 178.735 39.198 178.894 39.096V40.881C178.701 40.9603 178.497 41.0227 178.282 41.068C178.066 41.1133 177.811 41.136 177.517 41.136C176.712 41.136 176.072 40.9037 175.596 40.439C175.12 39.963 174.882 39.3113 174.882 38.484Z" fill="white"/>
<rect x="0.5" y="0.5" width="198" height="53" rx="26.5" stroke="#747775"/>
<defs>
<linearGradient id="paint0_linear_1492_15248" x1="37.2843" y1="33.5448" x2="18.7823" y2="55.2227" gradientUnits="userSpaceOnUse">
<stop stop-color="#4285F4"/>
<stop offset="1" stop-color="#1B74E8"/>
</linearGradient>
</defs>
</svg>
