<svg width="199" height="54" viewBox="0 0 199 54" fill="none" xmlns="http://www.w3.org/2000/svg">
<rect x="0.5" y="0.5" width="198" height="53" rx="26.5" fill="#1F1F1F"/>
<path d="M57 23.291H21V17.6456C21 14.5809 23.6422 12.0001 26.7798 12.0001H51.2202C54.3578 12.0001 57 14.5809 57 17.6456V23.291Z" fill="#34A853"/>
<path d="M57 28.5H21V22.5C21 19.2429 23.6422 16.5 26.7798 16.5H51.2202C54.3578 16.5 57 19.2429 57 22.5V28.5Z" fill="#FBBC04"/>
<path d="M57 33.5H21V27.5C21 24.2429 23.6422 21.5 26.7798 21.5H51.2202C54.3578 21.5 57 24.2429 57 27.5V33.5Z" fill="#EA4335"/>
<path d="M21 24.7409L43.8493 29.9025C46.4795 30.5477 49.4384 29.9025 51.5753 28.2895L57 24.4183V36.5157C57 39.5804 54.3699 41.9999 51.2466 41.9999H26.7534C23.6301 41.9999 21 39.5804 21 36.5157V24.7409Z" fill="url(#paint0_linear_1492_15122)"/>
<path d="M70.053 21V11.692H71.483V19.648H75.487V21H70.053ZM77.5186 13.395C77.2586 13.395 77.0332 13.304 76.8426 13.122C76.6606 12.9313 76.5696 12.706 76.5696 12.446C76.5696 12.186 76.6606 11.965 76.8426 11.783C77.0332 11.601 77.2586 11.51 77.5186 11.51C77.7786 11.51 77.9996 11.601 78.1816 11.783C78.3722 11.965 78.4676 12.186 78.4676 12.446C78.4676 12.706 78.3722 12.9313 78.1816 13.122C77.9996 13.304 77.7786 13.395 77.5186 13.395ZM76.8166 21V14.37H78.2206V21H76.8166ZM82.3806 21.208C81.5832 21.208 80.9462 21.0347 80.4696 20.688C79.9929 20.3327 79.6636 19.9123 79.4816 19.427L80.7426 18.881C80.8986 19.2363 81.1239 19.5093 81.4186 19.7C81.7132 19.882 82.0469 19.973 82.4196 19.973C82.7662 19.973 83.0652 19.9123 83.3166 19.791C83.5679 19.661 83.6936 19.453 83.6936 19.167C83.6936 18.8897 83.5679 18.686 83.3166 18.556C83.0652 18.426 82.7532 18.3133 82.3806 18.218L81.5876 18.036C81.2669 17.958 80.9679 17.8367 80.6906 17.672C80.4132 17.5073 80.1879 17.295 80.0146 17.035C79.8412 16.7663 79.7546 16.4543 79.7546 16.099C79.7546 15.709 79.8716 15.371 80.1056 15.085C80.3396 14.7903 80.6472 14.565 81.0286 14.409C81.4186 14.2443 81.8389 14.162 82.2896 14.162C82.9049 14.162 83.4422 14.2833 83.9016 14.526C84.3696 14.76 84.7119 15.1153 84.9286 15.592L83.7196 16.138C83.5636 15.8433 83.3599 15.6397 83.1086 15.527C82.8659 15.4057 82.5972 15.345 82.3026 15.345C81.9732 15.345 81.6959 15.4143 81.4706 15.553C81.2539 15.6917 81.1456 15.865 81.1456 16.073C81.1456 16.2983 81.2409 16.476 81.4316 16.606C81.6309 16.736 81.8736 16.84 82.1596 16.918L83.1216 17.152C83.7802 17.3167 84.2742 17.568 84.6036 17.906C84.9329 18.2353 85.0976 18.6383 85.0976 19.115C85.0976 19.5397 84.9762 19.9123 84.7336 20.233C84.4909 20.545 84.1616 20.7877 83.7456 20.961C83.3382 21.1257 82.8832 21.208 82.3806 21.208ZM88.4664 21.208C87.9897 21.208 87.565 21.117 87.1924 20.935C86.8197 20.7443 86.5294 20.48 86.3214 20.142C86.1134 19.804 86.0094 19.4183 86.0094 18.985C86.0094 18.517 86.1307 18.1183 86.3734 17.789C86.6247 17.451 86.9584 17.1953 87.3744 17.022C87.7904 16.8487 88.2497 16.762 88.7524 16.762C89.1684 16.762 89.5324 16.801 89.8444 16.879C90.165 16.957 90.4077 17.0393 90.5724 17.126V16.775C90.5724 16.3417 90.4164 15.995 90.1044 15.735C89.7924 15.475 89.3894 15.345 88.8954 15.345C88.5574 15.345 88.2367 15.423 87.9334 15.579C87.63 15.7263 87.3874 15.93 87.2054 16.19L86.2434 15.449C86.5294 15.0503 86.9064 14.7383 87.3744 14.513C87.851 14.279 88.371 14.162 88.9344 14.162C89.8964 14.162 90.6374 14.4003 91.1574 14.877C91.6774 15.345 91.9374 16.0037 91.9374 16.853V21H90.5724V20.181H90.4944C90.321 20.4497 90.061 20.688 89.7144 20.896C89.3677 21.104 88.9517 21.208 88.4664 21.208ZM88.7134 20.064C89.0774 20.064 89.398 19.9773 89.6754 19.804C89.9527 19.6307 90.1694 19.4053 90.3254 19.128C90.49 18.842 90.5724 18.5343 90.5724 18.205C90.373 18.0923 90.139 18.0013 89.8704 17.932C89.6017 17.854 89.3157 17.815 89.0124 17.815C88.4404 17.815 88.033 17.932 87.7904 18.166C87.5477 18.3913 87.4264 18.6687 87.4264 18.998C87.4264 19.31 87.5434 19.5657 87.7774 19.765C88.0114 19.9643 88.3234 20.064 88.7134 20.064ZM90.1434 13.018C89.9267 13.018 89.736 12.94 89.5714 12.784C89.4154 12.6193 89.3374 12.4243 89.3374 12.199C89.3374 11.9737 89.4154 11.7873 89.5714 11.64C89.736 11.484 89.9267 11.406 90.1434 11.406C90.3774 11.406 90.5724 11.484 90.7284 11.64C90.8844 11.7873 90.9624 11.9737 90.9624 12.199C90.9624 12.4243 90.8844 12.6193 90.7284 12.784C90.5724 12.94 90.3774 13.018 90.1434 13.018ZM87.8424 13.018C87.6257 13.018 87.435 12.94 87.2704 12.784C87.1144 12.6193 87.0364 12.4243 87.0364 12.199C87.0364 11.9737 87.1144 11.7873 87.2704 11.64C87.435 11.484 87.6257 11.406 87.8424 11.406C88.0764 11.406 88.267 11.484 88.4144 11.64C88.5704 11.7873 88.6484 11.9737 88.6484 12.199C88.6484 12.4243 88.5704 12.6193 88.4144 12.784C88.267 12.94 88.0764 13.018 87.8424 13.018ZM95.4996 21.208C95.0229 21.208 94.5983 21.117 94.2256 20.935C93.8529 20.7443 93.5626 20.48 93.3546 20.142C93.1466 19.804 93.0426 19.4183 93.0426 18.985C93.0426 18.517 93.1639 18.1183 93.4066 17.789C93.6579 17.451 93.9916 17.1953 94.4076 17.022C94.8236 16.8487 95.2829 16.762 95.7856 16.762C96.2016 16.762 96.5656 16.801 96.8776 16.879C97.1983 16.957 97.4409 17.0393 97.6056 17.126V16.775C97.6056 16.3417 97.4496 15.995 97.1376 15.735C96.8256 15.475 96.4226 15.345 95.9286 15.345C95.5906 15.345 95.2699 15.423 94.9666 15.579C94.6633 15.7263 94.4206 15.93 94.2386 16.19L93.2766 15.449C93.5626 15.0503 93.9396 14.7383 94.4076 14.513C94.8843 14.279 95.4043 14.162 95.9676 14.162C96.9296 14.162 97.6706 14.4003 98.1906 14.877C98.7106 15.345 98.9706 16.0037 98.9706 16.853V21H97.6056V20.181H97.5276C97.3543 20.4497 97.0943 20.688 96.7476 20.896C96.4009 21.104 95.9849 21.208 95.4996 21.208ZM95.7466 20.064C96.1106 20.064 96.4313 19.9773 96.7086 19.804C96.9859 19.6307 97.2026 19.4053 97.3586 19.128C97.5233 18.842 97.6056 18.5343 97.6056 18.205C97.4063 18.0923 97.1723 18.0013 96.9036 17.932C96.6349 17.854 96.3489 17.815 96.0456 17.815C95.4736 17.815 95.0663 17.932 94.8236 18.166C94.5809 18.3913 94.4596 18.6687 94.4596 18.998C94.4596 19.31 94.5766 19.5657 94.8106 19.765C95.0446 19.9643 95.3566 20.064 95.7466 20.064ZM97.1766 13.018C96.9599 13.018 96.7693 12.94 96.6046 12.784C96.4486 12.6193 96.3706 12.4243 96.3706 12.199C96.3706 11.9737 96.4486 11.7873 96.6046 11.64C96.7693 11.484 96.9599 11.406 97.1766 11.406C97.4106 11.406 97.6056 11.484 97.7616 11.64C97.9176 11.7873 97.9956 11.9737 97.9956 12.199C97.9956 12.4243 97.9176 12.6193 97.7616 12.784C97.6056 12.94 97.4106 13.018 97.1766 13.018ZM94.8756 13.018C94.6589 13.018 94.4683 12.94 94.3036 12.784C94.1476 12.6193 94.0696 12.4243 94.0696 12.199C94.0696 11.9737 94.1476 11.7873 94.3036 11.64C94.4683 11.484 94.6589 11.406 94.8756 11.406C95.1096 11.406 95.3003 11.484 95.4476 11.64C95.6036 11.7873 95.6816 11.9737 95.6816 12.199C95.6816 12.4243 95.6036 12.6193 95.4476 12.784C95.3003 12.94 95.1096 13.018 94.8756 13.018ZM103.537 23.808V14.37H104.85V15.267H104.928C105.102 14.981 105.37 14.7253 105.734 14.5C106.107 14.2747 106.549 14.162 107.06 14.162C107.667 14.162 108.209 14.3137 108.685 14.617C109.162 14.9203 109.539 15.3363 109.816 15.865C110.102 16.3937 110.245 17.0003 110.245 17.685C110.245 18.3697 110.102 18.9807 109.816 19.518C109.539 20.0467 109.162 20.4627 108.685 20.766C108.209 21.0607 107.667 21.208 107.06 21.208C106.549 21.208 106.107 21.0997 105.734 20.883C105.37 20.6577 105.102 20.402 104.928 20.116H104.85L104.928 21.039V23.808H103.537ZM106.852 19.921C107.199 19.921 107.524 19.83 107.827 19.648C108.131 19.466 108.378 19.2103 108.568 18.881C108.759 18.543 108.854 18.1443 108.854 17.685C108.854 17.2257 108.759 16.8313 108.568 16.502C108.378 16.164 108.131 15.904 107.827 15.722C107.524 15.54 107.199 15.449 106.852 15.449C106.506 15.449 106.181 15.54 105.877 15.722C105.574 15.904 105.327 16.164 105.136 16.502C104.946 16.8313 104.85 17.2257 104.85 17.685C104.85 18.1443 104.946 18.543 105.136 18.881C105.327 19.2103 105.574 19.466 105.877 19.648C106.181 19.83 106.506 19.921 106.852 19.921ZM113.616 21.208C113.139 21.208 112.714 21.117 112.342 20.935C111.969 20.7443 111.679 20.48 111.471 20.142C111.263 19.804 111.159 19.4183 111.159 18.985C111.159 18.517 111.28 18.1183 111.523 17.789C111.774 17.451 112.108 17.1953 112.524 17.022C112.94 16.8487 113.399 16.762 113.902 16.762C114.318 16.762 114.682 16.801 114.994 16.879C115.314 16.957 115.557 17.0393 115.722 17.126V16.775C115.722 16.3417 115.566 15.995 115.254 15.735C114.942 15.475 114.539 15.345 114.045 15.345C113.707 15.345 113.386 15.423 113.083 15.579C112.779 15.7263 112.537 15.93 112.355 16.19L111.393 15.449C111.679 15.0503 112.056 14.7383 112.524 14.513C113 14.279 113.52 14.162 114.084 14.162C115.046 14.162 115.787 14.4003 116.307 14.877C116.827 15.345 117.087 16.0037 117.087 16.853V21H115.722V20.181H115.644C115.47 20.4497 115.21 20.688 114.864 20.896C114.517 21.104 114.101 21.208 113.616 21.208ZM113.863 20.064C114.227 20.064 114.547 19.9773 114.825 19.804C115.102 19.6307 115.319 19.4053 115.475 19.128C115.639 18.842 115.722 18.5343 115.722 18.205C115.522 18.0923 115.288 18.0013 115.02 17.932C114.751 17.854 114.465 17.815 114.162 17.815C113.59 17.815 113.182 17.932 112.94 18.166C112.697 18.3913 112.576 18.6687 112.576 18.998C112.576 19.31 112.693 19.5657 112.927 19.765C113.161 19.9643 113.473 20.064 113.863 20.064ZM118.645 21V11.692H120.049V21H118.645ZM123.72 21L120.977 14.37H122.537L124.396 19.193H124.461L126.359 14.37H127.893L125.124 21H123.72ZM131.64 21.208C130.99 21.208 130.409 21.0563 129.898 20.753C129.387 20.4497 128.984 20.0337 128.689 19.505C128.403 18.9763 128.26 18.374 128.26 17.698C128.26 17.0653 128.399 16.4803 128.676 15.943C128.953 15.4057 129.339 14.9767 129.833 14.656C130.336 14.3267 130.912 14.162 131.562 14.162C132.247 14.162 132.827 14.3093 133.304 14.604C133.789 14.8987 134.158 15.3017 134.409 15.813C134.66 16.3243 134.786 16.9007 134.786 17.542C134.786 17.6373 134.782 17.724 134.773 17.802C134.773 17.88 134.769 17.9407 134.76 17.984H129.638C129.707 18.6427 129.937 19.1367 130.327 19.466C130.726 19.7953 131.176 19.96 131.679 19.96C132.13 19.96 132.502 19.8603 132.797 19.661C133.092 19.453 133.326 19.1973 133.499 18.894L134.656 19.453C134.37 19.973 133.98 20.3977 133.486 20.727C132.992 21.0477 132.377 21.208 131.64 21.208ZM131.575 15.358C131.107 15.358 130.708 15.501 130.379 15.787C130.05 16.073 129.829 16.4543 129.716 16.931H133.395C133.378 16.7057 133.304 16.4717 133.174 16.229C133.044 15.9863 132.845 15.7827 132.576 15.618C132.316 15.4447 131.982 15.358 131.575 15.358ZM136.102 21V11.692H137.506V21H136.102ZM141.566 21.208C140.751 21.208 140.136 20.9653 139.72 20.48C139.312 19.986 139.109 19.3187 139.109 18.478V14.37H140.513V18.283C140.513 18.8463 140.643 19.2623 140.903 19.531C141.171 19.791 141.505 19.921 141.904 19.921C142.259 19.921 142.567 19.83 142.827 19.648C143.095 19.4573 143.299 19.2147 143.438 18.92C143.585 18.6167 143.659 18.2873 143.659 17.932V14.37H145.05V21H143.737V20.103H143.659C143.468 20.415 143.182 20.6793 142.801 20.896C142.428 21.104 142.016 21.208 141.566 21.208ZM149.107 21.208C148.292 21.208 147.677 20.9653 147.261 20.48C146.853 19.986 146.65 19.3187 146.65 18.478V14.37H148.054V18.283C148.054 18.8463 148.184 19.2623 148.444 19.531C148.712 19.791 149.046 19.921 149.445 19.921C149.8 19.921 150.108 19.83 150.368 19.648C150.636 19.4573 150.84 19.2147 150.979 18.92C151.126 18.6167 151.2 18.2873 151.2 17.932V14.37H152.591V21H151.278V20.103H151.2C151.009 20.415 150.723 20.6793 150.342 20.896C149.969 21.104 149.557 21.208 149.107 21.208ZM154.243 21V14.37H155.569V15.28H155.647C155.837 14.9593 156.119 14.695 156.492 14.487C156.873 14.2703 157.289 14.162 157.74 14.162C158.554 14.162 159.165 14.4047 159.573 14.89C159.98 15.3753 160.184 16.0167 160.184 16.814V21H158.793V16.996C158.793 16.4587 158.658 16.0687 158.39 15.826C158.121 15.5747 157.77 15.449 157.337 15.449C156.999 15.449 156.704 15.5443 156.453 15.735C156.201 15.917 156.002 16.1597 155.855 16.463C155.716 16.7663 155.647 17.0913 155.647 17.438V21H154.243Z" fill="white"/>
<path d="M76.14 41.272C75.2673 41.272 74.4457 41.1133 73.675 40.796C72.9157 40.4787 72.2413 40.0367 71.652 39.47C71.0627 38.892 70.598 38.2177 70.258 37.447C69.9293 36.665 69.765 35.8207 69.765 34.914C69.765 34.0073 69.9293 33.1687 70.258 32.398C70.598 31.616 71.057 30.9417 71.635 30.375C72.2243 29.797 72.9043 29.3493 73.675 29.032C74.4457 28.7147 75.2673 28.556 76.14 28.556C77.0693 28.556 77.925 28.7203 78.707 29.049C79.5003 29.3777 80.1633 29.8367 80.696 30.426L79.404 31.701C79.0073 31.259 78.5313 30.919 77.976 30.681C77.432 30.443 76.82 30.324 76.14 30.324C75.3353 30.324 74.593 30.5167 73.913 30.902C73.233 31.276 72.6833 31.8087 72.264 32.5C71.856 33.18 71.652 33.9847 71.652 34.914C71.652 35.8433 71.8617 36.6537 72.281 37.345C72.7003 38.025 73.25 38.5577 73.93 38.943C74.61 39.317 75.3523 39.504 76.157 39.504C76.8937 39.504 77.5623 39.368 78.163 39.096C78.7637 38.8127 79.2453 38.416 79.608 37.906C79.982 37.396 80.2087 36.784 80.288 36.07H76.123V34.421H82.039C82.107 34.727 82.141 35.05 82.141 35.39V35.407C82.141 36.5857 81.8803 37.617 81.359 38.501C80.849 39.3737 80.1407 40.0537 79.234 40.541C78.3273 41.0283 77.296 41.272 76.14 41.272ZM87.6149 41.272C86.7195 41.272 85.9319 41.068 85.2519 40.66C84.5719 40.252 84.0392 39.7023 83.6539 39.011C83.2685 38.3197 83.0759 37.5377 83.0759 36.665C83.0759 35.8037 83.2685 35.0273 83.6539 34.336C84.0392 33.6333 84.5719 33.078 85.2519 32.67C85.9319 32.262 86.7195 32.058 87.6149 32.058C88.4989 32.058 89.2809 32.262 89.9609 32.67C90.6409 33.078 91.1735 33.6333 91.5589 34.336C91.9442 35.0273 92.1369 35.8037 92.1369 36.665C92.1369 37.5377 91.9442 38.3197 91.5589 39.011C91.1735 39.7023 90.6409 40.252 89.9609 40.66C89.2809 41.068 88.4989 41.272 87.6149 41.272ZM87.6149 39.589C88.0909 39.589 88.5329 39.4757 88.9409 39.249C89.3489 39.011 89.6775 38.6767 89.9269 38.246C90.1875 37.804 90.3179 37.277 90.3179 36.665C90.3179 36.053 90.1875 35.5317 89.9269 35.101C89.6775 34.659 89.3489 34.3247 88.9409 34.098C88.5329 33.86 88.0909 33.741 87.6149 33.741C87.1389 33.741 86.6912 33.86 86.2719 34.098C85.8639 34.3247 85.5295 34.659 85.2689 35.101C85.0195 35.5317 84.8949 36.053 84.8949 36.665C84.8949 37.277 85.0195 37.804 85.2689 38.246C85.5295 38.6767 85.8639 39.011 86.2719 39.249C86.6912 39.4757 87.1389 39.589 87.6149 39.589ZM97.9078 41.272C97.0125 41.272 96.2248 41.068 95.5448 40.66C94.8648 40.252 94.3322 39.7023 93.9468 39.011C93.5615 38.3197 93.3688 37.5377 93.3688 36.665C93.3688 35.8037 93.5615 35.0273 93.9468 34.336C94.3322 33.6333 94.8648 33.078 95.5448 32.67C96.2248 32.262 97.0125 32.058 97.9078 32.058C98.7918 32.058 99.5738 32.262 100.254 32.67C100.934 33.078 101.467 33.6333 101.852 34.336C102.237 35.0273 102.43 35.8037 102.43 36.665C102.43 37.5377 102.237 38.3197 101.852 39.011C101.467 39.7023 100.934 40.252 100.254 40.66C99.5738 41.068 98.7918 41.272 97.9078 41.272ZM97.9078 39.589C98.3838 39.589 98.8258 39.4757 99.2338 39.249C99.6418 39.011 99.9705 38.6767 100.22 38.246C100.481 37.804 100.611 37.277 100.611 36.665C100.611 36.053 100.481 35.5317 100.22 35.101C99.9705 34.659 99.6418 34.3247 99.2338 34.098C98.8258 33.86 98.3838 33.741 97.9078 33.741C97.4318 33.741 96.9842 33.86 96.5648 34.098C96.1568 34.3247 95.8225 34.659 95.5618 35.101C95.3125 35.5317 95.1878 36.053 95.1878 36.665C95.1878 37.277 95.3125 37.804 95.5618 38.246C95.8225 38.6767 96.1568 39.011 96.5648 39.249C96.9842 39.4757 97.4318 39.589 97.9078 39.589ZM108.031 44.944C107.271 44.944 106.614 44.8193 106.059 44.57C105.515 44.332 105.073 44.0203 104.733 43.635C104.393 43.261 104.149 42.8757 104.002 42.479L105.702 41.765C105.883 42.2183 106.172 42.5867 106.569 42.87C106.977 43.1647 107.464 43.312 108.031 43.312C108.824 43.312 109.447 43.074 109.901 42.598C110.365 42.122 110.598 41.4477 110.598 40.575V39.742H110.496C110.224 40.15 109.844 40.4787 109.357 40.728C108.881 40.966 108.337 41.085 107.725 41.085C106.988 41.085 106.314 40.898 105.702 40.524C105.09 40.15 104.597 39.6287 104.223 38.96C103.849 38.28 103.662 37.4867 103.662 36.58C103.662 35.662 103.849 34.8687 104.223 34.2C104.597 33.52 105.09 32.993 105.702 32.619C106.314 32.245 106.988 32.058 107.725 32.058C108.337 32.058 108.881 32.1827 109.357 32.432C109.844 32.6813 110.224 33.01 110.496 33.418H110.598V32.33H112.349V40.541C112.349 41.4817 112.162 42.2807 111.788 42.938C111.425 43.5953 110.921 44.094 110.275 44.434C109.629 44.774 108.881 44.944 108.031 44.944ZM108.048 39.419C108.501 39.419 108.92 39.3113 109.306 39.096C109.691 38.8693 110.003 38.5463 110.241 38.127C110.479 37.6963 110.598 37.1807 110.598 36.58C110.598 35.9567 110.479 35.4353 110.241 35.016C110.003 34.5853 109.691 34.2623 109.306 34.047C108.92 33.8317 108.501 33.724 108.048 33.724C107.594 33.724 107.169 33.8373 106.773 34.064C106.387 34.2793 106.076 34.5967 105.838 35.016C105.6 35.4353 105.481 35.9567 105.481 36.58C105.481 37.192 105.6 37.7133 105.838 38.144C106.076 38.5633 106.387 38.8807 106.773 39.096C107.169 39.3113 107.594 39.419 108.048 39.419ZM114.514 41V28.828H116.35V41H114.514ZM122.392 41.272C121.542 41.272 120.783 41.0737 120.114 40.677C119.446 40.2803 118.919 39.7363 118.533 39.045C118.159 38.3537 117.972 37.566 117.972 36.682C117.972 35.8547 118.154 35.0897 118.516 34.387C118.879 33.6843 119.383 33.1233 120.029 32.704C120.687 32.2733 121.44 32.058 122.29 32.058C123.186 32.058 123.945 32.2507 124.568 32.636C125.203 33.0213 125.685 33.5483 126.013 34.217C126.342 34.8857 126.506 35.6393 126.506 36.478C126.506 36.6027 126.501 36.716 126.489 36.818C126.489 36.92 126.484 36.9993 126.472 37.056H119.774C119.865 37.9173 120.165 38.5633 120.675 38.994C121.197 39.4247 121.786 39.64 122.443 39.64C123.033 39.64 123.52 39.5097 123.905 39.249C124.291 38.977 124.597 38.6427 124.823 38.246L126.336 38.977C125.962 39.657 125.452 40.2123 124.806 40.643C124.16 41.0623 123.356 41.272 122.392 41.272ZM122.307 33.622C121.695 33.622 121.174 33.809 120.743 34.183C120.313 34.557 120.024 35.0557 119.876 35.679H124.687C124.665 35.3843 124.568 35.0783 124.398 34.761C124.228 34.4437 123.968 34.1773 123.616 33.962C123.276 33.7353 122.84 33.622 122.307 33.622ZM133.979 41L130.715 28.828H132.789L134.727 36.733L134.931 37.787H135.033L135.288 36.733L137.736 28.828H139.606L141.952 36.733L142.207 37.77H142.309L142.513 36.733L144.451 28.828H146.508L143.295 41H141.323L138.994 32.925L138.722 31.786H138.62L138.331 32.925L135.9 41H133.979ZM149.922 41.272C149.299 41.272 148.743 41.153 148.256 40.915C147.769 40.6657 147.389 40.32 147.117 39.878C146.845 39.436 146.709 38.9317 146.709 38.365C146.709 37.753 146.868 37.2317 147.185 36.801C147.514 36.359 147.95 36.0247 148.494 35.798C149.038 35.5713 149.639 35.458 150.296 35.458C150.84 35.458 151.316 35.509 151.724 35.611C152.143 35.713 152.461 35.8207 152.676 35.934V35.475C152.676 34.9083 152.472 34.455 152.064 34.115C151.656 33.775 151.129 33.605 150.483 33.605C150.041 33.605 149.622 33.707 149.225 33.911C148.828 34.1037 148.511 34.37 148.273 34.71L147.015 33.741C147.389 33.2197 147.882 32.8117 148.494 32.517C149.117 32.211 149.797 32.058 150.534 32.058C151.792 32.058 152.761 32.3697 153.441 32.993C154.121 33.605 154.461 34.4663 154.461 35.577V41H152.676V39.929H152.574C152.347 40.2803 152.007 40.592 151.554 40.864C151.101 41.136 150.557 41.272 149.922 41.272ZM150.245 39.776C150.721 39.776 151.14 39.6627 151.503 39.436C151.866 39.2093 152.149 38.9147 152.353 38.552C152.568 38.178 152.676 37.7757 152.676 37.345C152.415 37.1977 152.109 37.0787 151.758 36.988C151.407 36.886 151.033 36.835 150.636 36.835C149.888 36.835 149.355 36.988 149.038 37.294C148.721 37.5887 148.562 37.9513 148.562 38.382C148.562 38.79 148.715 39.1243 149.021 39.385C149.327 39.6457 149.735 39.776 150.245 39.776ZM156.499 41V28.828H158.335V41H156.499ZM160.517 41V28.828H162.353V41H160.517ZM168.395 41.272C167.545 41.272 166.786 41.0737 166.117 40.677C165.449 40.2803 164.922 39.7363 164.536 39.045C164.162 38.3537 163.975 37.566 163.975 36.682C163.975 35.8547 164.157 35.0897 164.519 34.387C164.882 33.6843 165.386 33.1233 166.032 32.704C166.69 32.2733 167.443 32.058 168.293 32.058C169.189 32.058 169.948 32.2507 170.571 32.636C171.206 33.0213 171.688 33.5483 172.016 34.217C172.345 34.8857 172.509 35.6393 172.509 36.478C172.509 36.6027 172.504 36.716 172.492 36.818C172.492 36.92 172.487 36.9993 172.475 37.056H165.777C165.868 37.9173 166.168 38.5633 166.678 38.994C167.2 39.4247 167.789 39.64 168.446 39.64C169.036 39.64 169.523 39.5097 169.908 39.249C170.294 38.977 170.6 38.6427 170.826 38.246L172.339 38.977C171.965 39.657 171.455 40.2123 170.809 40.643C170.163 41.0623 169.359 41.272 168.395 41.272ZM168.31 33.622C167.698 33.622 167.177 33.809 166.746 34.183C166.316 34.557 166.027 35.0557 165.879 35.679H170.69C170.668 35.3843 170.571 35.0783 170.401 34.761C170.231 34.4437 169.971 34.1773 169.619 33.962C169.279 33.7353 168.843 33.622 168.31 33.622ZM174.882 38.484V33.928H173.369V32.33H174.882V29.882H176.718V32.33H178.843V33.928H176.718V38.093C176.718 38.5237 176.803 38.8523 176.973 39.079C177.154 39.3057 177.454 39.419 177.874 39.419C178.089 39.419 178.27 39.3907 178.418 39.334C178.576 39.2773 178.735 39.198 178.894 39.096V40.881C178.701 40.9603 178.497 41.0227 178.282 41.068C178.066 41.1133 177.811 41.136 177.517 41.136C176.712 41.136 176.072 40.9037 175.596 40.439C175.12 39.963 174.882 39.3113 174.882 38.484Z" fill="white"/>
<rect x="0.5" y="0.5" width="198" height="53" rx="26.5" stroke="#747775"/>
<defs>
<linearGradient id="paint0_linear_1492_15122" x1="37.2843" y1="33.5448" x2="18.7823" y2="55.2227" gradientUnits="userSpaceOnUse">
<stop stop-color="#4285F4"/>
<stop offset="1" stop-color="#1B74E8"/>
</linearGradient>
</defs>
</svg>
