<svg xmlns="http://www.w3.org/2000/svg" width="12" height="12" viewBox="0 0 12 12">
  <path fill="#111111" fill-rule="evenodd" d="M18.0000083,6.5 L18.0000083,17.5000137 C18.0000083,17.7734515 17.7734515,18.0000143 17.5000083,18.0000143 L13.5000083,18.0000143 C13.2265711,18.0000143 13.0000083,17.7734515 13.0000083,17.5000137 L13.0000083,6.5 C13.0000083,6.22656277 13.2265711,6 13.5000083,6 L17.5000083,6 C17.7734515,6 18.0000083,6.22656277 18.0000083,6.5 Z M11,6.5 L11,17.5000137 C11,17.7734515 10.7734432,18.0000143 10.5,18.0000143 L6.5,18.0000143 C6.22656277,18.0000143 6,17.7734515 6,17.5000137 L6,6.5 C6,6.22656277 6.22656277,6 6.5,6 L10.5,6 C10.7734432,6 11,6.22656277 11,6.5 Z" transform="translate(-6 -6)"/>
</svg>
