<svg xmlns="http://www.w3.org/2000/svg" width="9" height="10" viewBox="0 0 9 10">
  <path fill="#ffb201" fill-rule="evenodd" d="M16.5023,11.106 L9.3023,7.106 C9.1754,7.036 9.0377,7 8.9,7 C8.7353,7 8.5706,7.051 8.4266,7.15 C8.1611,7.332 8,7.654 8,8 L8,16 C8,16.347 8.1611,16.668 8.4266,16.851 C8.5706,16.951 8.7353,17.001 8.9,17.001 C9.0377,17.001 9.1754,16.965 9.3023,16.895 L16.5023,12.895 C16.8074,12.726 17,12.379 17,12 C17,11.622 16.8074,11.275 16.5023,11.106" transform="translate(-8 -7)"/>
</svg>
