<svg width="235" height="54" viewBox="0 0 235 54" fill="none" xmlns="http://www.w3.org/2000/svg">
<rect x="0.5" y="0.5" width="234" height="53" rx="26.5" fill="#1F1F1F"/>
<path d="M57 23.291H21V17.6456C21 14.5809 23.6422 12.0001 26.7798 12.0001H51.2202C54.3578 12.0001 57 14.5809 57 17.6456V23.291Z" fill="#34A853"/>
<path d="M57 28.5H21V22.5C21 19.2429 23.6422 16.5 26.7798 16.5H51.2202C54.3578 16.5 57 19.2429 57 22.5V28.5Z" fill="#FBBC04"/>
<path d="M57 33.5H21V27.5C21 24.2429 23.6422 21.5 26.7798 21.5H51.2202C54.3578 21.5 57 24.2429 57 27.5V33.5Z" fill="#EA4335"/>
<path d="M21 24.7409L43.8493 29.9025C46.4795 30.5477 49.4384 29.9025 51.5753 28.2895L57 24.4183V36.5157C57 39.5804 54.3699 41.9999 51.2466 41.9999H26.7534C23.6301 41.9999 21 39.5804 21 36.5157V24.7409Z" fill="url(#paint0_linear_1492_15023)"/>
<path d="M70.053 21V11.692H73.251C73.8143 11.692 74.3257 11.8133 74.785 12.056C75.2443 12.2987 75.6083 12.6323 75.877 13.057C76.1543 13.4817 76.293 13.9757 76.293 14.539C76.293 15.1023 76.1543 15.6007 75.877 16.034C75.6083 16.4587 75.2443 16.7923 74.785 17.035C74.3257 17.269 73.8143 17.386 73.251 17.386H71.483V21H70.053ZM73.29 13.044H71.483V16.034H73.29C73.628 16.034 73.914 15.9647 74.148 15.826C74.382 15.6787 74.5597 15.4923 74.681 15.267C74.811 15.033 74.876 14.7903 74.876 14.539C74.876 14.2877 74.811 14.0493 74.681 13.824C74.5597 13.5987 74.382 13.4123 74.148 13.265C73.914 13.1177 73.628 13.044 73.29 13.044ZM77.5251 21V14.37H78.8511V15.345H78.9291C79.0764 15.007 79.3277 14.7297 79.6831 14.513C80.0471 14.2877 80.4371 14.175 80.8531 14.175C81.0351 14.175 81.1867 14.188 81.3081 14.214C81.4381 14.24 81.5551 14.2703 81.6591 14.305V15.761C81.4944 15.6917 81.3254 15.6353 81.1521 15.592C80.9874 15.5487 80.8141 15.527 80.6321 15.527C80.3027 15.527 80.0081 15.618 79.7481 15.8C79.4967 15.9733 79.2974 16.2117 79.1501 16.515C79.0027 16.8097 78.9291 17.1347 78.9291 17.49V21H77.5251ZM78.9291 13.096L77.5381 11.523V11.432H78.8771L79.4751 12.238H79.6051L80.2161 11.432H81.5681V11.523L80.1641 13.096H78.9291ZM83.5488 13.395C83.2888 13.395 83.0635 13.304 82.8728 13.122C82.6908 12.9313 82.5998 12.706 82.5998 12.446C82.5998 12.186 82.6908 11.965 82.8728 11.783C83.0635 11.601 83.2888 11.51 83.5488 11.51C83.8088 11.51 84.0298 11.601 84.2118 11.783C84.4025 11.965 84.4978 12.186 84.4978 12.446C84.4978 12.706 84.4025 12.9313 84.2118 13.122C84.0298 13.304 83.8088 13.395 83.5488 13.395ZM82.8468 21V14.37H84.2508V21H82.8468ZM88.7634 21.208C88.1654 21.208 87.6237 21.0607 87.1384 20.766C86.6617 20.4627 86.2804 20.0467 85.9944 19.518C85.717 18.9807 85.5784 18.3697 85.5784 17.685C85.5784 17.0003 85.717 16.3937 85.9944 15.865C86.2804 15.3363 86.6617 14.9203 87.1384 14.617C87.6237 14.3137 88.1654 14.162 88.7634 14.162C89.2747 14.162 89.7124 14.2747 90.0764 14.5C90.449 14.7253 90.722 14.981 90.8954 15.267H90.9734L90.8954 14.344V11.692H92.2864V21H90.9734V20.116H90.8954C90.722 20.402 90.449 20.6577 90.0764 20.883C89.7124 21.0997 89.2747 21.208 88.7634 21.208ZM88.9714 19.921C89.318 19.921 89.643 19.83 89.9464 19.648C90.2584 19.466 90.5054 19.2103 90.6874 18.881C90.878 18.543 90.9734 18.1443 90.9734 17.685C90.9734 17.2257 90.878 16.8313 90.6874 16.502C90.5054 16.164 90.2584 15.904 89.9464 15.722C89.643 15.54 89.318 15.449 88.9714 15.449C88.6247 15.449 88.2997 15.54 87.9964 15.722C87.693 15.904 87.446 16.164 87.2554 16.502C87.0647 16.8313 86.9694 17.2257 86.9694 17.685C86.9694 18.1443 87.0647 18.543 87.2554 18.881C87.446 19.2103 87.693 19.466 87.9964 19.648C88.2997 19.83 88.6247 19.921 88.9714 19.921ZM95.9566 21.208C95.48 21.208 95.0553 21.117 94.6826 20.935C94.31 20.7443 94.0196 20.48 93.8116 20.142C93.6036 19.804 93.4996 19.4183 93.4996 18.985C93.4996 18.517 93.621 18.1183 93.8636 17.789C94.115 17.451 94.4486 17.1953 94.8646 17.022C95.2806 16.8487 95.74 16.762 96.2426 16.762C96.6586 16.762 97.0226 16.801 97.3346 16.879C97.6553 16.957 97.898 17.0393 98.0626 17.126V16.775C98.0626 16.3417 97.9066 15.995 97.5946 15.735C97.2826 15.475 96.8796 15.345 96.3856 15.345C96.0476 15.345 95.727 15.423 95.4236 15.579C95.1203 15.7263 94.8776 15.93 94.6956 16.19L93.7336 15.449C94.0196 15.0503 94.3966 14.7383 94.8646 14.513C95.3413 14.279 95.8613 14.162 96.4246 14.162C97.3866 14.162 98.1276 14.4003 98.6476 14.877C99.1676 15.345 99.4276 16.0037 99.4276 16.853V21H98.0626V20.181H97.9846C97.8113 20.4497 97.5513 20.688 97.2046 20.896C96.858 21.104 96.442 21.208 95.9566 21.208ZM96.2036 20.064C96.5676 20.064 96.8883 19.9773 97.1656 19.804C97.443 19.6307 97.6596 19.4053 97.8156 19.128C97.9803 18.842 98.0626 18.5343 98.0626 18.205C97.8633 18.0923 97.6293 18.0013 97.3606 17.932C97.092 17.854 96.806 17.815 96.5026 17.815C95.9306 17.815 95.5233 17.932 95.2806 18.166C95.038 18.3913 94.9166 18.6687 94.9166 18.998C94.9166 19.31 95.0336 19.5657 95.2676 19.765C95.5016 19.9643 95.8136 20.064 96.2036 20.064ZM101.548 19.076V15.592H100.391V14.37H101.548V12.498H102.952V14.37H104.577V15.592H102.952V18.777C102.952 19.1063 103.017 19.3577 103.147 19.531C103.286 19.7043 103.516 19.791 103.836 19.791C104.001 19.791 104.14 19.7693 104.252 19.726C104.374 19.6827 104.495 19.622 104.616 19.544V20.909C104.469 20.9697 104.313 21.0173 104.148 21.052C103.984 21.0867 103.789 21.104 103.563 21.104C102.948 21.104 102.458 20.9263 102.094 20.571C101.73 20.207 101.548 19.7087 101.548 19.076ZM111.793 21.208C111.195 21.208 110.653 21.0607 110.168 20.766C109.691 20.4627 109.31 20.0467 109.024 19.518C108.746 18.9807 108.608 18.3697 108.608 17.685C108.608 17.0003 108.746 16.3937 109.024 15.865C109.31 15.3363 109.691 14.9203 110.168 14.617C110.653 14.3137 111.195 14.162 111.793 14.162C112.304 14.162 112.742 14.2747 113.106 14.5C113.478 14.7253 113.751 14.981 113.925 15.267H114.003L113.925 14.344V11.692H115.316V21H114.003V20.116H113.925C113.751 20.402 113.478 20.6577 113.106 20.883C112.742 21.0997 112.304 21.208 111.793 21.208ZM112.001 19.921C112.347 19.921 112.672 19.83 112.976 19.648C113.288 19.466 113.535 19.2103 113.717 18.881C113.907 18.543 114.003 18.1443 114.003 17.685C114.003 17.2257 113.907 16.8313 113.717 16.502C113.535 16.164 113.288 15.904 112.976 15.722C112.672 15.54 112.347 15.449 112.001 15.449C111.654 15.449 111.329 15.54 111.026 15.722C110.722 15.904 110.475 16.164 110.285 16.502C110.094 16.8313 109.999 17.2257 109.999 17.685C109.999 18.1443 110.094 18.543 110.285 18.881C110.475 19.2103 110.722 19.466 111.026 19.648C111.329 19.83 111.654 19.921 112.001 19.921ZM120.026 21.208C119.341 21.208 118.739 21.052 118.219 20.74C117.699 20.428 117.292 20.0077 116.997 19.479C116.702 18.9503 116.555 18.3523 116.555 17.685C116.555 17.0263 116.702 16.4327 116.997 15.904C117.292 15.3667 117.699 14.942 118.219 14.63C118.739 14.318 119.341 14.162 120.026 14.162C120.702 14.162 121.3 14.318 121.82 14.63C122.34 14.942 122.747 15.3667 123.042 15.904C123.337 16.4327 123.484 17.0263 123.484 17.685C123.484 18.3523 123.337 18.9503 123.042 19.479C122.747 20.0077 122.34 20.428 121.82 20.74C121.3 21.052 120.702 21.208 120.026 21.208ZM120.026 19.921C120.39 19.921 120.728 19.8343 121.04 19.661C121.352 19.479 121.603 19.2233 121.794 18.894C121.993 18.556 122.093 18.153 122.093 17.685C122.093 17.217 121.993 16.8183 121.794 16.489C121.603 16.151 121.352 15.8953 121.04 15.722C120.728 15.54 120.39 15.449 120.026 15.449C119.662 15.449 119.32 15.54 118.999 15.722C118.687 15.8953 118.431 16.151 118.232 16.489C118.041 16.8183 117.946 17.217 117.946 17.685C117.946 18.153 118.041 18.556 118.232 18.894C118.431 19.2233 118.687 19.479 118.999 19.661C119.32 19.8343 119.662 19.921 120.026 19.921Z" fill="white"/>
<path d="M70.377 41V28.828H74.559C75.2957 28.828 75.9643 28.9867 76.565 29.304C77.1657 29.6213 77.6417 30.0577 77.993 30.613C78.3557 31.1683 78.537 31.8143 78.537 32.551C78.537 33.2877 78.3557 33.9393 77.993 34.506C77.6417 35.0613 77.1657 35.4977 76.565 35.815C75.9643 36.121 75.2957 36.274 74.559 36.274H72.247V41H70.377ZM74.61 30.596H72.247V34.506H74.61C75.052 34.506 75.426 34.4153 75.732 34.234C76.038 34.0413 76.2703 33.7977 76.429 33.503C76.599 33.197 76.684 32.8797 76.684 32.551C76.684 32.2223 76.599 31.9107 76.429 31.616C76.2703 31.3213 76.038 31.0777 75.732 30.885C75.426 30.6923 75.052 30.596 74.61 30.596ZM83.5115 41.272C82.6615 41.272 81.9022 41.0737 81.2335 40.677C80.5648 40.2803 80.0378 39.7363 79.6525 39.045C79.2785 38.3537 79.0915 37.566 79.0915 36.682C79.0915 35.8547 79.2728 35.0897 79.6355 34.387C79.9982 33.6843 80.5025 33.1233 81.1485 32.704C81.8058 32.2733 82.5595 32.058 83.4095 32.058C84.3048 32.058 85.0642 32.2507 85.6875 32.636C86.3222 33.0213 86.8038 33.5483 87.1325 34.217C87.4612 34.8857 87.6255 35.6393 87.6255 36.478C87.6255 36.6027 87.6198 36.716 87.6085 36.818C87.6085 36.92 87.6028 36.9993 87.5915 37.056H80.8935C80.9842 37.9173 81.2845 38.5633 81.7945 38.994C82.3158 39.4247 82.9052 39.64 83.5625 39.64C84.1518 39.64 84.6392 39.5097 85.0245 39.249C85.4098 38.977 85.7158 38.6427 85.9425 38.246L87.4555 38.977C87.0815 39.657 86.5715 40.2123 85.9255 40.643C85.2795 41.0623 84.4748 41.272 83.5115 41.272ZM83.4265 33.622C82.8145 33.622 82.2932 33.809 81.8625 34.183C81.4318 34.557 81.1428 35.0557 80.9955 35.679H85.8065C85.7838 35.3843 85.6875 35.0783 85.5175 34.761C85.3475 34.4437 85.0868 34.1773 84.7355 33.962C84.3955 33.7353 83.9592 33.622 83.4265 33.622ZM89.3288 41V32.33H91.0628V33.52H91.1648C91.4141 33.1007 91.7825 32.755 92.2698 32.483C92.7685 32.1997 93.3125 32.058 93.9018 32.058C94.9671 32.058 95.7661 32.3753 96.2988 33.01C96.8315 33.6447 97.0978 34.4833 97.0978 35.526V41H95.2788V35.764C95.2788 35.0613 95.1031 34.5513 94.7518 34.234C94.4005 33.9053 93.9415 33.741 93.3748 33.741C92.9328 33.741 92.5475 33.8657 92.2188 34.115C91.8901 34.353 91.6295 34.6703 91.4368 35.067C91.2555 35.4637 91.1648 35.8887 91.1648 36.342V41H89.3288ZM103.151 41.272C102.301 41.272 101.542 41.0737 100.873 40.677C100.204 40.2803 99.6775 39.7363 99.2921 39.045C98.9181 38.3537 98.7311 37.566 98.7311 36.682C98.7311 35.8547 98.9125 35.0897 99.2751 34.387C99.6378 33.6843 100.142 33.1233 100.788 32.704C101.445 32.2733 102.199 32.058 103.049 32.058C103.944 32.058 104.704 32.2507 105.327 32.636C105.962 33.0213 106.443 33.5483 106.772 34.217C107.101 34.8857 107.265 35.6393 107.265 36.478C107.265 36.6027 107.259 36.716 107.248 36.818C107.248 36.92 107.242 36.9993 107.231 37.056H100.533C100.624 37.9173 100.924 38.5633 101.434 38.994C101.955 39.4247 102.545 39.64 103.202 39.64C103.791 39.64 104.279 39.5097 104.664 39.249C105.049 38.977 105.355 38.6427 105.582 38.246L107.095 38.977C106.721 39.657 106.211 40.2123 105.565 40.643C104.919 41.0623 104.114 41.272 103.151 41.272ZM103.066 33.622C102.454 33.622 101.933 33.809 101.502 34.183C101.071 34.557 100.782 35.0557 100.635 35.679H105.446C105.423 35.3843 105.327 35.0783 105.157 34.761C104.987 34.4437 104.726 34.1773 104.375 33.962C104.035 33.7353 103.599 33.622 103.066 33.622ZM102.25 30.664L100.431 28.607V28.488H102.182L102.964 29.542H103.134L103.933 28.488H105.701V28.607L103.865 30.664H102.25ZM108.443 41V39.47L113.271 33.928H108.596V32.33H115.515V33.86L110.704 39.402H115.651V41H108.443ZM111.265 30.664L109.446 28.607V28.488H111.197L111.979 29.542H112.149L112.948 28.488H114.716V28.607L112.88 30.664H111.265ZM121.164 41.272C120.314 41.272 119.555 41.0737 118.886 40.677C118.217 40.2803 117.69 39.7363 117.305 39.045C116.931 38.3537 116.744 37.566 116.744 36.682C116.744 35.8547 116.925 35.0897 117.288 34.387C117.651 33.6843 118.155 33.1233 118.801 32.704C119.458 32.2733 120.212 32.058 121.062 32.058C121.957 32.058 122.717 32.2507 123.34 32.636C123.975 33.0213 124.456 33.5483 124.785 34.217C125.114 34.8857 125.278 35.6393 125.278 36.478C125.278 36.6027 125.272 36.716 125.261 36.818C125.261 36.92 125.255 36.9993 125.244 37.056H118.546C118.637 37.9173 118.937 38.5633 119.447 38.994C119.968 39.4247 120.558 39.64 121.215 39.64C121.804 39.64 122.292 39.5097 122.677 39.249C123.062 38.977 123.368 38.6427 123.595 38.246L125.108 38.977C124.734 39.657 124.224 40.2123 123.578 40.643C122.932 41.0623 122.127 41.272 121.164 41.272ZM121.079 33.622C120.467 33.622 119.946 33.809 119.515 34.183C119.084 34.557 118.795 35.0557 118.648 35.679H123.459C123.436 35.3843 123.34 35.0783 123.17 34.761C123 34.4437 122.739 34.1773 122.388 33.962C122.048 33.7353 121.612 33.622 121.079 33.622ZM126.981 41V32.33H128.715V33.52H128.817C129.066 33.1007 129.435 32.755 129.922 32.483C130.421 32.1997 130.965 32.058 131.554 32.058C132.619 32.058 133.418 32.3753 133.951 33.01C134.484 33.6447 134.75 34.4833 134.75 35.526V41H132.931V35.764C132.931 35.0613 132.755 34.5513 132.404 34.234C132.053 33.9053 131.594 33.741 131.027 33.741C130.585 33.741 130.2 33.8657 129.871 34.115C129.542 34.353 129.282 34.6703 129.089 35.067C128.908 35.4637 128.817 35.8887 128.817 36.342V41H126.981ZM136.842 41V28.828H138.678V36.002L142.35 32.33H144.628V32.432L141.279 35.747L144.747 40.898V41H142.571L139.987 37.022L138.678 38.314V41H136.842ZM148.848 44.247C148.814 44.3377 148.775 44.4227 148.729 44.502C148.695 44.5813 148.673 44.638 148.661 44.672H146.706C146.763 44.5473 146.842 44.366 146.944 44.128C147.058 43.9013 147.165 43.6803 147.267 43.465C147.369 43.2497 147.477 43.006 147.59 42.734C147.715 42.462 147.84 42.1957 147.964 41.935L148.61 40.524L144.989 32.33H147.029L149.511 38.246H149.596L151.993 32.33H154.016L149.528 42.666C149.404 42.9607 149.268 43.2667 149.12 43.584C148.984 43.9127 148.894 44.1337 148.848 44.247ZM164.942 41.272C164.069 41.272 163.247 41.1133 162.477 40.796C161.717 40.4787 161.043 40.0367 160.454 39.47C159.864 38.892 159.4 38.2177 159.06 37.447C158.731 36.665 158.567 35.8207 158.567 34.914C158.567 34.0073 158.731 33.1687 159.06 32.398C159.4 31.616 159.859 30.9417 160.437 30.375C161.026 29.797 161.706 29.3493 162.477 29.032C163.247 28.7147 164.069 28.556 164.942 28.556C165.871 28.556 166.727 28.7203 167.509 29.049C168.302 29.3777 168.965 29.8367 169.498 30.426L168.206 31.701C167.809 31.259 167.333 30.919 166.778 30.681C166.234 30.443 165.622 30.324 164.942 30.324C164.137 30.324 163.395 30.5167 162.715 30.902C162.035 31.276 161.485 31.8087 161.066 32.5C160.658 33.18 160.454 33.9847 160.454 34.914C160.454 35.8433 160.663 36.6537 161.083 37.345C161.502 38.025 162.052 38.5577 162.732 38.943C163.412 39.317 164.154 39.504 164.959 39.504C165.695 39.504 166.364 39.368 166.965 39.096C167.565 38.8127 168.047 38.416 168.41 37.906C168.784 37.396 169.01 36.784 169.09 36.07H164.925V34.421H170.841C170.909 34.727 170.943 35.05 170.943 35.39V35.407C170.943 36.5857 170.682 37.617 170.161 38.501C169.651 39.3737 168.942 40.0537 168.036 40.541C167.129 41.0283 166.098 41.272 164.942 41.272ZM176.417 41.272C175.521 41.272 174.734 41.068 174.054 40.66C173.374 40.252 172.841 39.7023 172.456 39.011C172.07 38.3197 171.878 37.5377 171.878 36.665C171.878 35.8037 172.07 35.0273 172.456 34.336C172.841 33.6333 173.374 33.078 174.054 32.67C174.734 32.262 175.521 32.058 176.417 32.058C177.301 32.058 178.083 32.262 178.763 32.67C179.443 33.078 179.975 33.6333 180.361 34.336C180.746 35.0273 180.939 35.8037 180.939 36.665C180.939 37.5377 180.746 38.3197 180.361 39.011C179.975 39.7023 179.443 40.252 178.763 40.66C178.083 41.068 177.301 41.272 176.417 41.272ZM176.417 39.589C176.893 39.589 177.335 39.4757 177.743 39.249C178.151 39.011 178.479 38.6767 178.729 38.246C178.989 37.804 179.12 37.277 179.12 36.665C179.12 36.053 178.989 35.5317 178.729 35.101C178.479 34.659 178.151 34.3247 177.743 34.098C177.335 33.86 176.893 33.741 176.417 33.741C175.941 33.741 175.493 33.86 175.074 34.098C174.666 34.3247 174.331 34.659 174.071 35.101C173.821 35.5317 173.697 36.053 173.697 36.665C173.697 37.277 173.821 37.804 174.071 38.246C174.331 38.6767 174.666 39.011 175.074 39.249C175.493 39.4757 175.941 39.589 176.417 39.589ZM186.71 41.272C185.814 41.272 185.027 41.068 184.347 40.66C183.667 40.252 183.134 39.7023 182.749 39.011C182.363 38.3197 182.171 37.5377 182.171 36.665C182.171 35.8037 182.363 35.0273 182.749 34.336C183.134 33.6333 183.667 33.078 184.347 32.67C185.027 32.262 185.814 32.058 186.71 32.058C187.594 32.058 188.376 32.262 189.056 32.67C189.736 33.078 190.268 33.6333 190.654 34.336C191.039 35.0273 191.232 35.8037 191.232 36.665C191.232 37.5377 191.039 38.3197 190.654 39.011C190.268 39.7023 189.736 40.252 189.056 40.66C188.376 41.068 187.594 41.272 186.71 41.272ZM186.71 39.589C187.186 39.589 187.628 39.4757 188.036 39.249C188.444 39.011 188.772 38.6767 189.022 38.246C189.282 37.804 189.413 37.277 189.413 36.665C189.413 36.053 189.282 35.5317 189.022 35.101C188.772 34.659 188.444 34.3247 188.036 34.098C187.628 33.86 187.186 33.741 186.71 33.741C186.234 33.741 185.786 33.86 185.367 34.098C184.959 34.3247 184.624 34.659 184.364 35.101C184.114 35.5317 183.99 36.053 183.99 36.665C183.99 37.277 184.114 37.804 184.364 38.246C184.624 38.6767 184.959 39.011 185.367 39.249C185.786 39.4757 186.234 39.589 186.71 39.589ZM196.833 44.944C196.073 44.944 195.416 44.8193 194.861 44.57C194.317 44.332 193.875 44.0203 193.535 43.635C193.195 43.261 192.951 42.8757 192.804 42.479L194.504 41.765C194.685 42.2183 194.974 42.5867 195.371 42.87C195.779 43.1647 196.266 43.312 196.833 43.312C197.626 43.312 198.249 43.074 198.703 42.598C199.167 42.122 199.4 41.4477 199.4 40.575V39.742H199.298C199.026 40.15 198.646 40.4787 198.159 40.728C197.683 40.966 197.139 41.085 196.527 41.085C195.79 41.085 195.116 40.898 194.504 40.524C193.892 40.15 193.399 39.6287 193.025 38.96C192.651 38.28 192.464 37.4867 192.464 36.58C192.464 35.662 192.651 34.8687 193.025 34.2C193.399 33.52 193.892 32.993 194.504 32.619C195.116 32.245 195.79 32.058 196.527 32.058C197.139 32.058 197.683 32.1827 198.159 32.432C198.646 32.6813 199.026 33.01 199.298 33.418H199.4V32.33H201.151V40.541C201.151 41.4817 200.964 42.2807 200.59 42.938C200.227 43.5953 199.723 44.094 199.077 44.434C198.431 44.774 197.683 44.944 196.833 44.944ZM196.85 39.419C197.303 39.419 197.722 39.3113 198.108 39.096C198.493 38.8693 198.805 38.5463 199.043 38.127C199.281 37.6963 199.4 37.1807 199.4 36.58C199.4 35.9567 199.281 35.4353 199.043 35.016C198.805 34.5853 198.493 34.2623 198.108 34.047C197.722 33.8317 197.303 33.724 196.85 33.724C196.396 33.724 195.971 33.8373 195.575 34.064C195.189 34.2793 194.878 34.5967 194.64 35.016C194.402 35.4353 194.283 35.9567 194.283 36.58C194.283 37.192 194.402 37.7133 194.64 38.144C194.878 38.5633 195.189 38.8807 195.575 39.096C195.971 39.3113 196.396 39.419 196.85 39.419ZM203.316 41V28.828H205.152V41H203.316ZM211.194 41.272C210.344 41.272 209.585 41.0737 208.916 40.677C208.247 40.2803 207.72 39.7363 207.335 39.045C206.961 38.3537 206.774 37.566 206.774 36.682C206.774 35.8547 206.955 35.0897 207.318 34.387C207.681 33.6843 208.185 33.1233 208.831 32.704C209.488 32.2733 210.242 32.058 211.092 32.058C211.987 32.058 212.747 32.2507 213.37 32.636C214.005 33.0213 214.486 33.5483 214.815 34.217C215.144 34.8857 215.308 35.6393 215.308 36.478C215.308 36.6027 215.302 36.716 215.291 36.818C215.291 36.92 215.285 36.9993 215.274 37.056H208.576C208.667 37.9173 208.967 38.5633 209.477 38.994C209.998 39.4247 210.588 39.64 211.245 39.64C211.834 39.64 212.322 39.5097 212.707 39.249C213.092 38.977 213.398 38.6427 213.625 38.246L215.138 38.977C214.764 39.657 214.254 40.2123 213.608 40.643C212.962 41.0623 212.157 41.272 211.194 41.272ZM211.109 33.622C210.497 33.622 209.976 33.809 209.545 34.183C209.114 34.557 208.825 35.0557 208.678 35.679H213.489C213.466 35.3843 213.37 35.0783 213.2 34.761C213.03 34.4437 212.769 34.1773 212.418 33.962C212.078 33.7353 211.642 33.622 211.109 33.622Z" fill="white"/>
<rect x="0.5" y="0.5" width="234" height="53" rx="26.5" stroke="#747775"/>
<defs>
<linearGradient id="paint0_linear_1492_15023" x1="37.2843" y1="33.5448" x2="18.7823" y2="55.2227" gradientUnits="userSpaceOnUse">
<stop stop-color="#4285F4"/>
<stop offset="1" stop-color="#1B74E8"/>
</linearGradient>
</defs>
</svg>
