<svg width="222" height="54" viewBox="0 0 222 54" fill="none" xmlns="http://www.w3.org/2000/svg">
<rect x="0.5" y="0.5" width="221" height="53" rx="26.5" fill="#1F1F1F"/>
<path d="M57 23.291H21V17.6456C21 14.5809 23.6422 12.0001 26.7798 12.0001H51.2202C54.3578 12.0001 57 14.5809 57 17.6456V23.291Z" fill="#34A853"/>
<path d="M57 28.5H21V22.5C21 19.2429 23.6422 16.5 26.7798 16.5H51.2202C54.3578 16.5 57 19.2429 57 22.5V28.5Z" fill="#FBBC04"/>
<path d="M57 33.5H21V27.5C21 24.2429 23.6422 21.5 26.7798 21.5H51.2202C54.3578 21.5 57 24.2429 57 27.5V33.5Z" fill="#EA4335"/>
<path d="M21 24.7409L43.8493 29.9025C46.4795 30.5477 49.4384 29.9025 51.5753 28.2895L57 24.4183V36.5157C57 39.5804 54.3699 41.9999 51.2466 41.9999H26.7534C23.6301 41.9999 21 39.5804 21 36.5157V24.7409Z" fill="url(#paint0_linear_1492_15293)"/>
<path d="M69.481 22.976V19.648H70.3C70.4993 19.3187 70.6597 18.894 70.781 18.374C70.911 17.8453 71.002 17.2647 71.054 16.632C71.1147 15.9993 71.145 15.3623 71.145 14.721V11.692H77.112V19.648H78.204V22.976H76.813V21H70.872V22.976H69.481ZM71.86 19.648H75.682V13.044H72.536V14.929C72.536 15.8737 72.4753 16.7447 72.354 17.542C72.2413 18.3393 72.0767 19.0153 71.86 19.57V19.648ZM82.4859 21.208C81.8012 21.208 81.1989 21.052 80.6789 20.74C80.1589 20.428 79.7515 20.0077 79.4569 19.479C79.1622 18.9503 79.0149 18.3523 79.0149 17.685C79.0149 17.0263 79.1622 16.4327 79.4569 15.904C79.7515 15.3667 80.1589 14.942 80.6789 14.63C81.1989 14.318 81.8012 14.162 82.4859 14.162C83.1619 14.162 83.7599 14.318 84.2799 14.63C84.7999 14.942 85.2072 15.3667 85.5019 15.904C85.7965 16.4327 85.9439 17.0263 85.9439 17.685C85.9439 18.3523 85.7965 18.9503 85.5019 19.479C85.2072 20.0077 84.7999 20.428 84.2799 20.74C83.7599 21.052 83.1619 21.208 82.4859 21.208ZM82.4859 19.921C82.8499 19.921 83.1879 19.8343 83.4999 19.661C83.8119 19.479 84.0632 19.2233 84.2539 18.894C84.4532 18.556 84.5529 18.153 84.5529 17.685C84.5529 17.217 84.4532 16.8183 84.2539 16.489C84.0632 16.151 83.8119 15.8953 83.4999 15.722C83.1879 15.54 82.8499 15.449 82.4859 15.449C82.1219 15.449 81.7795 15.54 81.4589 15.722C81.1469 15.8953 80.8912 16.151 80.6919 16.489C80.5012 16.8183 80.4059 17.217 80.4059 17.685C80.4059 18.153 80.5012 18.556 80.6919 18.894C80.8912 19.2233 81.1469 19.479 81.4589 19.661C81.7795 19.8343 82.1219 19.921 82.4859 19.921ZM90.383 21.208C89.733 21.208 89.1566 21.0607 88.654 20.766C88.16 20.4627 87.77 20.0077 87.484 19.401C87.198 18.7857 87.055 18.0143 87.055 17.087C87.055 16.1423 87.1503 15.3623 87.341 14.747C87.5316 14.123 87.848 13.6203 88.29 13.239C88.5673 13.005 88.9096 12.81 89.317 12.654C89.733 12.498 90.2486 12.3723 90.864 12.277C91.1846 12.225 91.4186 12.173 91.566 12.121C91.7133 12.069 91.8043 12.0083 91.839 11.939C91.8823 11.8697 91.904 11.7873 91.904 11.692H93.178C93.178 12.082 93.1173 12.394 92.996 12.628C92.8833 12.8533 92.6753 13.0267 92.372 13.148C92.0773 13.2693 91.657 13.369 91.111 13.447C90.539 13.5337 90.1013 13.6377 89.798 13.759C89.5033 13.8803 89.2606 14.019 89.07 14.175C88.6453 14.5217 88.3853 15.0157 88.29 15.657H88.368C88.5673 15.3537 88.862 15.1023 89.252 14.903C89.6506 14.695 90.11 14.591 90.63 14.591C91.2453 14.591 91.787 14.734 92.255 15.02C92.723 15.2973 93.087 15.6787 93.347 16.164C93.6156 16.6493 93.75 17.1997 93.75 17.815C93.75 18.4563 93.607 19.037 93.321 19.557C93.0436 20.0683 92.6493 20.4713 92.138 20.766C91.6353 21.0607 91.0503 21.208 90.383 21.208ZM90.396 19.947C90.9506 19.947 91.4143 19.7563 91.787 19.375C92.1596 18.9937 92.346 18.465 92.346 17.789C92.346 17.1737 92.1596 16.6927 91.787 16.346C91.4143 15.9993 90.9506 15.826 90.396 15.826C89.8586 15.826 89.3993 15.9993 89.018 16.346C88.6453 16.6927 88.459 17.1737 88.459 17.789C88.459 18.465 88.641 18.9937 89.005 19.375C89.3776 19.7563 89.8413 19.947 90.396 19.947ZM97.1119 21.208C96.6352 21.208 96.2106 21.117 95.8379 20.935C95.4652 20.7443 95.1749 20.48 94.9669 20.142C94.7589 19.804 94.6549 19.4183 94.6549 18.985C94.6549 18.517 94.7762 18.1183 95.0189 17.789C95.2702 17.451 95.6039 17.1953 96.0199 17.022C96.4359 16.8487 96.8952 16.762 97.3979 16.762C97.8139 16.762 98.1779 16.801 98.4899 16.879C98.8106 16.957 99.0532 17.0393 99.2179 17.126V16.775C99.2179 16.3417 99.0619 15.995 98.7499 15.735C98.4379 15.475 98.0349 15.345 97.5409 15.345C97.2029 15.345 96.8822 15.423 96.5789 15.579C96.2756 15.7263 96.0329 15.93 95.8509 16.19L94.8889 15.449C95.1749 15.0503 95.5519 14.7383 96.0199 14.513C96.4966 14.279 97.0166 14.162 97.5799 14.162C98.5419 14.162 99.2829 14.4003 99.8029 14.877C100.323 15.345 100.583 16.0037 100.583 16.853V21H99.2179V20.181H99.1399C98.9666 20.4497 98.7066 20.688 98.3599 20.896C98.0132 21.104 97.5972 21.208 97.1119 21.208ZM97.3589 20.064C97.7229 20.064 98.0436 19.9773 98.3209 19.804C98.5982 19.6307 98.8149 19.4053 98.9709 19.128C99.1356 18.842 99.2179 18.5343 99.2179 18.205C99.0186 18.0923 98.7846 18.0013 98.5159 17.932C98.2472 17.854 97.9612 17.815 97.6579 17.815C97.0859 17.815 96.6786 17.932 96.4359 18.166C96.1932 18.3913 96.0719 18.6687 96.0719 18.998C96.0719 19.31 96.1889 19.5657 96.4229 19.765C96.6569 19.9643 96.9689 20.064 97.3589 20.064ZM102.129 21V14.37H105.418C105.808 14.37 106.154 14.448 106.458 14.604C106.77 14.7513 107.012 14.955 107.186 15.215C107.368 15.475 107.459 15.7653 107.459 16.086C107.459 16.4327 107.381 16.7317 107.225 16.983C107.077 17.2343 106.882 17.4207 106.64 17.542V17.62C106.969 17.75 107.229 17.945 107.42 18.205C107.619 18.465 107.719 18.764 107.719 19.102C107.719 19.492 107.615 19.83 107.407 20.116C107.207 20.402 106.947 20.623 106.627 20.779C106.306 20.9263 105.964 21 105.6 21H102.129ZM103.533 15.514V17.074H105.249C105.483 17.074 105.678 17.0003 105.834 16.853C105.99 16.7057 106.068 16.5193 106.068 16.294C106.068 16.06 105.99 15.8737 105.834 15.735C105.678 15.5877 105.483 15.514 105.249 15.514H103.533ZM103.533 19.83H105.457C105.708 19.83 105.916 19.752 106.081 19.596C106.254 19.4313 106.341 19.2233 106.341 18.972C106.341 18.7293 106.254 18.5257 106.081 18.361C105.916 18.1963 105.708 18.114 105.457 18.114H103.533V19.83ZM109.022 21V14.37H110.426V17.763L110.348 19.011H110.426L113.741 14.37H115.132V21H113.741V17.62L113.819 16.372H113.741L110.426 21H109.022ZM118.469 21V15.592H116.285V14.37H122.044V15.592H119.86V21H118.469ZM124.594 14.37V16.58H126.115C126.566 16.58 126.969 16.6753 127.324 16.866C127.688 17.0567 127.974 17.321 128.182 17.659C128.39 17.9883 128.494 18.3653 128.494 18.79C128.494 19.2147 128.39 19.5917 128.182 19.921C127.974 20.2503 127.688 20.5147 127.324 20.714C126.969 20.9047 126.566 21 126.115 21H123.19V14.37H124.594ZM124.594 19.83H125.998C126.31 19.83 126.57 19.7303 126.778 19.531C126.986 19.3317 127.09 19.0847 127.09 18.79C127.09 18.4953 126.986 18.2483 126.778 18.049C126.57 17.841 126.31 17.737 125.998 17.737H124.594V19.83ZM132.699 21V14.37H135.988C136.378 14.37 136.725 14.448 137.028 14.604C137.34 14.7513 137.583 14.955 137.756 15.215C137.938 15.475 138.029 15.7653 138.029 16.086C138.029 16.4327 137.951 16.7317 137.795 16.983C137.648 17.2343 137.453 17.4207 137.21 17.542V17.62C137.539 17.75 137.799 17.945 137.99 18.205C138.189 18.465 138.289 18.764 138.289 19.102C138.289 19.492 138.185 19.83 137.977 20.116C137.778 20.402 137.518 20.623 137.197 20.779C136.876 20.9263 136.534 21 136.17 21H132.699ZM134.103 15.514V17.074H135.819C136.053 17.074 136.248 17.0003 136.404 16.853C136.56 16.7057 136.638 16.5193 136.638 16.294C136.638 16.06 136.56 15.8737 136.404 15.735C136.248 15.5877 136.053 15.514 135.819 15.514H134.103ZM134.103 19.83H136.027C136.278 19.83 136.486 19.752 136.651 19.596C136.824 19.4313 136.911 19.2233 136.911 18.972C136.911 18.7293 136.824 18.5257 136.651 18.361C136.486 18.1963 136.278 18.114 136.027 18.114H134.103V19.83Z" fill="white"/>
<path d="M76.14 41.272C75.2673 41.272 74.4457 41.1133 73.675 40.796C72.9157 40.4787 72.2413 40.0367 71.652 39.47C71.0627 38.892 70.598 38.2177 70.258 37.447C69.9293 36.665 69.765 35.8207 69.765 34.914C69.765 34.0073 69.9293 33.1687 70.258 32.398C70.598 31.616 71.057 30.9417 71.635 30.375C72.2243 29.797 72.9043 29.3493 73.675 29.032C74.4457 28.7147 75.2673 28.556 76.14 28.556C77.0693 28.556 77.925 28.7203 78.707 29.049C79.5003 29.3777 80.1633 29.8367 80.696 30.426L79.404 31.701C79.0073 31.259 78.5313 30.919 77.976 30.681C77.432 30.443 76.82 30.324 76.14 30.324C75.3353 30.324 74.593 30.5167 73.913 30.902C73.233 31.276 72.6833 31.8087 72.264 32.5C71.856 33.18 71.652 33.9847 71.652 34.914C71.652 35.8433 71.8617 36.6537 72.281 37.345C72.7003 38.025 73.25 38.5577 73.93 38.943C74.61 39.317 75.3523 39.504 76.157 39.504C76.8937 39.504 77.5623 39.368 78.163 39.096C78.7637 38.8127 79.2453 38.416 79.608 37.906C79.982 37.396 80.2087 36.784 80.288 36.07H76.123V34.421H82.039C82.107 34.727 82.141 35.05 82.141 35.39V35.407C82.141 36.5857 81.8803 37.617 81.359 38.501C80.849 39.3737 80.1407 40.0537 79.234 40.541C78.3273 41.0283 77.296 41.272 76.14 41.272ZM87.6149 41.272C86.7195 41.272 85.9319 41.068 85.2519 40.66C84.5719 40.252 84.0392 39.7023 83.6539 39.011C83.2685 38.3197 83.0759 37.5377 83.0759 36.665C83.0759 35.8037 83.2685 35.0273 83.6539 34.336C84.0392 33.6333 84.5719 33.078 85.2519 32.67C85.9319 32.262 86.7195 32.058 87.6149 32.058C88.4989 32.058 89.2809 32.262 89.9609 32.67C90.6409 33.078 91.1735 33.6333 91.5589 34.336C91.9442 35.0273 92.1369 35.8037 92.1369 36.665C92.1369 37.5377 91.9442 38.3197 91.5589 39.011C91.1735 39.7023 90.6409 40.252 89.9609 40.66C89.2809 41.068 88.4989 41.272 87.6149 41.272ZM87.6149 39.589C88.0909 39.589 88.5329 39.4757 88.9409 39.249C89.3489 39.011 89.6775 38.6767 89.9269 38.246C90.1875 37.804 90.3179 37.277 90.3179 36.665C90.3179 36.053 90.1875 35.5317 89.9269 35.101C89.6775 34.659 89.3489 34.3247 88.9409 34.098C88.5329 33.86 88.0909 33.741 87.6149 33.741C87.1389 33.741 86.6912 33.86 86.2719 34.098C85.8639 34.3247 85.5295 34.659 85.2689 35.101C85.0195 35.5317 84.8949 36.053 84.8949 36.665C84.8949 37.277 85.0195 37.804 85.2689 38.246C85.5295 38.6767 85.8639 39.011 86.2719 39.249C86.6912 39.4757 87.1389 39.589 87.6149 39.589ZM97.9078 41.272C97.0125 41.272 96.2248 41.068 95.5448 40.66C94.8648 40.252 94.3322 39.7023 93.9468 39.011C93.5615 38.3197 93.3688 37.5377 93.3688 36.665C93.3688 35.8037 93.5615 35.0273 93.9468 34.336C94.3322 33.6333 94.8648 33.078 95.5448 32.67C96.2248 32.262 97.0125 32.058 97.9078 32.058C98.7918 32.058 99.5738 32.262 100.254 32.67C100.934 33.078 101.467 33.6333 101.852 34.336C102.237 35.0273 102.43 35.8037 102.43 36.665C102.43 37.5377 102.237 38.3197 101.852 39.011C101.467 39.7023 100.934 40.252 100.254 40.66C99.5738 41.068 98.7918 41.272 97.9078 41.272ZM97.9078 39.589C98.3838 39.589 98.8258 39.4757 99.2338 39.249C99.6418 39.011 99.9705 38.6767 100.22 38.246C100.481 37.804 100.611 37.277 100.611 36.665C100.611 36.053 100.481 35.5317 100.22 35.101C99.9705 34.659 99.6418 34.3247 99.2338 34.098C98.8258 33.86 98.3838 33.741 97.9078 33.741C97.4318 33.741 96.9842 33.86 96.5648 34.098C96.1568 34.3247 95.8225 34.659 95.5618 35.101C95.3125 35.5317 95.1878 36.053 95.1878 36.665C95.1878 37.277 95.3125 37.804 95.5618 38.246C95.8225 38.6767 96.1568 39.011 96.5648 39.249C96.9842 39.4757 97.4318 39.589 97.9078 39.589ZM108.031 44.944C107.271 44.944 106.614 44.8193 106.059 44.57C105.515 44.332 105.073 44.0203 104.733 43.635C104.393 43.261 104.149 42.8757 104.002 42.479L105.702 41.765C105.883 42.2183 106.172 42.5867 106.569 42.87C106.977 43.1647 107.464 43.312 108.031 43.312C108.824 43.312 109.447 43.074 109.901 42.598C110.365 42.122 110.598 41.4477 110.598 40.575V39.742H110.496C110.224 40.15 109.844 40.4787 109.357 40.728C108.881 40.966 108.337 41.085 107.725 41.085C106.988 41.085 106.314 40.898 105.702 40.524C105.09 40.15 104.597 39.6287 104.223 38.96C103.849 38.28 103.662 37.4867 103.662 36.58C103.662 35.662 103.849 34.8687 104.223 34.2C104.597 33.52 105.09 32.993 105.702 32.619C106.314 32.245 106.988 32.058 107.725 32.058C108.337 32.058 108.881 32.1827 109.357 32.432C109.844 32.6813 110.224 33.01 110.496 33.418H110.598V32.33H112.349V40.541C112.349 41.4817 112.162 42.2807 111.788 42.938C111.425 43.5953 110.921 44.094 110.275 44.434C109.629 44.774 108.881 44.944 108.031 44.944ZM108.048 39.419C108.501 39.419 108.92 39.3113 109.306 39.096C109.691 38.8693 110.003 38.5463 110.241 38.127C110.479 37.6963 110.598 37.1807 110.598 36.58C110.598 35.9567 110.479 35.4353 110.241 35.016C110.003 34.5853 109.691 34.2623 109.306 34.047C108.92 33.8317 108.501 33.724 108.048 33.724C107.594 33.724 107.169 33.8373 106.773 34.064C106.387 34.2793 106.076 34.5967 105.838 35.016C105.6 35.4353 105.481 35.9567 105.481 36.58C105.481 37.192 105.6 37.7133 105.838 38.144C106.076 38.5633 106.387 38.8807 106.773 39.096C107.169 39.3113 107.594 39.419 108.048 39.419ZM114.514 41V28.828H116.35V41H114.514ZM122.392 41.272C121.542 41.272 120.783 41.0737 120.114 40.677C119.446 40.2803 118.919 39.7363 118.533 39.045C118.159 38.3537 117.972 37.566 117.972 36.682C117.972 35.8547 118.154 35.0897 118.516 34.387C118.879 33.6843 119.383 33.1233 120.029 32.704C120.687 32.2733 121.44 32.058 122.29 32.058C123.186 32.058 123.945 32.2507 124.568 32.636C125.203 33.0213 125.685 33.5483 126.013 34.217C126.342 34.8857 126.506 35.6393 126.506 36.478C126.506 36.6027 126.501 36.716 126.489 36.818C126.489 36.92 126.484 36.9993 126.472 37.056H119.774C119.865 37.9173 120.165 38.5633 120.675 38.994C121.197 39.4247 121.786 39.64 122.443 39.64C123.033 39.64 123.52 39.5097 123.905 39.249C124.291 38.977 124.597 38.6427 124.823 38.246L126.336 38.977C125.962 39.657 125.452 40.2123 124.806 40.643C124.16 41.0623 123.356 41.272 122.392 41.272ZM122.307 33.622C121.695 33.622 121.174 33.809 120.743 34.183C120.313 34.557 120.024 35.0557 119.876 35.679H124.687C124.665 35.3843 124.568 35.0783 124.398 34.761C124.228 34.4437 123.968 34.1773 123.616 33.962C123.276 33.7353 122.84 33.622 122.307 33.622ZM132.483 41V28.828H134.353V34.727H134.455L139.3 28.828H141.646V28.93L136.512 35.016L141.918 40.898V41H139.47L134.455 35.424H134.353V41H132.483ZM146.584 41.272C145.688 41.272 144.901 41.068 144.221 40.66C143.541 40.252 143.008 39.7023 142.623 39.011C142.237 38.3197 142.045 37.5377 142.045 36.665C142.045 35.8037 142.237 35.0273 142.623 34.336C143.008 33.6333 143.541 33.078 144.221 32.67C144.901 32.262 145.688 32.058 146.584 32.058C147.468 32.058 148.25 32.262 148.93 32.67C149.61 33.078 150.142 33.6333 150.528 34.336C150.913 35.0273 151.106 35.8037 151.106 36.665C151.106 37.5377 150.913 38.3197 150.528 39.011C150.142 39.7023 149.61 40.252 148.93 40.66C148.25 41.068 147.468 41.272 146.584 41.272ZM146.584 39.589C147.06 39.589 147.502 39.4757 147.91 39.249C148.318 39.011 148.646 38.6767 148.896 38.246C149.156 37.804 149.287 37.277 149.287 36.665C149.287 36.053 149.156 35.5317 148.896 35.101C148.646 34.659 148.318 34.3247 147.91 34.098C147.502 33.86 147.06 33.741 146.584 33.741C146.108 33.741 145.66 33.86 145.241 34.098C144.833 34.3247 144.498 34.659 144.238 35.101C143.988 35.5317 143.864 36.053 143.864 36.665C143.864 37.277 143.988 37.804 144.238 38.246C144.498 38.6767 144.833 39.011 145.241 39.249C145.66 39.4757 146.108 39.589 146.584 39.589ZM152.631 41V32.33H154.45V39.402H157.306V32.33H159.125V39.402H161.981V32.33H163.8V41H152.631ZM169.84 41.272C168.99 41.272 168.23 41.0737 167.562 40.677C166.893 40.2803 166.366 39.7363 165.981 39.045C165.607 38.3537 165.42 37.566 165.42 36.682C165.42 35.8547 165.601 35.0897 165.964 34.387C166.326 33.6843 166.831 33.1233 167.477 32.704C168.134 32.2733 168.888 32.058 169.738 32.058C170.633 32.058 171.392 32.2507 172.016 32.636C172.65 33.0213 173.132 33.5483 173.461 34.217C173.789 34.8857 173.954 35.6393 173.954 36.478C173.954 36.6027 173.948 36.716 173.937 36.818C173.937 36.92 173.931 36.9993 173.92 37.056H167.222C167.312 37.9173 167.613 38.5633 168.123 38.994C168.644 39.4247 169.233 39.64 169.891 39.64C170.48 39.64 170.967 39.5097 171.353 39.249C171.738 38.977 172.044 38.6427 172.271 38.246L173.784 38.977C173.41 39.657 172.9 40.2123 172.254 40.643C171.608 41.0623 170.803 41.272 169.84 41.272ZM169.755 33.622C169.143 33.622 168.621 33.809 168.191 34.183C167.76 34.557 167.471 35.0557 167.324 35.679H172.135C172.112 35.3843 172.016 35.0783 171.846 34.761C171.676 34.4437 171.415 34.1773 171.064 33.962C170.724 33.7353 170.287 33.622 169.755 33.622ZM175.627 41.136C175.366 41.136 175.117 41.1077 174.879 41.051V39.351C175.038 39.4303 175.213 39.47 175.406 39.47C175.791 39.47 176.063 39.3227 176.222 39.028C176.381 38.722 176.477 38.3367 176.511 37.872C176.545 37.4073 176.562 36.9257 176.562 36.427V32.33H183.192V41H181.373V33.928H178.296V36.716C178.296 37.3053 178.256 37.8663 178.177 38.399C178.109 38.9203 177.979 39.3907 177.786 39.81C177.593 40.218 177.321 40.541 176.97 40.779C176.63 41.017 176.182 41.136 175.627 41.136ZM189.23 41.272C188.38 41.272 187.621 41.0737 186.952 40.677C186.284 40.2803 185.757 39.7363 185.371 39.045C184.997 38.3537 184.81 37.566 184.81 36.682C184.81 35.8547 184.992 35.0897 185.354 34.387C185.717 33.6843 186.221 33.1233 186.867 32.704C187.525 32.2733 188.278 32.058 189.128 32.058C190.024 32.058 190.783 32.2507 191.406 32.636C192.041 33.0213 192.523 33.5483 192.851 34.217C193.18 34.8857 193.344 35.6393 193.344 36.478C193.344 36.6027 193.339 36.716 193.327 36.818C193.327 36.92 193.322 36.9993 193.31 37.056H186.612C186.703 37.9173 187.003 38.5633 187.513 38.994C188.035 39.4247 188.624 39.64 189.281 39.64C189.871 39.64 190.358 39.5097 190.743 39.249C191.129 38.977 191.435 38.6427 191.661 38.246L193.174 38.977C192.8 39.657 192.29 40.2123 191.644 40.643C190.998 41.0623 190.194 41.272 189.23 41.272ZM189.145 33.622C188.533 33.622 188.012 33.809 187.581 34.183C187.151 34.557 186.862 35.0557 186.714 35.679H191.525C191.503 35.3843 191.406 35.0783 191.236 34.761C191.066 34.4437 190.806 34.1773 190.454 33.962C190.114 33.7353 189.678 33.622 189.145 33.622ZM195.048 41V32.33H196.884V36.172H196.986L200.386 32.33H202.494V32.432L198.873 36.393L202.63 40.898V41H200.454L196.986 36.733H196.884V41H195.048Z" fill="white"/>
<rect x="0.5" y="0.5" width="221" height="53" rx="26.5" stroke="#747775"/>
<defs>
<linearGradient id="paint0_linear_1492_15293" x1="37.2843" y1="33.5448" x2="18.7823" y2="55.2227" gradientUnits="userSpaceOnUse">
<stop stop-color="#4285F4"/>
<stop offset="1" stop-color="#1B74E8"/>
</linearGradient>
</defs>
</svg>
