<svg width="199" height="54" viewBox="0 0 199 54" fill="none" xmlns="http://www.w3.org/2000/svg">
<rect x="0.5" y="0.5" width="198" height="53" rx="26.5" fill="#1F1F1F"/>
<path d="M57 23.291H21V17.6456C21 14.5809 23.6422 12.0001 26.7798 12.0001H51.2202C54.3578 12.0001 57 14.5809 57 17.6456V23.291Z" fill="#34A853"/>
<path d="M57 28.5H21V22.5C21 19.2429 23.6422 16.5 26.7798 16.5H51.2202C54.3578 16.5 57 19.2429 57 22.5V28.5Z" fill="#FBBC04"/>
<path d="M57 33.5H21V27.5C21 24.2429 23.6422 21.5 26.7798 21.5H51.2202C54.3578 21.5 57 24.2429 57 27.5V33.5Z" fill="#EA4335"/>
<path d="M21 24.7409L43.8493 29.9025C46.4795 30.5477 49.4384 29.9025 51.5753 28.2895L57 24.4183V36.5157C57 39.5804 54.3699 41.9999 51.2466 41.9999H26.7534C23.6301 41.9999 21 39.5804 21 36.5157V24.7409Z" fill="url(#paint0_linear_1492_15347)"/>
<path d="M70.053 21V11.692H71.483V19.648H75.487V21H70.053ZM78.7926 21.208C78.3159 21.208 77.8912 21.117 77.5186 20.935C77.1459 20.7443 76.8556 20.48 76.6476 20.142C76.4396 19.804 76.3356 19.4183 76.3356 18.985C76.3356 18.517 76.4569 18.1183 76.6996 17.789C76.9509 17.451 77.2846 17.1953 77.7006 17.022C78.1166 16.8487 78.5759 16.762 79.0786 16.762C79.4946 16.762 79.8586 16.801 80.1706 16.879C80.4912 16.957 80.7339 17.0393 80.8986 17.126V16.775C80.8986 16.3417 80.7426 15.995 80.4306 15.735C80.1186 15.475 79.7156 15.345 79.2216 15.345C78.8836 15.345 78.5629 15.423 78.2596 15.579C77.9562 15.7263 77.7136 15.93 77.5316 16.19L76.5696 15.449C76.8556 15.0503 77.2326 14.7383 77.7006 14.513C78.1772 14.279 78.6972 14.162 79.2606 14.162C80.2226 14.162 80.9636 14.4003 81.4836 14.877C82.0036 15.345 82.2636 16.0037 82.2636 16.853V21H80.8986V20.181H80.8206C80.6472 20.4497 80.3872 20.688 80.0406 20.896C79.6939 21.104 79.2779 21.208 78.7926 21.208ZM79.0396 20.064C79.4036 20.064 79.7242 19.9773 80.0016 19.804C80.2789 19.6307 80.4956 19.4053 80.6516 19.128C80.8162 18.842 80.8986 18.5343 80.8986 18.205C80.6992 18.0923 80.4652 18.0013 80.1966 17.932C79.9279 17.854 79.6419 17.815 79.3386 17.815C78.7666 17.815 78.3592 17.932 78.1166 18.166C77.8739 18.3913 77.7526 18.6687 77.7526 18.998C77.7526 19.31 77.8696 19.5657 78.1036 19.765C78.3376 19.9643 78.6496 20.064 79.0396 20.064ZM80.4696 13.018C80.2529 13.018 80.0622 12.94 79.8976 12.784C79.7416 12.6193 79.6636 12.4243 79.6636 12.199C79.6636 11.9737 79.7416 11.7873 79.8976 11.64C80.0622 11.484 80.2529 11.406 80.4696 11.406C80.7036 11.406 80.8986 11.484 81.0546 11.64C81.2106 11.7873 81.2886 11.9737 81.2886 12.199C81.2886 12.4243 81.2106 12.6193 81.0546 12.784C80.8986 12.94 80.7036 13.018 80.4696 13.018ZM78.1686 13.018C77.9519 13.018 77.7612 12.94 77.5966 12.784C77.4406 12.6193 77.3626 12.4243 77.3626 12.199C77.3626 11.9737 77.4406 11.7873 77.5966 11.64C77.7612 11.484 77.9519 11.406 78.1686 11.406C78.4026 11.406 78.5932 11.484 78.7406 11.64C78.8966 11.7873 78.9746 11.9737 78.9746 12.199C78.9746 12.4243 78.8966 12.6193 78.7406 12.784C78.5932 12.94 78.4026 13.018 78.1686 13.018ZM86.7358 24.016C86.1551 24.016 85.6524 23.9207 85.2278 23.73C84.8118 23.548 84.4738 23.3097 84.2138 23.015C83.9538 22.729 83.7674 22.4343 83.6548 22.131L84.9548 21.585C85.0934 21.9317 85.3144 22.2133 85.6178 22.43C85.9298 22.6553 86.3024 22.768 86.7358 22.768C87.3424 22.768 87.8191 22.586 88.1658 22.222C88.5211 21.858 88.6988 21.3423 88.6988 20.675V20.038H88.6208C88.4128 20.35 88.1224 20.6013 87.7498 20.792C87.3858 20.974 86.9698 21.065 86.5018 21.065C85.9384 21.065 85.4228 20.922 84.9548 20.636C84.4868 20.35 84.1098 19.9513 83.8238 19.44C83.5378 18.92 83.3948 18.3133 83.3948 17.62C83.3948 16.918 83.5378 16.3113 83.8238 15.8C84.1098 15.28 84.4868 14.877 84.9548 14.591C85.4228 14.305 85.9384 14.162 86.5018 14.162C86.9698 14.162 87.3858 14.2573 87.7498 14.448C88.1224 14.6387 88.4128 14.89 88.6208 15.202H88.6988V14.37H90.0378V20.649C90.0378 21.3683 89.8948 21.9793 89.6088 22.482C89.3314 22.9847 88.9458 23.366 88.4518 23.626C87.9578 23.886 87.3858 24.016 86.7358 24.016ZM86.7488 19.791C87.0954 19.791 87.4161 19.7087 87.7108 19.544C88.0054 19.3707 88.2438 19.1237 88.4258 18.803C88.6078 18.4737 88.6988 18.0793 88.6988 17.62C88.6988 17.1433 88.6078 16.7447 88.4258 16.424C88.2438 16.0947 88.0054 15.8477 87.7108 15.683C87.4161 15.5183 87.0954 15.436 86.7488 15.436C86.4021 15.436 86.0771 15.5227 85.7738 15.696C85.4791 15.8607 85.2408 16.1033 85.0588 16.424C84.8768 16.7447 84.7858 17.1433 84.7858 17.62C84.7858 18.088 84.8768 18.4867 85.0588 18.816C85.2408 19.1367 85.4791 19.3793 85.7738 19.544C86.0771 19.7087 86.4021 19.791 86.7488 19.791ZM94.6069 24.016C94.0262 24.016 93.5235 23.9207 93.0989 23.73C92.6829 23.548 92.3449 23.3097 92.0849 23.015C91.8249 22.729 91.6385 22.4343 91.5259 22.131L92.8259 21.585C92.9645 21.9317 93.1855 22.2133 93.4889 22.43C93.8009 22.6553 94.1735 22.768 94.6069 22.768C95.2135 22.768 95.6902 22.586 96.0369 22.222C96.3922 21.858 96.5699 21.3423 96.5699 20.675V20.038H96.4919C96.2839 20.35 95.9935 20.6013 95.6209 20.792C95.2569 20.974 94.8409 21.065 94.3729 21.065C93.8095 21.065 93.2939 20.922 92.8259 20.636C92.3579 20.35 91.9809 19.9513 91.6949 19.44C91.4089 18.92 91.2659 18.3133 91.2659 17.62C91.2659 16.918 91.4089 16.3113 91.6949 15.8C91.9809 15.28 92.3579 14.877 92.8259 14.591C93.2939 14.305 93.8095 14.162 94.3729 14.162C94.8409 14.162 95.2569 14.2573 95.6209 14.448C95.9935 14.6387 96.2839 14.89 96.4919 15.202H96.5699V14.37H97.9089V20.649C97.9089 21.3683 97.7659 21.9793 97.4799 22.482C97.2025 22.9847 96.8169 23.366 96.3229 23.626C95.8289 23.886 95.2569 24.016 94.6069 24.016ZM94.6199 19.791C94.9665 19.791 95.2872 19.7087 95.5819 19.544C95.8765 19.3707 96.1149 19.1237 96.2969 18.803C96.4789 18.4737 96.5699 18.0793 96.5699 17.62C96.5699 17.1433 96.4789 16.7447 96.2969 16.424C96.1149 16.0947 95.8765 15.8477 95.5819 15.683C95.2872 15.5183 94.9665 15.436 94.6199 15.436C94.2732 15.436 93.9482 15.5227 93.6449 15.696C93.3502 15.8607 93.1119 16.1033 92.9299 16.424C92.7479 16.7447 92.6569 17.1433 92.6569 17.62C92.6569 18.088 92.7479 18.4867 92.9299 18.816C93.1119 19.1367 93.3502 19.3793 93.6449 19.544C93.9482 19.7087 94.2732 19.791 94.6199 19.791ZM103.288 19.076V15.592H102.131V14.37H103.288V12.498H104.692V14.37H106.317V15.592H104.692V18.777C104.692 19.1063 104.757 19.3577 104.887 19.531C105.025 19.7043 105.255 19.791 105.576 19.791C105.74 19.791 105.879 19.7693 105.992 19.726C106.113 19.6827 106.234 19.622 106.356 19.544V20.909C106.208 20.9697 106.052 21.0173 105.888 21.052C105.723 21.0867 105.528 21.104 105.303 21.104C104.687 21.104 104.198 20.9263 103.834 20.571C103.47 20.207 103.288 19.7087 103.288 19.076ZM108.533 13.395C108.273 13.395 108.048 13.304 107.857 13.122C107.675 12.9313 107.584 12.706 107.584 12.446C107.584 12.186 107.675 11.965 107.857 11.783C108.048 11.601 108.273 11.51 108.533 11.51C108.793 11.51 109.014 11.601 109.196 11.783C109.387 11.965 109.482 12.186 109.482 12.446C109.482 12.706 109.387 12.9313 109.196 13.122C109.014 13.304 108.793 13.395 108.533 13.395ZM107.831 21V14.37H109.235V21H107.831ZM110.99 21V11.692H112.394V21H110.99ZM114.062 21V11.692H115.466V21H114.062ZM120.962 13.395C120.702 13.395 120.477 13.304 120.286 13.122C120.104 12.9313 120.013 12.706 120.013 12.446C120.013 12.186 120.104 11.965 120.286 11.783C120.477 11.601 120.702 11.51 120.962 11.51C121.222 11.51 121.443 11.601 121.625 11.783C121.816 11.965 121.911 12.186 121.911 12.446C121.911 12.706 121.816 12.9313 121.625 13.122C121.443 13.304 121.222 13.395 120.962 13.395ZM120.26 21V14.37H121.664V21H120.26Z" fill="white"/>
<path d="M76.14 41.272C75.2673 41.272 74.4457 41.1133 73.675 40.796C72.9157 40.4787 72.2413 40.0367 71.652 39.47C71.0627 38.892 70.598 38.2177 70.258 37.447C69.9293 36.665 69.765 35.8207 69.765 34.914C69.765 34.0073 69.9293 33.1687 70.258 32.398C70.598 31.616 71.057 30.9417 71.635 30.375C72.2243 29.797 72.9043 29.3493 73.675 29.032C74.4457 28.7147 75.2673 28.556 76.14 28.556C77.0693 28.556 77.925 28.7203 78.707 29.049C79.5003 29.3777 80.1633 29.8367 80.696 30.426L79.404 31.701C79.0073 31.259 78.5313 30.919 77.976 30.681C77.432 30.443 76.82 30.324 76.14 30.324C75.3353 30.324 74.593 30.5167 73.913 30.902C73.233 31.276 72.6833 31.8087 72.264 32.5C71.856 33.18 71.652 33.9847 71.652 34.914C71.652 35.8433 71.8617 36.6537 72.281 37.345C72.7003 38.025 73.25 38.5577 73.93 38.943C74.61 39.317 75.3523 39.504 76.157 39.504C76.8937 39.504 77.5623 39.368 78.163 39.096C78.7637 38.8127 79.2453 38.416 79.608 37.906C79.982 37.396 80.2087 36.784 80.288 36.07H76.123V34.421H82.039C82.107 34.727 82.141 35.05 82.141 35.39V35.407C82.141 36.5857 81.8803 37.617 81.359 38.501C80.849 39.3737 80.1407 40.0537 79.234 40.541C78.3273 41.0283 77.296 41.272 76.14 41.272ZM87.6149 41.272C86.7195 41.272 85.9319 41.068 85.2519 40.66C84.5719 40.252 84.0392 39.7023 83.6539 39.011C83.2685 38.3197 83.0759 37.5377 83.0759 36.665C83.0759 35.8037 83.2685 35.0273 83.6539 34.336C84.0392 33.6333 84.5719 33.078 85.2519 32.67C85.9319 32.262 86.7195 32.058 87.6149 32.058C88.4989 32.058 89.2809 32.262 89.9609 32.67C90.6409 33.078 91.1735 33.6333 91.5589 34.336C91.9442 35.0273 92.1369 35.8037 92.1369 36.665C92.1369 37.5377 91.9442 38.3197 91.5589 39.011C91.1735 39.7023 90.6409 40.252 89.9609 40.66C89.2809 41.068 88.4989 41.272 87.6149 41.272ZM87.6149 39.589C88.0909 39.589 88.5329 39.4757 88.9409 39.249C89.3489 39.011 89.6775 38.6767 89.9269 38.246C90.1875 37.804 90.3179 37.277 90.3179 36.665C90.3179 36.053 90.1875 35.5317 89.9269 35.101C89.6775 34.659 89.3489 34.3247 88.9409 34.098C88.5329 33.86 88.0909 33.741 87.6149 33.741C87.1389 33.741 86.6912 33.86 86.2719 34.098C85.8639 34.3247 85.5295 34.659 85.2689 35.101C85.0195 35.5317 84.8949 36.053 84.8949 36.665C84.8949 37.277 85.0195 37.804 85.2689 38.246C85.5295 38.6767 85.8639 39.011 86.2719 39.249C86.6912 39.4757 87.1389 39.589 87.6149 39.589ZM97.9078 41.272C97.0125 41.272 96.2248 41.068 95.5448 40.66C94.8648 40.252 94.3322 39.7023 93.9468 39.011C93.5615 38.3197 93.3688 37.5377 93.3688 36.665C93.3688 35.8037 93.5615 35.0273 93.9468 34.336C94.3322 33.6333 94.8648 33.078 95.5448 32.67C96.2248 32.262 97.0125 32.058 97.9078 32.058C98.7918 32.058 99.5738 32.262 100.254 32.67C100.934 33.078 101.467 33.6333 101.852 34.336C102.237 35.0273 102.43 35.8037 102.43 36.665C102.43 37.5377 102.237 38.3197 101.852 39.011C101.467 39.7023 100.934 40.252 100.254 40.66C99.5738 41.068 98.7918 41.272 97.9078 41.272ZM97.9078 39.589C98.3838 39.589 98.8258 39.4757 99.2338 39.249C99.6418 39.011 99.9705 38.6767 100.22 38.246C100.481 37.804 100.611 37.277 100.611 36.665C100.611 36.053 100.481 35.5317 100.22 35.101C99.9705 34.659 99.6418 34.3247 99.2338 34.098C98.8258 33.86 98.3838 33.741 97.9078 33.741C97.4318 33.741 96.9842 33.86 96.5648 34.098C96.1568 34.3247 95.8225 34.659 95.5618 35.101C95.3125 35.5317 95.1878 36.053 95.1878 36.665C95.1878 37.277 95.3125 37.804 95.5618 38.246C95.8225 38.6767 96.1568 39.011 96.5648 39.249C96.9842 39.4757 97.4318 39.589 97.9078 39.589ZM108.031 44.944C107.271 44.944 106.614 44.8193 106.059 44.57C105.515 44.332 105.073 44.0203 104.733 43.635C104.393 43.261 104.149 42.8757 104.002 42.479L105.702 41.765C105.883 42.2183 106.172 42.5867 106.569 42.87C106.977 43.1647 107.464 43.312 108.031 43.312C108.824 43.312 109.447 43.074 109.901 42.598C110.365 42.122 110.598 41.4477 110.598 40.575V39.742H110.496C110.224 40.15 109.844 40.4787 109.357 40.728C108.881 40.966 108.337 41.085 107.725 41.085C106.988 41.085 106.314 40.898 105.702 40.524C105.09 40.15 104.597 39.6287 104.223 38.96C103.849 38.28 103.662 37.4867 103.662 36.58C103.662 35.662 103.849 34.8687 104.223 34.2C104.597 33.52 105.09 32.993 105.702 32.619C106.314 32.245 106.988 32.058 107.725 32.058C108.337 32.058 108.881 32.1827 109.357 32.432C109.844 32.6813 110.224 33.01 110.496 33.418H110.598V32.33H112.349V40.541C112.349 41.4817 112.162 42.2807 111.788 42.938C111.425 43.5953 110.921 44.094 110.275 44.434C109.629 44.774 108.881 44.944 108.031 44.944ZM108.048 39.419C108.501 39.419 108.92 39.3113 109.306 39.096C109.691 38.8693 110.003 38.5463 110.241 38.127C110.479 37.6963 110.598 37.1807 110.598 36.58C110.598 35.9567 110.479 35.4353 110.241 35.016C110.003 34.5853 109.691 34.2623 109.306 34.047C108.92 33.8317 108.501 33.724 108.048 33.724C107.594 33.724 107.169 33.8373 106.773 34.064C106.387 34.2793 106.076 34.5967 105.838 35.016C105.6 35.4353 105.481 35.9567 105.481 36.58C105.481 37.192 105.6 37.7133 105.838 38.144C106.076 38.5633 106.387 38.8807 106.773 39.096C107.169 39.3113 107.594 39.419 108.048 39.419ZM114.514 41V28.828H116.35V41H114.514ZM122.392 41.272C121.542 41.272 120.783 41.0737 120.114 40.677C119.446 40.2803 118.919 39.7363 118.533 39.045C118.159 38.3537 117.972 37.566 117.972 36.682C117.972 35.8547 118.154 35.0897 118.516 34.387C118.879 33.6843 119.383 33.1233 120.029 32.704C120.687 32.2733 121.44 32.058 122.29 32.058C123.186 32.058 123.945 32.2507 124.568 32.636C125.203 33.0213 125.685 33.5483 126.013 34.217C126.342 34.8857 126.506 35.6393 126.506 36.478C126.506 36.6027 126.501 36.716 126.489 36.818C126.489 36.92 126.484 36.9993 126.472 37.056H119.774C119.865 37.9173 120.165 38.5633 120.675 38.994C121.197 39.4247 121.786 39.64 122.443 39.64C123.033 39.64 123.52 39.5097 123.905 39.249C124.291 38.977 124.597 38.6427 124.823 38.246L126.336 38.977C125.962 39.657 125.452 40.2123 124.806 40.643C124.16 41.0623 123.356 41.272 122.392 41.272ZM122.307 33.622C121.695 33.622 121.174 33.809 120.743 34.183C120.313 34.557 120.024 35.0557 119.876 35.679H124.687C124.665 35.3843 124.568 35.0783 124.398 34.761C124.228 34.4437 123.968 34.1773 123.616 33.962C123.276 33.7353 122.84 33.622 122.307 33.622ZM133.979 41L130.715 28.828H132.789L134.727 36.733L134.931 37.787H135.033L135.288 36.733L137.736 28.828H139.606L141.952 36.733L142.207 37.77H142.309L142.513 36.733L144.451 28.828H146.508L143.295 41H141.323L138.994 32.925L138.722 31.786H138.62L138.331 32.925L135.9 41H133.979ZM149.922 41.272C149.299 41.272 148.743 41.153 148.256 40.915C147.769 40.6657 147.389 40.32 147.117 39.878C146.845 39.436 146.709 38.9317 146.709 38.365C146.709 37.753 146.868 37.2317 147.185 36.801C147.514 36.359 147.95 36.0247 148.494 35.798C149.038 35.5713 149.639 35.458 150.296 35.458C150.84 35.458 151.316 35.509 151.724 35.611C152.143 35.713 152.461 35.8207 152.676 35.934V35.475C152.676 34.9083 152.472 34.455 152.064 34.115C151.656 33.775 151.129 33.605 150.483 33.605C150.041 33.605 149.622 33.707 149.225 33.911C148.828 34.1037 148.511 34.37 148.273 34.71L147.015 33.741C147.389 33.2197 147.882 32.8117 148.494 32.517C149.117 32.211 149.797 32.058 150.534 32.058C151.792 32.058 152.761 32.3697 153.441 32.993C154.121 33.605 154.461 34.4663 154.461 35.577V41H152.676V39.929H152.574C152.347 40.2803 152.007 40.592 151.554 40.864C151.101 41.136 150.557 41.272 149.922 41.272ZM150.245 39.776C150.721 39.776 151.14 39.6627 151.503 39.436C151.866 39.2093 152.149 38.9147 152.353 38.552C152.568 38.178 152.676 37.7757 152.676 37.345C152.415 37.1977 152.109 37.0787 151.758 36.988C151.407 36.886 151.033 36.835 150.636 36.835C149.888 36.835 149.355 36.988 149.038 37.294C148.721 37.5887 148.562 37.9513 148.562 38.382C148.562 38.79 148.715 39.1243 149.021 39.385C149.327 39.6457 149.735 39.776 150.245 39.776ZM156.499 41V28.828H158.335V41H156.499ZM160.517 41V28.828H162.353V41H160.517ZM168.395 41.272C167.545 41.272 166.786 41.0737 166.117 40.677C165.449 40.2803 164.922 39.7363 164.536 39.045C164.162 38.3537 163.975 37.566 163.975 36.682C163.975 35.8547 164.157 35.0897 164.519 34.387C164.882 33.6843 165.386 33.1233 166.032 32.704C166.69 32.2733 167.443 32.058 168.293 32.058C169.189 32.058 169.948 32.2507 170.571 32.636C171.206 33.0213 171.688 33.5483 172.016 34.217C172.345 34.8857 172.509 35.6393 172.509 36.478C172.509 36.6027 172.504 36.716 172.492 36.818C172.492 36.92 172.487 36.9993 172.475 37.056H165.777C165.868 37.9173 166.168 38.5633 166.678 38.994C167.2 39.4247 167.789 39.64 168.446 39.64C169.036 39.64 169.523 39.5097 169.908 39.249C170.294 38.977 170.6 38.6427 170.826 38.246L172.339 38.977C171.965 39.657 171.455 40.2123 170.809 40.643C170.163 41.0623 169.359 41.272 168.395 41.272ZM168.31 33.622C167.698 33.622 167.177 33.809 166.746 34.183C166.316 34.557 166.027 35.0557 165.879 35.679H170.69C170.668 35.3843 170.571 35.0783 170.401 34.761C170.231 34.4437 169.971 34.1773 169.619 33.962C169.279 33.7353 168.843 33.622 168.31 33.622ZM174.882 38.484V33.928H173.369V32.33H174.882V29.882H176.718V32.33H178.843V33.928H176.718V38.093C176.718 38.5237 176.803 38.8523 176.973 39.079C177.154 39.3057 177.454 39.419 177.874 39.419C178.089 39.419 178.27 39.3907 178.418 39.334C178.576 39.2773 178.735 39.198 178.894 39.096V40.881C178.701 40.9603 178.497 41.0227 178.282 41.068C178.066 41.1133 177.811 41.136 177.517 41.136C176.712 41.136 176.072 40.9037 175.596 40.439C175.12 39.963 174.882 39.3113 174.882 38.484Z" fill="white"/>
<rect x="0.5" y="0.5" width="198" height="53" rx="26.5" stroke="#747775"/>
<defs>
<linearGradient id="paint0_linear_1492_15347" x1="37.2843" y1="33.5448" x2="18.7823" y2="55.2227" gradientUnits="userSpaceOnUse">
<stop stop-color="#4285F4"/>
<stop offset="1" stop-color="#1B74E8"/>
</linearGradient>
</defs>
</svg>
