<svg width="213" height="54" viewBox="0 0 213 54" fill="none" xmlns="http://www.w3.org/2000/svg">
<rect x="0.5" y="0.5" width="212" height="53" rx="26.5" fill="#1F1F1F"/>
<path d="M57 23.291H21V17.6456C21 14.5809 23.6422 12.0001 26.7798 12.0001H51.2202C54.3578 12.0001 57 14.5809 57 17.6456V23.291Z" fill="#34A853"/>
<path d="M57 28.5H21V22.5C21 19.2429 23.6422 16.5 26.7798 16.5H51.2202C54.3578 16.5 57 19.2429 57 22.5V28.5Z" fill="#FBBC04"/>
<path d="M57 33.5H21V27.5C21 24.2429 23.6422 21.5 26.7798 21.5H51.2202C54.3578 21.5 57 24.2429 57 27.5V33.5Z" fill="#EA4335"/>
<path d="M21 24.7409L43.8493 29.9025C46.4795 30.5477 49.4384 29.9025 51.5753 28.2895L57 24.4183V36.5157C57 39.5804 54.3699 41.9999 51.2466 41.9999H26.7534C23.6301 41.9999 21 39.5804 21 36.5157V24.7409Z" fill="url(#paint0_linear_1492_15257)"/>
<path d="M70.053 21V11.692H73.03C74.0093 11.692 74.85 11.8913 75.552 12.29C76.2627 12.68 76.8087 13.226 77.19 13.928C77.58 14.63 77.775 15.436 77.775 16.346C77.775 17.2647 77.58 18.075 77.19 18.777C76.8087 19.4703 76.2627 20.0163 75.552 20.415C74.85 20.805 74.0093 21 73.03 21H70.053ZM71.483 19.648H72.991C74.0483 19.648 74.8673 19.3533 75.448 18.764C76.0373 18.1747 76.332 17.3687 76.332 16.346C76.332 15.3233 76.0373 14.5173 75.448 13.928C74.8673 13.3387 74.0483 13.044 72.991 13.044H71.483V19.648ZM82.105 21.208C81.4203 21.208 80.818 21.052 80.298 20.74C79.778 20.428 79.3707 20.0077 79.076 19.479C78.7813 18.9503 78.634 18.3523 78.634 17.685C78.634 17.0263 78.7813 16.4327 79.076 15.904C79.3707 15.3667 79.778 14.942 80.298 14.63C80.818 14.318 81.4203 14.162 82.105 14.162C82.781 14.162 83.379 14.318 83.899 14.63C84.419 14.942 84.8263 15.3667 85.121 15.904C85.4157 16.4327 85.563 17.0263 85.563 17.685C85.563 18.3523 85.4157 18.9503 85.121 19.479C84.8263 20.0077 84.419 20.428 83.899 20.74C83.379 21.052 82.781 21.208 82.105 21.208ZM82.105 19.921C82.469 19.921 82.807 19.8343 83.119 19.661C83.431 19.479 83.6823 19.2233 83.873 18.894C84.0723 18.556 84.172 18.153 84.172 17.685C84.172 17.217 84.0723 16.8183 83.873 16.489C83.6823 16.151 83.431 15.8953 83.119 15.722C82.807 15.54 82.469 15.449 82.105 15.449C81.741 15.449 81.3987 15.54 81.078 15.722C80.766 15.8953 80.5103 16.151 80.311 16.489C80.1203 16.8183 80.025 17.217 80.025 17.685C80.025 18.153 80.1203 18.556 80.311 18.894C80.5103 19.2233 80.766 19.479 81.078 19.661C81.3987 19.8343 81.741 19.921 82.105 19.921ZM89.6901 21.208C89.0921 21.208 88.5504 21.0607 88.0651 20.766C87.5884 20.4627 87.2071 20.0467 86.9211 19.518C86.6438 18.9807 86.5051 18.3697 86.5051 17.685C86.5051 17.0003 86.6438 16.3937 86.9211 15.865C87.2071 15.3363 87.5884 14.9203 88.0651 14.617C88.5504 14.3137 89.0921 14.162 89.6901 14.162C90.2014 14.162 90.6391 14.2747 91.0031 14.5C91.3758 14.7253 91.6488 14.981 91.8221 15.267H91.9001L91.8221 14.344V11.692H93.2131V21H91.9001V20.116H91.8221C91.6488 20.402 91.3758 20.6577 91.0031 20.883C90.6391 21.0997 90.2014 21.208 89.6901 21.208ZM89.8981 19.921C90.2448 19.921 90.5698 19.83 90.8731 19.648C91.1851 19.466 91.4321 19.2103 91.6141 18.881C91.8048 18.543 91.9001 18.1443 91.9001 17.685C91.9001 17.2257 91.8048 16.8313 91.6141 16.502C91.4321 16.164 91.1851 15.904 90.8731 15.722C90.5698 15.54 90.2448 15.449 89.8981 15.449C89.5514 15.449 89.2264 15.54 88.9231 15.722C88.6198 15.904 88.3728 16.164 88.1821 16.502C87.9914 16.8313 87.8961 17.2257 87.8961 17.685C87.8961 18.1443 87.9914 18.543 88.1821 18.881C88.3728 19.2103 88.6198 19.466 88.9231 19.648C89.2264 19.83 89.5514 19.921 89.8981 19.921ZM96.8834 21.208C96.4067 21.208 95.982 21.117 95.6094 20.935C95.2367 20.7443 94.9464 20.48 94.7384 20.142C94.5304 19.804 94.4264 19.4183 94.4264 18.985C94.4264 18.517 94.5477 18.1183 94.7904 17.789C95.0417 17.451 95.3754 17.1953 95.7914 17.022C96.2074 16.8487 96.6667 16.762 97.1694 16.762C97.5854 16.762 97.9494 16.801 98.2614 16.879C98.582 16.957 98.8247 17.0393 98.9894 17.126V16.775C98.9894 16.3417 98.8334 15.995 98.5214 15.735C98.2094 15.475 97.8064 15.345 97.3124 15.345C96.9744 15.345 96.6537 15.423 96.3504 15.579C96.047 15.7263 95.8044 15.93 95.6224 16.19L94.6604 15.449C94.9464 15.0503 95.3234 14.7383 95.7914 14.513C96.268 14.279 96.788 14.162 97.3514 14.162C98.3134 14.162 99.0544 14.4003 99.5744 14.877C100.094 15.345 100.354 16.0037 100.354 16.853V21H98.9894V20.181H98.9114C98.738 20.4497 98.478 20.688 98.1314 20.896C97.7847 21.104 97.3687 21.208 96.8834 21.208ZM97.1304 20.064C97.4944 20.064 97.815 19.9773 98.0924 19.804C98.3697 19.6307 98.5864 19.4053 98.7424 19.128C98.907 18.842 98.9894 18.5343 98.9894 18.205C98.79 18.0923 98.556 18.0013 98.2874 17.932C98.0187 17.854 97.7327 17.815 97.4294 17.815C96.8574 17.815 96.45 17.932 96.2074 18.166C95.9647 18.3913 95.8434 18.6687 95.8434 18.998C95.8434 19.31 95.9604 19.5657 96.1944 19.765C96.4284 19.9643 96.7404 20.064 97.1304 20.064ZM102.706 13.395C102.446 13.395 102.221 13.304 102.03 13.122C101.848 12.9313 101.757 12.706 101.757 12.446C101.757 12.186 101.848 11.965 102.03 11.783C102.221 11.601 102.446 11.51 102.706 11.51C102.966 11.51 103.187 11.601 103.369 11.783C103.56 11.965 103.655 12.186 103.655 12.446C103.655 12.706 103.56 12.9313 103.369 13.122C103.187 13.304 102.966 13.395 102.706 13.395ZM101.445 23.938C101.176 23.938 100.934 23.9077 100.717 23.847V22.495C100.804 22.547 100.903 22.586 101.016 22.612C101.12 22.6467 101.224 22.664 101.328 22.664C101.579 22.664 101.753 22.586 101.848 22.43C101.952 22.2827 102.004 22.066 102.004 21.78V14.37H103.408V21.793C103.408 22.5557 103.222 23.1017 102.849 23.431C102.476 23.769 102.008 23.938 101.445 23.938ZM111.018 21.208C110.42 21.208 109.879 21.0607 109.393 20.766C108.917 20.4627 108.535 20.0467 108.249 19.518C107.972 18.9807 107.833 18.3697 107.833 17.685C107.833 17.0003 107.972 16.3937 108.249 15.865C108.535 15.3363 108.917 14.9203 109.393 14.617C109.879 14.3137 110.42 14.162 111.018 14.162C111.53 14.162 111.967 14.2747 112.331 14.5C112.704 14.7253 112.977 14.981 113.15 15.267H113.228L113.15 14.344V11.692H114.541V21H113.228V20.116H113.15C112.977 20.402 112.704 20.6577 112.331 20.883C111.967 21.0997 111.53 21.208 111.018 21.208ZM111.226 19.921C111.573 19.921 111.898 19.83 112.201 19.648C112.513 19.466 112.76 19.2103 112.942 18.881C113.133 18.543 113.228 18.1443 113.228 17.685C113.228 17.2257 113.133 16.8313 112.942 16.502C112.76 16.164 112.513 15.904 112.201 15.722C111.898 15.54 111.573 15.449 111.226 15.449C110.88 15.449 110.555 15.54 110.251 15.722C109.948 15.904 109.701 16.164 109.51 16.502C109.32 16.8313 109.224 17.2257 109.224 17.685C109.224 18.1443 109.32 18.543 109.51 18.881C109.701 19.2103 109.948 19.466 110.251 19.648C110.555 19.83 110.88 19.921 111.226 19.921ZM119.252 21.208C118.567 21.208 117.965 21.052 117.445 20.74C116.925 20.428 116.517 20.0077 116.223 19.479C115.928 18.9503 115.781 18.3523 115.781 17.685C115.781 17.0263 115.928 16.4327 116.223 15.904C116.517 15.3667 116.925 14.942 117.445 14.63C117.965 14.318 118.567 14.162 119.252 14.162C119.928 14.162 120.526 14.318 121.046 14.63C121.566 14.942 121.973 15.3667 122.268 15.904C122.562 16.4327 122.71 17.0263 122.71 17.685C122.71 18.3523 122.562 18.9503 122.268 19.479C121.973 20.0077 121.566 20.428 121.046 20.74C120.526 21.052 119.928 21.208 119.252 21.208ZM119.252 19.921C119.616 19.921 119.954 19.8343 120.266 19.661C120.578 19.479 120.829 19.2233 121.02 18.894C121.219 18.556 121.319 18.153 121.319 17.685C121.319 17.217 121.219 16.8183 121.02 16.489C120.829 16.151 120.578 15.8953 120.266 15.722C119.954 15.54 119.616 15.449 119.252 15.449C118.888 15.449 118.545 15.54 118.225 15.722C117.913 15.8953 117.657 16.151 117.458 16.489C117.267 16.8183 117.172 17.217 117.172 17.685C117.172 18.153 117.267 18.556 117.458 18.894C117.657 19.2233 117.913 19.479 118.225 19.661C118.545 19.8343 118.888 19.921 119.252 19.921Z" fill="white"/>
<path d="M70.377 41V28.828H74.559C75.2957 28.828 75.9643 28.9867 76.565 29.304C77.1657 29.6213 77.6417 30.0577 77.993 30.613C78.3557 31.1683 78.537 31.8143 78.537 32.551C78.537 33.2877 78.3557 33.9393 77.993 34.506C77.6417 35.0613 77.1657 35.4977 76.565 35.815C75.9643 36.121 75.2957 36.274 74.559 36.274H72.247V41H70.377ZM74.61 30.596H72.247V34.506H74.61C75.052 34.506 75.426 34.4153 75.732 34.234C76.038 34.0413 76.2703 33.7977 76.429 33.503C76.599 33.197 76.684 32.8797 76.684 32.551C76.684 32.2223 76.599 31.9107 76.429 31.616C76.2703 31.3213 76.038 31.0777 75.732 30.885C75.426 30.6923 75.052 30.596 74.61 30.596ZM83.6305 41.272C82.7352 41.272 81.9475 41.068 81.2675 40.66C80.5875 40.252 80.0548 39.7023 79.6695 39.011C79.2842 38.3197 79.0915 37.5377 79.0915 36.665C79.0915 35.8037 79.2842 35.0273 79.6695 34.336C80.0548 33.6333 80.5875 33.078 81.2675 32.67C81.9475 32.262 82.7352 32.058 83.6305 32.058C84.5145 32.058 85.2965 32.262 85.9765 32.67C86.6565 33.078 87.1892 33.6333 87.5745 34.336C87.9598 35.0273 88.1525 35.8037 88.1525 36.665C88.1525 37.5377 87.9598 38.3197 87.5745 39.011C87.1892 39.7023 86.6565 40.252 85.9765 40.66C85.2965 41.068 84.5145 41.272 83.6305 41.272ZM83.6305 39.589C84.1065 39.589 84.5485 39.4757 84.9565 39.249C85.3645 39.011 85.6932 38.6767 85.9425 38.246C86.2032 37.804 86.3335 37.277 86.3335 36.665C86.3335 36.053 86.2032 35.5317 85.9425 35.101C85.6932 34.659 85.3645 34.3247 84.9565 34.098C84.5485 33.86 84.1065 33.741 83.6305 33.741C83.1545 33.741 82.7068 33.86 82.2875 34.098C81.8795 34.3247 81.5452 34.659 81.2845 35.101C81.0352 35.5317 80.9105 36.053 80.9105 36.665C80.9105 37.277 81.0352 37.804 81.2845 38.246C81.5452 38.6767 81.8795 39.011 82.2875 39.249C82.7068 39.4757 83.1545 39.589 83.6305 39.589ZM97.4804 38.484V33.928H95.9674V32.33H97.4804V29.882H99.3164V32.33H101.441V33.928H99.3164V38.093C99.3164 38.5237 99.4014 38.8523 99.5714 39.079C99.7528 39.3057 100.053 39.419 100.472 39.419C100.688 39.419 100.869 39.3907 101.016 39.334C101.175 39.2773 101.334 39.198 101.492 39.096V40.881C101.3 40.9603 101.096 41.0227 100.88 41.068C100.665 41.1133 100.416 41.136 100.132 41.136C99.3164 41.136 98.6704 40.9037 98.1944 40.439C97.7184 39.963 97.4804 39.3113 97.4804 38.484ZM89.6774 41V32.33H91.4114V33.605H91.5134C91.7401 33.129 92.0914 32.7607 92.5674 32.5C93.0434 32.228 93.5591 32.092 94.1144 32.092C94.4318 32.092 94.6698 32.1147 94.8284 32.16V33.996C94.5791 33.9167 94.2731 33.877 93.9104 33.877C93.1851 33.877 92.6014 34.1093 92.1594 34.574C91.7288 35.0387 91.5134 35.6677 91.5134 36.461V41H89.6774ZM104.376 41V33.928H102.795V32.33H104.376V31.616C104.376 31.004 104.507 30.4827 104.767 30.052C105.028 29.61 105.379 29.2757 105.821 29.049C106.275 28.811 106.785 28.692 107.351 28.692C107.657 28.692 107.918 28.7147 108.133 28.76C108.36 28.794 108.547 28.8393 108.694 28.896V30.681C108.547 30.6243 108.377 30.5677 108.184 30.511C108.003 30.443 107.776 30.409 107.504 30.409C107.153 30.409 106.847 30.528 106.586 30.766C106.326 30.9927 106.195 31.327 106.195 31.769V32.33H108.371V33.928H106.195V41H104.376ZM113.56 41.272C112.71 41.272 111.951 41.0737 111.282 40.677C110.614 40.2803 110.087 39.7363 109.701 39.045C109.327 38.3537 109.14 37.566 109.14 36.682C109.14 35.8547 109.322 35.0897 109.684 34.387C110.047 33.6843 110.551 33.1233 111.197 32.704C111.855 32.2733 112.608 32.058 113.458 32.058C114.354 32.058 115.113 32.2507 115.736 32.636C116.371 33.0213 116.853 33.5483 117.181 34.217C117.51 34.8857 117.674 35.6393 117.674 36.478C117.674 36.6027 117.669 36.716 117.657 36.818C117.657 36.92 117.652 36.9993 117.64 37.056H110.942C111.033 37.9173 111.333 38.5633 111.843 38.994C112.365 39.4247 112.954 39.64 113.611 39.64C114.201 39.64 114.688 39.5097 115.073 39.249C115.459 38.977 115.765 38.6427 115.991 38.246L117.504 38.977C117.13 39.657 116.62 40.2123 115.974 40.643C115.328 41.0623 114.524 41.272 113.56 41.272ZM113.475 33.622C112.863 33.622 112.342 33.809 111.911 34.183C111.481 34.557 111.192 35.0557 111.044 35.679H115.855C115.833 35.3843 115.736 35.0783 115.566 34.761C115.396 34.4437 115.136 34.1773 114.784 33.962C114.444 33.7353 114.008 33.622 113.475 33.622ZM119.395 41V28.828H121.231V41H119.395ZM126.032 41.272C125.409 41.272 124.854 41.153 124.366 40.915C123.879 40.6657 123.499 40.32 123.227 39.878C122.955 39.436 122.819 38.9317 122.819 38.365C122.819 37.753 122.978 37.2317 123.295 36.801C123.624 36.359 124.06 36.0247 124.604 35.798C125.148 35.5713 125.749 35.458 126.406 35.458C126.95 35.458 127.426 35.509 127.834 35.611C128.254 35.713 128.571 35.8207 128.786 35.934V35.475C128.786 34.9083 128.582 34.455 128.174 34.115C127.766 33.775 127.239 33.605 126.593 33.605C126.151 33.605 125.732 33.707 125.335 33.911C124.939 34.1037 124.621 34.37 124.383 34.71L123.125 33.741C123.499 33.2197 123.992 32.8117 124.604 32.517C125.228 32.211 125.908 32.058 126.644 32.058C127.902 32.058 128.871 32.3697 129.551 32.993C130.231 33.605 130.571 34.4663 130.571 35.577V41H128.786V39.929H128.684C128.458 40.2803 128.118 40.592 127.664 40.864C127.211 41.136 126.667 41.272 126.032 41.272ZM126.355 39.776C126.831 39.776 127.251 39.6627 127.613 39.436C127.976 39.2093 128.259 38.9147 128.463 38.552C128.679 38.178 128.786 37.7757 128.786 37.345C128.526 37.1977 128.22 37.0787 127.868 36.988C127.517 36.886 127.143 36.835 126.746 36.835C125.998 36.835 125.466 36.988 125.148 37.294C124.831 37.5887 124.672 37.9513 124.672 38.382C124.672 38.79 124.825 39.1243 125.131 39.385C125.437 39.6457 125.845 39.776 126.355 39.776ZM142.297 41.272C141.425 41.272 140.603 41.1133 139.832 40.796C139.073 40.4787 138.399 40.0367 137.809 39.47C137.22 38.892 136.755 38.2177 136.415 37.447C136.087 36.665 135.922 35.8207 135.922 34.914C135.922 34.0073 136.087 33.1687 136.415 32.398C136.755 31.616 137.214 30.9417 137.792 30.375C138.382 29.797 139.062 29.3493 139.832 29.032C140.603 28.7147 141.425 28.556 142.297 28.556C143.227 28.556 144.082 28.7203 144.864 29.049C145.658 29.3777 146.321 29.8367 146.853 30.426L145.561 31.701C145.165 31.259 144.689 30.919 144.133 30.681C143.589 30.443 142.977 30.324 142.297 30.324C141.493 30.324 140.75 30.5167 140.07 30.902C139.39 31.276 138.841 31.8087 138.421 32.5C138.013 33.18 137.809 33.9847 137.809 34.914C137.809 35.8433 138.019 36.6537 138.438 37.345C138.858 38.025 139.407 38.5577 140.087 38.943C140.767 39.317 141.51 39.504 142.314 39.504C143.051 39.504 143.72 39.368 144.32 39.096C144.921 38.8127 145.403 38.416 145.765 37.906C146.139 37.396 146.366 36.784 146.445 36.07H142.28V34.421H148.196C148.264 34.727 148.298 35.05 148.298 35.39V35.407C148.298 36.5857 148.038 37.617 147.516 38.501C147.006 39.3737 146.298 40.0537 145.391 40.541C144.485 41.0283 143.453 41.272 142.297 41.272ZM153.772 41.272C152.877 41.272 152.089 41.068 151.409 40.66C150.729 40.252 150.196 39.7023 149.811 39.011C149.426 38.3197 149.233 37.5377 149.233 36.665C149.233 35.8037 149.426 35.0273 149.811 34.336C150.196 33.6333 150.729 33.078 151.409 32.67C152.089 32.262 152.877 32.058 153.772 32.058C154.656 32.058 155.438 32.262 156.118 32.67C156.798 33.078 157.331 33.6333 157.716 34.336C158.101 35.0273 158.294 35.8037 158.294 36.665C158.294 37.5377 158.101 38.3197 157.716 39.011C157.331 39.7023 156.798 40.252 156.118 40.66C155.438 41.068 154.656 41.272 153.772 41.272ZM153.772 39.589C154.248 39.589 154.69 39.4757 155.098 39.249C155.506 39.011 155.835 38.6767 156.084 38.246C156.345 37.804 156.475 37.277 156.475 36.665C156.475 36.053 156.345 35.5317 156.084 35.101C155.835 34.659 155.506 34.3247 155.098 34.098C154.69 33.86 154.248 33.741 153.772 33.741C153.296 33.741 152.848 33.86 152.429 34.098C152.021 34.3247 151.687 34.659 151.426 35.101C151.177 35.5317 151.052 36.053 151.052 36.665C151.052 37.277 151.177 37.804 151.426 38.246C151.687 38.6767 152.021 39.011 152.429 39.249C152.848 39.4757 153.296 39.589 153.772 39.589ZM164.065 41.272C163.17 41.272 162.382 41.068 161.702 40.66C161.022 40.252 160.489 39.7023 160.104 39.011C159.719 38.3197 159.526 37.5377 159.526 36.665C159.526 35.8037 159.719 35.0273 160.104 34.336C160.489 33.6333 161.022 33.078 161.702 32.67C162.382 32.262 163.17 32.058 164.065 32.058C164.949 32.058 165.731 32.262 166.411 32.67C167.091 33.078 167.624 33.6333 168.009 34.336C168.394 35.0273 168.587 35.8037 168.587 36.665C168.587 37.5377 168.394 38.3197 168.009 39.011C167.624 39.7023 167.091 40.252 166.411 40.66C165.731 41.068 164.949 41.272 164.065 41.272ZM164.065 39.589C164.541 39.589 164.983 39.4757 165.391 39.249C165.799 39.011 166.128 38.6767 166.377 38.246C166.638 37.804 166.768 37.277 166.768 36.665C166.768 36.053 166.638 35.5317 166.377 35.101C166.128 34.659 165.799 34.3247 165.391 34.098C164.983 33.86 164.541 33.741 164.065 33.741C163.589 33.741 163.141 33.86 162.722 34.098C162.314 34.3247 161.98 34.659 161.719 35.101C161.47 35.5317 161.345 36.053 161.345 36.665C161.345 37.277 161.47 37.804 161.719 38.246C161.98 38.6767 162.314 39.011 162.722 39.249C163.141 39.4757 163.589 39.589 164.065 39.589ZM174.188 44.944C173.429 44.944 172.771 44.8193 172.216 44.57C171.672 44.332 171.23 44.0203 170.89 43.635C170.55 43.261 170.306 42.8757 170.159 42.479L171.859 41.765C172.04 42.2183 172.329 42.5867 172.726 42.87C173.134 43.1647 173.621 43.312 174.188 43.312C174.981 43.312 175.605 43.074 176.058 42.598C176.523 42.122 176.755 41.4477 176.755 40.575V39.742H176.653C176.381 40.15 176.001 40.4787 175.514 40.728C175.038 40.966 174.494 41.085 173.882 41.085C173.145 41.085 172.471 40.898 171.859 40.524C171.247 40.15 170.754 39.6287 170.38 38.96C170.006 38.28 169.819 37.4867 169.819 36.58C169.819 35.662 170.006 34.8687 170.38 34.2C170.754 33.52 171.247 32.993 171.859 32.619C172.471 32.245 173.145 32.058 173.882 32.058C174.494 32.058 175.038 32.1827 175.514 32.432C176.001 32.6813 176.381 33.01 176.653 33.418H176.755V32.33H178.506V40.541C178.506 41.4817 178.319 42.2807 177.945 42.938C177.582 43.5953 177.078 44.094 176.432 44.434C175.786 44.774 175.038 44.944 174.188 44.944ZM174.205 39.419C174.658 39.419 175.078 39.3113 175.463 39.096C175.848 38.8693 176.16 38.5463 176.398 38.127C176.636 37.6963 176.755 37.1807 176.755 36.58C176.755 35.9567 176.636 35.4353 176.398 35.016C176.16 34.5853 175.848 34.2623 175.463 34.047C175.078 33.8317 174.658 33.724 174.205 33.724C173.752 33.724 173.327 33.8373 172.93 34.064C172.545 34.2793 172.233 34.5967 171.995 35.016C171.757 35.4353 171.638 35.9567 171.638 36.58C171.638 37.192 171.757 37.7133 171.995 38.144C172.233 38.5633 172.545 38.8807 172.93 39.096C173.327 39.3113 173.752 39.419 174.205 39.419ZM180.671 41V28.828H182.507V41H180.671ZM188.55 41.272C187.7 41.272 186.94 41.0737 186.272 40.677C185.603 40.2803 185.076 39.7363 184.691 39.045C184.317 38.3537 184.13 37.566 184.13 36.682C184.13 35.8547 184.311 35.0897 184.674 34.387C185.036 33.6843 185.541 33.1233 186.187 32.704C186.844 32.2733 187.598 32.058 188.448 32.058C189.343 32.058 190.102 32.2507 190.726 32.636C191.36 33.0213 191.842 33.5483 192.171 34.217C192.499 34.8857 192.664 35.6393 192.664 36.478C192.664 36.6027 192.658 36.716 192.647 36.818C192.647 36.92 192.641 36.9993 192.63 37.056H185.932C186.022 37.9173 186.323 38.5633 186.833 38.994C187.354 39.4247 187.943 39.64 188.601 39.64C189.19 39.64 189.677 39.5097 190.063 39.249C190.448 38.977 190.754 38.6427 190.981 38.246L192.494 38.977C192.12 39.657 191.61 40.2123 190.964 40.643C190.318 41.0623 189.513 41.272 188.55 41.272ZM188.465 33.622C187.853 33.622 187.331 33.809 186.901 34.183C186.47 34.557 186.181 35.0557 186.034 35.679H190.845C190.822 35.3843 190.726 35.0783 190.556 34.761C190.386 34.4437 190.125 34.1773 189.774 33.962C189.434 33.7353 188.997 33.622 188.465 33.622Z" fill="white"/>
<rect x="0.5" y="0.5" width="212" height="53" rx="26.5" stroke="#747775"/>
<defs>
<linearGradient id="paint0_linear_1492_15257" x1="37.2843" y1="33.5448" x2="18.7823" y2="55.2227" gradientUnits="userSpaceOnUse">
<stop stop-color="#4285F4"/>
<stop offset="1" stop-color="#1B74E8"/>
</linearGradient>
</defs>
</svg>
