<svg width="199" height="54" viewBox="0 0 199 54" fill="none" xmlns="http://www.w3.org/2000/svg">
<rect x="0.5" y="0.5" width="198" height="53" rx="26.5" fill="#1F1F1F"/>
<path d="M57 23.291H21V17.6456C21 14.5809 23.6422 12.0001 26.7798 12.0001H51.2202C54.3578 12.0001 57 14.5809 57 17.6456V23.291Z" fill="#34A853"/>
<path d="M57 28.5H21V22.5C21 19.2429 23.6422 16.5 26.7798 16.5H51.2202C54.3578 16.5 57 19.2429 57 22.5V28.5Z" fill="#FBBC04"/>
<path d="M57 33.5H21V27.5C21 24.2429 23.6422 21.5 26.7798 21.5H51.2202C54.3578 21.5 57 24.2429 57 27.5V33.5Z" fill="#EA4335"/>
<path d="M21 24.7409L43.8493 29.9025C46.4795 30.5477 49.4384 29.9025 51.5753 28.2895L57 24.4183V36.5157C57 39.5804 54.3699 41.9999 51.2466 41.9999H26.7534C23.6301 41.9999 21 39.5804 21 36.5157V24.7409Z" fill="url(#paint0_linear_1492_15041)"/>
<path d="M71.951 21V13.044H69.338V11.692H75.968V13.044H73.368V21H71.951ZM79.1978 21.208C78.5131 21.208 77.9108 21.052 77.3908 20.74C76.8708 20.428 76.4635 20.0077 76.1688 19.479C75.8741 18.9503 75.7268 18.3523 75.7268 17.685C75.7268 17.0263 75.8741 16.4327 76.1688 15.904C76.4635 15.3667 76.8708 14.942 77.3908 14.63C77.9108 14.318 78.5131 14.162 79.1978 14.162C79.8738 14.162 80.4718 14.318 80.9918 14.63C81.5118 14.942 81.9191 15.3667 82.2138 15.904C82.5085 16.4327 82.6558 17.0263 82.6558 17.685C82.6558 18.3523 82.5085 18.9503 82.2138 19.479C81.9191 20.0077 81.5118 20.428 80.9918 20.74C80.4718 21.052 79.8738 21.208 79.1978 21.208ZM79.1978 19.921C79.5618 19.921 79.8998 19.8343 80.2118 19.661C80.5238 19.479 80.7751 19.2233 80.9658 18.894C81.1651 18.556 81.2648 18.153 81.2648 17.685C81.2648 17.217 81.1651 16.8183 80.9658 16.489C80.7751 16.151 80.5238 15.8953 80.2118 15.722C79.8998 15.54 79.5618 15.449 79.1978 15.449C78.8338 15.449 78.4915 15.54 78.1708 15.722C77.8588 15.8953 77.6031 16.151 77.4038 16.489C77.2131 16.8183 77.1178 17.217 77.1178 17.685C77.1178 18.153 77.2131 18.556 77.4038 18.894C77.6031 19.2233 77.8588 19.479 78.1708 19.661C78.4915 19.8343 78.8338 19.921 79.1978 19.921ZM86.9779 21.208C86.3279 21.208 85.7472 21.0563 85.2359 20.753C84.7245 20.4497 84.3215 20.0337 84.0269 19.505C83.7409 18.9763 83.5979 18.374 83.5979 17.698C83.5979 17.0653 83.7365 16.4803 84.0139 15.943C84.2912 15.4057 84.6769 14.9767 85.1709 14.656C85.6735 14.3267 86.2499 14.162 86.8999 14.162C87.5845 14.162 88.1652 14.3093 88.6419 14.604C89.1272 14.8987 89.4955 15.3017 89.7469 15.813C89.9982 16.3243 90.1239 16.9007 90.1239 17.542C90.1239 17.6373 90.1195 17.724 90.1109 17.802C90.1109 17.88 90.1065 17.9407 90.0979 17.984H84.9759C85.0452 18.6427 85.2749 19.1367 85.6649 19.466C86.0635 19.7953 86.5142 19.96 87.0169 19.96C87.4675 19.96 87.8402 19.8603 88.1349 19.661C88.4295 19.453 88.6635 19.1973 88.8369 18.894L89.9939 19.453C89.7079 19.973 89.3179 20.3977 88.8239 20.727C88.3299 21.0477 87.7145 21.208 86.9779 21.208ZM86.9129 15.358C86.4449 15.358 86.0462 15.501 85.7169 15.787C85.3875 16.073 85.1665 16.4543 85.0539 16.931H88.7329C88.7155 16.7057 88.6419 16.4717 88.5119 16.229C88.3819 15.9863 88.1825 15.7827 87.9139 15.618C87.6539 15.4447 87.3202 15.358 86.9129 15.358ZM93.3145 21L90.5715 14.37H92.1315L93.9905 19.193H94.0555L95.9535 14.37H97.4875L94.7185 21H93.3145ZM101.326 21.208C100.641 21.208 100.039 21.052 99.5187 20.74C98.9987 20.428 98.5914 20.0077 98.2967 19.479C98.0021 18.9503 97.8547 18.3523 97.8547 17.685C97.8547 17.0263 98.0021 16.4327 98.2967 15.904C98.5914 15.3667 98.9987 14.942 99.5187 14.63C100.039 14.318 100.641 14.162 101.326 14.162C102.002 14.162 102.6 14.318 103.12 14.63C103.64 14.942 104.047 15.3667 104.342 15.904C104.636 16.4327 104.784 17.0263 104.784 17.685C104.784 18.3523 104.636 18.9503 104.342 19.479C104.047 20.0077 103.64 20.428 103.12 20.74C102.6 21.052 102.002 21.208 101.326 21.208ZM101.326 19.921C101.69 19.921 102.028 19.8343 102.34 19.661C102.652 19.479 102.903 19.2233 103.094 18.894C103.293 18.556 103.393 18.153 103.393 17.685C103.393 17.217 103.293 16.8183 103.094 16.489C102.903 16.151 102.652 15.8953 102.34 15.722C102.028 15.54 101.69 15.449 101.326 15.449C100.962 15.449 100.619 15.54 100.299 15.722C99.9867 15.8953 99.7311 16.151 99.5317 16.489C99.3411 16.8183 99.2457 17.217 99.2457 17.685C99.2457 18.153 99.3411 18.556 99.5317 18.894C99.7311 19.2233 99.9867 19.479 100.299 19.661C100.619 19.8343 100.962 19.921 101.326 19.921ZM109.106 21.208C108.456 21.208 107.875 21.0563 107.364 20.753C106.852 20.4497 106.449 20.0337 106.155 19.505C105.869 18.9763 105.726 18.374 105.726 17.698C105.726 17.0653 105.864 16.4803 106.142 15.943C106.419 15.4057 106.805 14.9767 107.299 14.656C107.801 14.3267 108.378 14.162 109.028 14.162C109.712 14.162 110.293 14.3093 110.77 14.604C111.255 14.8987 111.623 15.3017 111.875 15.813C112.126 16.3243 112.252 16.9007 112.252 17.542C112.252 17.6373 112.247 17.724 112.239 17.802C112.239 17.88 112.234 17.9407 112.226 17.984H107.104C107.173 18.6427 107.403 19.1367 107.793 19.466C108.191 19.7953 108.642 19.96 109.145 19.96C109.595 19.96 109.968 19.8603 110.263 19.661C110.557 19.453 110.791 19.1973 110.965 18.894L112.122 19.453C111.836 19.973 111.446 20.3977 110.952 20.727C110.458 21.0477 109.842 21.208 109.106 21.208ZM109.041 15.358C108.573 15.358 108.174 15.501 107.845 15.787C107.515 16.073 107.294 16.4543 107.182 16.931H110.861C110.843 16.7057 110.77 16.4717 110.64 16.229C110.51 15.9863 110.31 15.7827 110.042 15.618C109.782 15.4447 109.448 15.358 109.041 15.358ZM116.608 24.016C116.027 24.016 115.524 23.9207 115.1 23.73C114.684 23.548 114.346 23.3097 114.086 23.015C113.826 22.729 113.639 22.4343 113.527 22.131L114.827 21.585C114.965 21.9317 115.186 22.2133 115.49 22.43C115.802 22.6553 116.174 22.768 116.608 22.768C117.214 22.768 117.691 22.586 118.038 22.222C118.393 21.858 118.571 21.3423 118.571 20.675V20.038H118.493C118.285 20.35 117.994 20.6013 117.622 20.792C117.258 20.974 116.842 21.065 116.374 21.065C115.81 21.065 115.295 20.922 114.827 20.636C114.359 20.35 113.982 19.9513 113.696 19.44C113.41 18.92 113.267 18.3133 113.267 17.62C113.267 16.918 113.41 16.3113 113.696 15.8C113.982 15.28 114.359 14.877 114.827 14.591C115.295 14.305 115.81 14.162 116.374 14.162C116.842 14.162 117.258 14.2573 117.622 14.448C117.994 14.6387 118.285 14.89 118.493 15.202H118.571V14.37H119.91V20.649C119.91 21.3683 119.767 21.9793 119.481 22.482C119.203 22.9847 118.818 23.366 118.324 23.626C117.83 23.886 117.258 24.016 116.608 24.016ZM116.621 19.791C116.967 19.791 117.288 19.7087 117.583 19.544C117.877 19.3707 118.116 19.1237 118.298 18.803C118.48 18.4737 118.571 18.0793 118.571 17.62C118.571 17.1433 118.48 16.7447 118.298 16.424C118.116 16.0947 117.877 15.8477 117.583 15.683C117.288 15.5183 116.967 15.436 116.621 15.436C116.274 15.436 115.949 15.5227 115.646 15.696C115.351 15.8607 115.113 16.1033 114.931 16.424C114.749 16.7447 114.658 17.1433 114.658 17.62C114.658 18.088 114.749 18.4867 114.931 18.816C115.113 19.1367 115.351 19.3793 115.646 19.544C115.949 19.7087 116.274 19.791 116.621 19.791ZM124.518 21.208C123.868 21.208 123.287 21.0563 122.776 20.753C122.265 20.4497 121.862 20.0337 121.567 19.505C121.281 18.9763 121.138 18.374 121.138 17.698C121.138 17.0653 121.277 16.4803 121.554 15.943C121.831 15.4057 122.217 14.9767 122.711 14.656C123.214 14.3267 123.79 14.162 124.44 14.162C125.125 14.162 125.705 14.3093 126.182 14.604C126.667 14.8987 127.036 15.3017 127.287 15.813C127.538 16.3243 127.664 16.9007 127.664 17.542C127.664 17.6373 127.66 17.724 127.651 17.802C127.651 17.88 127.647 17.9407 127.638 17.984H122.516C122.585 18.6427 122.815 19.1367 123.205 19.466C123.604 19.7953 124.054 19.96 124.557 19.96C125.008 19.96 125.38 19.8603 125.675 19.661C125.97 19.453 126.204 19.1973 126.377 18.894L127.534 19.453C127.248 19.973 126.858 20.3977 126.364 20.727C125.87 21.0477 125.255 21.208 124.518 21.208ZM124.453 15.358C123.985 15.358 123.586 15.501 123.257 15.787C122.928 16.073 122.707 16.4543 122.594 16.931H126.273C126.256 16.7057 126.182 16.4717 126.052 16.229C125.922 15.9863 125.723 15.7827 125.454 15.618C125.194 15.4447 124.86 15.358 124.453 15.358ZM128.966 21V14.37H130.292V15.28H130.37C130.561 14.9593 130.843 14.695 131.215 14.487C131.597 14.2703 132.013 14.162 132.463 14.162C133.278 14.162 133.889 14.4047 134.296 14.89C134.704 15.3753 134.907 16.0167 134.907 16.814V21H133.516V16.996C133.516 16.4587 133.382 16.0687 133.113 15.826C132.845 15.5747 132.494 15.449 132.06 15.449C131.722 15.449 131.428 15.5443 131.176 15.735C130.925 15.917 130.726 16.1597 130.578 16.463C130.44 16.7663 130.37 17.0913 130.37 17.438V21H128.966ZM141.622 21.208C141.145 21.208 140.72 21.117 140.348 20.935C139.975 20.7443 139.685 20.48 139.477 20.142C139.269 19.804 139.165 19.4183 139.165 18.985C139.165 18.517 139.286 18.1183 139.529 17.789C139.78 17.451 140.114 17.1953 140.53 17.022C140.946 16.8487 141.405 16.762 141.908 16.762C142.324 16.762 142.688 16.801 143 16.879C143.32 16.957 143.563 17.0393 143.728 17.126V16.775C143.728 16.3417 143.572 15.995 143.26 15.735C142.948 15.475 142.545 15.345 142.051 15.345C141.713 15.345 141.392 15.423 141.089 15.579C140.785 15.7263 140.543 15.93 140.361 16.19L139.399 15.449C139.685 15.0503 140.062 14.7383 140.53 14.513C141.006 14.279 141.526 14.162 142.09 14.162C143.052 14.162 143.793 14.4003 144.313 14.877C144.833 15.345 145.093 16.0037 145.093 16.853V21H143.728V20.181H143.65C143.476 20.4497 143.216 20.688 142.87 20.896C142.523 21.104 142.107 21.208 141.622 21.208ZM141.869 20.064C142.233 20.064 142.553 19.9773 142.831 19.804C143.108 19.6307 143.325 19.4053 143.481 19.128C143.645 18.842 143.728 18.5343 143.728 18.205C143.528 18.0923 143.294 18.0013 143.026 17.932C142.757 17.854 142.471 17.815 142.168 17.815C141.596 17.815 141.188 17.932 140.946 18.166C140.703 18.3913 140.582 18.6687 140.582 18.998C140.582 19.31 140.699 19.5657 140.933 19.765C141.167 19.9643 141.479 20.064 141.869 20.064ZM148.655 21.208C148.178 21.208 147.754 21.117 147.381 20.935C147.008 20.7443 146.718 20.48 146.51 20.142C146.302 19.804 146.198 19.4183 146.198 18.985C146.198 18.517 146.319 18.1183 146.562 17.789C146.813 17.451 147.147 17.1953 147.563 17.022C147.979 16.8487 148.438 16.762 148.941 16.762C149.357 16.762 149.721 16.801 150.033 16.879C150.354 16.957 150.596 17.0393 150.761 17.126V16.775C150.761 16.3417 150.605 15.995 150.293 15.735C149.981 15.475 149.578 15.345 149.084 15.345C148.746 15.345 148.425 15.423 148.122 15.579C147.819 15.7263 147.576 15.93 147.394 16.19L146.432 15.449C146.718 15.0503 147.095 14.7383 147.563 14.513C148.04 14.279 148.56 14.162 149.123 14.162C150.085 14.162 150.826 14.4003 151.346 14.877C151.866 15.345 152.126 16.0037 152.126 16.853V21H150.761V20.181H150.683C150.51 20.4497 150.25 20.688 149.903 20.896C149.556 21.104 149.14 21.208 148.655 21.208ZM148.902 20.064C149.266 20.064 149.587 19.9773 149.864 19.804C150.141 19.6307 150.358 19.4053 150.514 19.128C150.679 18.842 150.761 18.5343 150.761 18.205C150.562 18.0923 150.328 18.0013 150.059 17.932C149.79 17.854 149.504 17.815 149.201 17.815C148.629 17.815 148.222 17.932 147.979 18.166C147.736 18.3913 147.615 18.6687 147.615 18.998C147.615 19.31 147.732 19.5657 147.966 19.765C148.2 19.9643 148.512 20.064 148.902 20.064ZM153.672 21V14.37H154.998V15.28H155.076C155.266 14.9593 155.548 14.695 155.921 14.487C156.302 14.2703 156.718 14.162 157.169 14.162C157.983 14.162 158.594 14.4047 159.002 14.89C159.409 15.3753 159.613 16.0167 159.613 16.814V21H158.222V16.996C158.222 16.4587 158.087 16.0687 157.819 15.826C157.55 15.5747 157.199 15.449 156.766 15.449C156.428 15.449 156.133 15.5443 155.882 15.735C155.63 15.917 155.431 16.1597 155.284 16.463C155.145 16.7663 155.076 17.0913 155.076 17.438V21H153.672Z" fill="white"/>
<path d="M76.14 41.272C75.2673 41.272 74.4457 41.1133 73.675 40.796C72.9157 40.4787 72.2413 40.0367 71.652 39.47C71.0627 38.892 70.598 38.2177 70.258 37.447C69.9293 36.665 69.765 35.8207 69.765 34.914C69.765 34.0073 69.9293 33.1687 70.258 32.398C70.598 31.616 71.057 30.9417 71.635 30.375C72.2243 29.797 72.9043 29.3493 73.675 29.032C74.4457 28.7147 75.2673 28.556 76.14 28.556C77.0693 28.556 77.925 28.7203 78.707 29.049C79.5003 29.3777 80.1633 29.8367 80.696 30.426L79.404 31.701C79.0073 31.259 78.5313 30.919 77.976 30.681C77.432 30.443 76.82 30.324 76.14 30.324C75.3353 30.324 74.593 30.5167 73.913 30.902C73.233 31.276 72.6833 31.8087 72.264 32.5C71.856 33.18 71.652 33.9847 71.652 34.914C71.652 35.8433 71.8617 36.6537 72.281 37.345C72.7003 38.025 73.25 38.5577 73.93 38.943C74.61 39.317 75.3523 39.504 76.157 39.504C76.8937 39.504 77.5623 39.368 78.163 39.096C78.7637 38.8127 79.2453 38.416 79.608 37.906C79.982 37.396 80.2087 36.784 80.288 36.07H76.123V34.421H82.039C82.107 34.727 82.141 35.05 82.141 35.39V35.407C82.141 36.5857 81.8803 37.617 81.359 38.501C80.849 39.3737 80.1407 40.0537 79.234 40.541C78.3273 41.0283 77.296 41.272 76.14 41.272ZM87.6149 41.272C86.7195 41.272 85.9319 41.068 85.2519 40.66C84.5719 40.252 84.0392 39.7023 83.6539 39.011C83.2685 38.3197 83.0759 37.5377 83.0759 36.665C83.0759 35.8037 83.2685 35.0273 83.6539 34.336C84.0392 33.6333 84.5719 33.078 85.2519 32.67C85.9319 32.262 86.7195 32.058 87.6149 32.058C88.4989 32.058 89.2809 32.262 89.9609 32.67C90.6409 33.078 91.1735 33.6333 91.5589 34.336C91.9442 35.0273 92.1369 35.8037 92.1369 36.665C92.1369 37.5377 91.9442 38.3197 91.5589 39.011C91.1735 39.7023 90.6409 40.252 89.9609 40.66C89.2809 41.068 88.4989 41.272 87.6149 41.272ZM87.6149 39.589C88.0909 39.589 88.5329 39.4757 88.9409 39.249C89.3489 39.011 89.6775 38.6767 89.9269 38.246C90.1875 37.804 90.3179 37.277 90.3179 36.665C90.3179 36.053 90.1875 35.5317 89.9269 35.101C89.6775 34.659 89.3489 34.3247 88.9409 34.098C88.5329 33.86 88.0909 33.741 87.6149 33.741C87.1389 33.741 86.6912 33.86 86.2719 34.098C85.8639 34.3247 85.5295 34.659 85.2689 35.101C85.0195 35.5317 84.8949 36.053 84.8949 36.665C84.8949 37.277 85.0195 37.804 85.2689 38.246C85.5295 38.6767 85.8639 39.011 86.2719 39.249C86.6912 39.4757 87.1389 39.589 87.6149 39.589ZM97.9078 41.272C97.0125 41.272 96.2248 41.068 95.5448 40.66C94.8648 40.252 94.3322 39.7023 93.9468 39.011C93.5615 38.3197 93.3688 37.5377 93.3688 36.665C93.3688 35.8037 93.5615 35.0273 93.9468 34.336C94.3322 33.6333 94.8648 33.078 95.5448 32.67C96.2248 32.262 97.0125 32.058 97.9078 32.058C98.7918 32.058 99.5738 32.262 100.254 32.67C100.934 33.078 101.467 33.6333 101.852 34.336C102.237 35.0273 102.43 35.8037 102.43 36.665C102.43 37.5377 102.237 38.3197 101.852 39.011C101.467 39.7023 100.934 40.252 100.254 40.66C99.5738 41.068 98.7918 41.272 97.9078 41.272ZM97.9078 39.589C98.3838 39.589 98.8258 39.4757 99.2338 39.249C99.6418 39.011 99.9705 38.6767 100.22 38.246C100.481 37.804 100.611 37.277 100.611 36.665C100.611 36.053 100.481 35.5317 100.22 35.101C99.9705 34.659 99.6418 34.3247 99.2338 34.098C98.8258 33.86 98.3838 33.741 97.9078 33.741C97.4318 33.741 96.9842 33.86 96.5648 34.098C96.1568 34.3247 95.8225 34.659 95.5618 35.101C95.3125 35.5317 95.1878 36.053 95.1878 36.665C95.1878 37.277 95.3125 37.804 95.5618 38.246C95.8225 38.6767 96.1568 39.011 96.5648 39.249C96.9842 39.4757 97.4318 39.589 97.9078 39.589ZM108.031 44.944C107.271 44.944 106.614 44.8193 106.059 44.57C105.515 44.332 105.073 44.0203 104.733 43.635C104.393 43.261 104.149 42.8757 104.002 42.479L105.702 41.765C105.883 42.2183 106.172 42.5867 106.569 42.87C106.977 43.1647 107.464 43.312 108.031 43.312C108.824 43.312 109.447 43.074 109.901 42.598C110.365 42.122 110.598 41.4477 110.598 40.575V39.742H110.496C110.224 40.15 109.844 40.4787 109.357 40.728C108.881 40.966 108.337 41.085 107.725 41.085C106.988 41.085 106.314 40.898 105.702 40.524C105.09 40.15 104.597 39.6287 104.223 38.96C103.849 38.28 103.662 37.4867 103.662 36.58C103.662 35.662 103.849 34.8687 104.223 34.2C104.597 33.52 105.09 32.993 105.702 32.619C106.314 32.245 106.988 32.058 107.725 32.058C108.337 32.058 108.881 32.1827 109.357 32.432C109.844 32.6813 110.224 33.01 110.496 33.418H110.598V32.33H112.349V40.541C112.349 41.4817 112.162 42.2807 111.788 42.938C111.425 43.5953 110.921 44.094 110.275 44.434C109.629 44.774 108.881 44.944 108.031 44.944ZM108.048 39.419C108.501 39.419 108.92 39.3113 109.306 39.096C109.691 38.8693 110.003 38.5463 110.241 38.127C110.479 37.6963 110.598 37.1807 110.598 36.58C110.598 35.9567 110.479 35.4353 110.241 35.016C110.003 34.5853 109.691 34.2623 109.306 34.047C108.92 33.8317 108.501 33.724 108.048 33.724C107.594 33.724 107.169 33.8373 106.773 34.064C106.387 34.2793 106.076 34.5967 105.838 35.016C105.6 35.4353 105.481 35.9567 105.481 36.58C105.481 37.192 105.6 37.7133 105.838 38.144C106.076 38.5633 106.387 38.8807 106.773 39.096C107.169 39.3113 107.594 39.419 108.048 39.419ZM114.514 41V28.828H116.35V41H114.514ZM122.392 41.272C121.542 41.272 120.783 41.0737 120.114 40.677C119.446 40.2803 118.919 39.7363 118.533 39.045C118.159 38.3537 117.972 37.566 117.972 36.682C117.972 35.8547 118.154 35.0897 118.516 34.387C118.879 33.6843 119.383 33.1233 120.029 32.704C120.687 32.2733 121.44 32.058 122.29 32.058C123.186 32.058 123.945 32.2507 124.568 32.636C125.203 33.0213 125.685 33.5483 126.013 34.217C126.342 34.8857 126.506 35.6393 126.506 36.478C126.506 36.6027 126.501 36.716 126.489 36.818C126.489 36.92 126.484 36.9993 126.472 37.056H119.774C119.865 37.9173 120.165 38.5633 120.675 38.994C121.197 39.4247 121.786 39.64 122.443 39.64C123.033 39.64 123.52 39.5097 123.905 39.249C124.291 38.977 124.597 38.6427 124.823 38.246L126.336 38.977C125.962 39.657 125.452 40.2123 124.806 40.643C124.16 41.0623 123.356 41.272 122.392 41.272ZM122.307 33.622C121.695 33.622 121.174 33.809 120.743 34.183C120.313 34.557 120.024 35.0557 119.876 35.679H124.687C124.665 35.3843 124.568 35.0783 124.398 34.761C124.228 34.4437 123.968 34.1773 123.616 33.962C123.276 33.7353 122.84 33.622 122.307 33.622ZM133.979 41L130.715 28.828H132.789L134.727 36.733L134.931 37.787H135.033L135.288 36.733L137.736 28.828H139.606L141.952 36.733L142.207 37.77H142.309L142.513 36.733L144.451 28.828H146.508L143.295 41H141.323L138.994 32.925L138.722 31.786H138.62L138.331 32.925L135.9 41H133.979ZM149.922 41.272C149.299 41.272 148.743 41.153 148.256 40.915C147.769 40.6657 147.389 40.32 147.117 39.878C146.845 39.436 146.709 38.9317 146.709 38.365C146.709 37.753 146.868 37.2317 147.185 36.801C147.514 36.359 147.95 36.0247 148.494 35.798C149.038 35.5713 149.639 35.458 150.296 35.458C150.84 35.458 151.316 35.509 151.724 35.611C152.143 35.713 152.461 35.8207 152.676 35.934V35.475C152.676 34.9083 152.472 34.455 152.064 34.115C151.656 33.775 151.129 33.605 150.483 33.605C150.041 33.605 149.622 33.707 149.225 33.911C148.828 34.1037 148.511 34.37 148.273 34.71L147.015 33.741C147.389 33.2197 147.882 32.8117 148.494 32.517C149.117 32.211 149.797 32.058 150.534 32.058C151.792 32.058 152.761 32.3697 153.441 32.993C154.121 33.605 154.461 34.4663 154.461 35.577V41H152.676V39.929H152.574C152.347 40.2803 152.007 40.592 151.554 40.864C151.101 41.136 150.557 41.272 149.922 41.272ZM150.245 39.776C150.721 39.776 151.14 39.6627 151.503 39.436C151.866 39.2093 152.149 38.9147 152.353 38.552C152.568 38.178 152.676 37.7757 152.676 37.345C152.415 37.1977 152.109 37.0787 151.758 36.988C151.407 36.886 151.033 36.835 150.636 36.835C149.888 36.835 149.355 36.988 149.038 37.294C148.721 37.5887 148.562 37.9513 148.562 38.382C148.562 38.79 148.715 39.1243 149.021 39.385C149.327 39.6457 149.735 39.776 150.245 39.776ZM156.499 41V28.828H158.335V41H156.499ZM160.517 41V28.828H162.353V41H160.517ZM168.395 41.272C167.545 41.272 166.786 41.0737 166.117 40.677C165.449 40.2803 164.922 39.7363 164.536 39.045C164.162 38.3537 163.975 37.566 163.975 36.682C163.975 35.8547 164.157 35.0897 164.519 34.387C164.882 33.6843 165.386 33.1233 166.032 32.704C166.69 32.2733 167.443 32.058 168.293 32.058C169.189 32.058 169.948 32.2507 170.571 32.636C171.206 33.0213 171.688 33.5483 172.016 34.217C172.345 34.8857 172.509 35.6393 172.509 36.478C172.509 36.6027 172.504 36.716 172.492 36.818C172.492 36.92 172.487 36.9993 172.475 37.056H165.777C165.868 37.9173 166.168 38.5633 166.678 38.994C167.2 39.4247 167.789 39.64 168.446 39.64C169.036 39.64 169.523 39.5097 169.908 39.249C170.294 38.977 170.6 38.6427 170.826 38.246L172.339 38.977C171.965 39.657 171.455 40.2123 170.809 40.643C170.163 41.0623 169.359 41.272 168.395 41.272ZM168.31 33.622C167.698 33.622 167.177 33.809 166.746 34.183C166.316 34.557 166.027 35.0557 165.879 35.679H170.69C170.668 35.3843 170.571 35.0783 170.401 34.761C170.231 34.4437 169.971 34.1773 169.619 33.962C169.279 33.7353 168.843 33.622 168.31 33.622ZM174.882 38.484V33.928H173.369V32.33H174.882V29.882H176.718V32.33H178.843V33.928H176.718V38.093C176.718 38.5237 176.803 38.8523 176.973 39.079C177.154 39.3057 177.454 39.419 177.874 39.419C178.089 39.419 178.27 39.3907 178.418 39.334C178.576 39.2773 178.735 39.198 178.894 39.096V40.881C178.701 40.9603 178.497 41.0227 178.282 41.068C178.066 41.1133 177.811 41.136 177.517 41.136C176.712 41.136 176.072 40.9037 175.596 40.439C175.12 39.963 174.882 39.3113 174.882 38.484Z" fill="white"/>
<rect x="0.5" y="0.5" width="198" height="53" rx="26.5" stroke="#747775"/>
<defs>
<linearGradient id="paint0_linear_1492_15041" x1="37.2843" y1="33.5448" x2="18.7823" y2="55.2227" gradientUnits="userSpaceOnUse">
<stop stop-color="#4285F4"/>
<stop offset="1" stop-color="#1B74E8"/>
</linearGradient>
</defs>
</svg>
