<svg width="199" height="54" viewBox="0 0 199 54" fill="none" xmlns="http://www.w3.org/2000/svg">
<rect x="0.5" y="0.5" width="198" height="53" rx="26.5" fill="#1F1F1F"/>
<path d="M57 23.291H21V17.6456C21 14.5809 23.6422 12.0001 26.7798 12.0001H51.2202C54.3578 12.0001 57 14.5809 57 17.6456V23.291Z" fill="#34A853"/>
<path d="M57 28.5H21V22.5C21 19.2429 23.6422 16.5 26.7798 16.5H51.2202C54.3578 16.5 57 19.2429 57 22.5V28.5Z" fill="#FBBC04"/>
<path d="M57 33.5H21V27.5C21 24.2429 23.6422 21.5 26.7798 21.5H51.2202C54.3578 21.5 57 24.2429 57 27.5V33.5Z" fill="#EA4335"/>
<path d="M21 24.7409L43.8493 29.9025C46.4795 30.5477 49.4384 29.9025 51.5753 28.2895L57 24.4183V36.5157C57 39.5804 54.3699 41.9999 51.2466 41.9999H26.7534C23.6301 41.9999 21 39.5804 21 36.5157V24.7409Z" fill="url(#paint0_linear_1492_15167)"/>
<path d="M71.964 21L74.343 14.435H69.637V10.73H71.184V13.044H75.955V14.435L73.602 21H71.964ZM77.2046 21V19.154C77.2046 18.3653 77.378 17.7153 77.7246 17.204C78.08 16.6927 78.6 16.3113 79.2846 16.06L77.0356 13.122V13.044H78.7776L81.5336 16.762C81.993 16.5887 82.3223 16.3503 82.5216 16.047C82.721 15.735 82.8206 15.28 82.8206 14.682V13.044H84.3676V14.708C84.3676 15.5833 84.1856 16.2507 83.8216 16.71C83.4576 17.1607 82.9636 17.5073 82.3396 17.75L84.7316 20.922V21H82.9896L80.1166 17.061C79.588 17.2257 79.2283 17.477 79.0376 17.815C78.847 18.1443 78.7516 18.5733 78.7516 19.102V21H77.2046ZM94.7842 21V16.71C94.7842 16.1467 94.7105 15.7003 94.5632 15.371C94.4245 15.033 94.1948 14.7947 93.8742 14.656C93.5535 14.5087 93.1158 14.435 92.5612 14.435H89.2332V13.044H92.5612C93.8872 13.044 94.8448 13.3517 95.4342 13.967C96.0235 14.5823 96.3182 15.4967 96.3182 16.71V21H94.7842ZM89.2332 21V16.606H90.7802V21H89.2332ZM98.3799 21V19.609H100.759C101.669 19.609 102.367 19.3663 102.852 18.881C103.346 18.3957 103.593 17.7457 103.593 16.931C103.593 16.3763 103.485 15.8953 103.268 15.488C103.06 15.072 102.77 14.7557 102.397 14.539C102.033 14.3137 101.608 14.201 101.123 14.201C100.794 14.201 100.508 14.24 100.265 14.318C100.031 14.3873 99.8359 14.4827 99.6799 14.604C99.5326 14.734 99.4199 14.8813 99.3419 15.046C99.2726 15.2107 99.2379 15.3797 99.2379 15.553C99.2379 15.9083 99.3506 16.1857 99.5759 16.385C99.8012 16.5843 100.126 16.684 100.551 16.684H100.954V17.971H100.512C99.6019 17.971 98.9086 17.75 98.4319 17.308C97.9552 16.866 97.7169 16.2853 97.7169 15.566C97.7169 15.1587 97.7992 14.7903 97.9639 14.461C98.1286 14.123 98.3626 13.8327 98.6659 13.59C98.9606 13.3473 99.3159 13.161 99.7319 13.031C100.157 12.8923 100.62 12.823 101.123 12.823C101.92 12.823 102.614 13.005 103.203 13.369C103.801 13.7243 104.265 14.214 104.594 14.838C104.923 15.4533 105.088 16.151 105.088 16.931C105.088 17.7023 104.915 18.3957 104.568 19.011C104.221 19.6263 103.723 20.1117 103.073 20.467C102.432 20.8223 101.66 21 100.759 21H98.3799ZM110.317 21.208C109.719 21.208 109.169 21.0997 108.666 20.883C108.163 20.6663 107.726 20.3673 107.353 19.986C106.98 19.596 106.69 19.1497 106.482 18.647C106.274 18.1357 106.17 17.5897 106.17 17.009C106.17 16.4543 106.27 15.9213 106.469 15.41C106.668 14.89 106.963 14.435 107.353 14.045C107.726 13.6637 108.163 13.3647 108.666 13.148C109.169 12.9313 109.719 12.823 110.317 12.823C110.915 12.823 111.465 12.9313 111.968 13.148C112.479 13.3647 112.921 13.6637 113.294 14.045C113.675 14.4263 113.97 14.8727 114.178 15.384C114.386 15.8867 114.49 16.4283 114.49 17.009C114.49 17.5897 114.386 18.1357 114.178 18.647C113.97 19.1497 113.675 19.596 113.294 19.986C112.921 20.3673 112.479 20.6663 111.968 20.883C111.465 21.0997 110.915 21.208 110.317 21.208ZM110.317 19.817C110.811 19.817 111.257 19.7 111.656 19.466C112.063 19.2233 112.384 18.8897 112.618 18.465C112.861 18.0403 112.982 17.555 112.982 17.009C112.982 16.463 112.861 15.982 112.618 15.566C112.384 15.1413 112.063 14.812 111.656 14.578C111.257 14.3353 110.811 14.214 110.317 14.214C109.944 14.214 109.598 14.2833 109.277 14.422C108.956 14.552 108.675 14.7427 108.432 14.994C108.181 15.254 107.99 15.5617 107.86 15.917C107.73 16.2637 107.665 16.6277 107.665 17.009C107.665 17.555 107.782 18.0403 108.016 18.465C108.259 18.8897 108.579 19.2233 108.978 19.466C109.377 19.7 109.823 19.817 110.317 19.817ZM115.971 21V13.044H117.518V21H115.971ZM125.037 21V16.71C125.037 16.1467 124.963 15.7003 124.816 15.371C124.677 15.033 124.448 14.7947 124.127 14.656C123.806 14.5087 123.369 14.435 122.814 14.435H119.486V13.044H122.814C124.14 13.044 125.098 13.3517 125.687 13.967C126.276 14.5823 126.571 15.4967 126.571 16.71V21H125.037ZM119.486 21V16.606H121.033V21H119.486Z" fill="white"/>
<path d="M76.14 41.272C75.2673 41.272 74.4457 41.1133 73.675 40.796C72.9157 40.4787 72.2413 40.0367 71.652 39.47C71.0627 38.892 70.598 38.2177 70.258 37.447C69.9293 36.665 69.765 35.8207 69.765 34.914C69.765 34.0073 69.9293 33.1687 70.258 32.398C70.598 31.616 71.057 30.9417 71.635 30.375C72.2243 29.797 72.9043 29.3493 73.675 29.032C74.4457 28.7147 75.2673 28.556 76.14 28.556C77.0693 28.556 77.925 28.7203 78.707 29.049C79.5003 29.3777 80.1633 29.8367 80.696 30.426L79.404 31.701C79.0073 31.259 78.5313 30.919 77.976 30.681C77.432 30.443 76.82 30.324 76.14 30.324C75.3353 30.324 74.593 30.5167 73.913 30.902C73.233 31.276 72.6833 31.8087 72.264 32.5C71.856 33.18 71.652 33.9847 71.652 34.914C71.652 35.8433 71.8617 36.6537 72.281 37.345C72.7003 38.025 73.25 38.5577 73.93 38.943C74.61 39.317 75.3523 39.504 76.157 39.504C76.8937 39.504 77.5623 39.368 78.163 39.096C78.7637 38.8127 79.2453 38.416 79.608 37.906C79.982 37.396 80.2087 36.784 80.288 36.07H76.123V34.421H82.039C82.107 34.727 82.141 35.05 82.141 35.39V35.407C82.141 36.5857 81.8803 37.617 81.359 38.501C80.849 39.3737 80.1407 40.0537 79.234 40.541C78.3273 41.0283 77.296 41.272 76.14 41.272ZM87.6149 41.272C86.7195 41.272 85.9319 41.068 85.2519 40.66C84.5719 40.252 84.0392 39.7023 83.6539 39.011C83.2685 38.3197 83.0759 37.5377 83.0759 36.665C83.0759 35.8037 83.2685 35.0273 83.6539 34.336C84.0392 33.6333 84.5719 33.078 85.2519 32.67C85.9319 32.262 86.7195 32.058 87.6149 32.058C88.4989 32.058 89.2809 32.262 89.9609 32.67C90.6409 33.078 91.1735 33.6333 91.5589 34.336C91.9442 35.0273 92.1369 35.8037 92.1369 36.665C92.1369 37.5377 91.9442 38.3197 91.5589 39.011C91.1735 39.7023 90.6409 40.252 89.9609 40.66C89.2809 41.068 88.4989 41.272 87.6149 41.272ZM87.6149 39.589C88.0909 39.589 88.5329 39.4757 88.9409 39.249C89.3489 39.011 89.6775 38.6767 89.9269 38.246C90.1875 37.804 90.3179 37.277 90.3179 36.665C90.3179 36.053 90.1875 35.5317 89.9269 35.101C89.6775 34.659 89.3489 34.3247 88.9409 34.098C88.5329 33.86 88.0909 33.741 87.6149 33.741C87.1389 33.741 86.6912 33.86 86.2719 34.098C85.8639 34.3247 85.5295 34.659 85.2689 35.101C85.0195 35.5317 84.8949 36.053 84.8949 36.665C84.8949 37.277 85.0195 37.804 85.2689 38.246C85.5295 38.6767 85.8639 39.011 86.2719 39.249C86.6912 39.4757 87.1389 39.589 87.6149 39.589ZM97.9078 41.272C97.0125 41.272 96.2248 41.068 95.5448 40.66C94.8648 40.252 94.3322 39.7023 93.9468 39.011C93.5615 38.3197 93.3688 37.5377 93.3688 36.665C93.3688 35.8037 93.5615 35.0273 93.9468 34.336C94.3322 33.6333 94.8648 33.078 95.5448 32.67C96.2248 32.262 97.0125 32.058 97.9078 32.058C98.7918 32.058 99.5738 32.262 100.254 32.67C100.934 33.078 101.467 33.6333 101.852 34.336C102.237 35.0273 102.43 35.8037 102.43 36.665C102.43 37.5377 102.237 38.3197 101.852 39.011C101.467 39.7023 100.934 40.252 100.254 40.66C99.5738 41.068 98.7918 41.272 97.9078 41.272ZM97.9078 39.589C98.3838 39.589 98.8258 39.4757 99.2338 39.249C99.6418 39.011 99.9705 38.6767 100.22 38.246C100.481 37.804 100.611 37.277 100.611 36.665C100.611 36.053 100.481 35.5317 100.22 35.101C99.9705 34.659 99.6418 34.3247 99.2338 34.098C98.8258 33.86 98.3838 33.741 97.9078 33.741C97.4318 33.741 96.9842 33.86 96.5648 34.098C96.1568 34.3247 95.8225 34.659 95.5618 35.101C95.3125 35.5317 95.1878 36.053 95.1878 36.665C95.1878 37.277 95.3125 37.804 95.5618 38.246C95.8225 38.6767 96.1568 39.011 96.5648 39.249C96.9842 39.4757 97.4318 39.589 97.9078 39.589ZM108.031 44.944C107.271 44.944 106.614 44.8193 106.059 44.57C105.515 44.332 105.073 44.0203 104.733 43.635C104.393 43.261 104.149 42.8757 104.002 42.479L105.702 41.765C105.883 42.2183 106.172 42.5867 106.569 42.87C106.977 43.1647 107.464 43.312 108.031 43.312C108.824 43.312 109.447 43.074 109.901 42.598C110.365 42.122 110.598 41.4477 110.598 40.575V39.742H110.496C110.224 40.15 109.844 40.4787 109.357 40.728C108.881 40.966 108.337 41.085 107.725 41.085C106.988 41.085 106.314 40.898 105.702 40.524C105.09 40.15 104.597 39.6287 104.223 38.96C103.849 38.28 103.662 37.4867 103.662 36.58C103.662 35.662 103.849 34.8687 104.223 34.2C104.597 33.52 105.09 32.993 105.702 32.619C106.314 32.245 106.988 32.058 107.725 32.058C108.337 32.058 108.881 32.1827 109.357 32.432C109.844 32.6813 110.224 33.01 110.496 33.418H110.598V32.33H112.349V40.541C112.349 41.4817 112.162 42.2807 111.788 42.938C111.425 43.5953 110.921 44.094 110.275 44.434C109.629 44.774 108.881 44.944 108.031 44.944ZM108.048 39.419C108.501 39.419 108.92 39.3113 109.306 39.096C109.691 38.8693 110.003 38.5463 110.241 38.127C110.479 37.6963 110.598 37.1807 110.598 36.58C110.598 35.9567 110.479 35.4353 110.241 35.016C110.003 34.5853 109.691 34.2623 109.306 34.047C108.92 33.8317 108.501 33.724 108.048 33.724C107.594 33.724 107.169 33.8373 106.773 34.064C106.387 34.2793 106.076 34.5967 105.838 35.016C105.6 35.4353 105.481 35.9567 105.481 36.58C105.481 37.192 105.6 37.7133 105.838 38.144C106.076 38.5633 106.387 38.8807 106.773 39.096C107.169 39.3113 107.594 39.419 108.048 39.419ZM114.514 41V28.828H116.35V41H114.514ZM122.392 41.272C121.542 41.272 120.783 41.0737 120.114 40.677C119.446 40.2803 118.919 39.7363 118.533 39.045C118.159 38.3537 117.972 37.566 117.972 36.682C117.972 35.8547 118.154 35.0897 118.516 34.387C118.879 33.6843 119.383 33.1233 120.029 32.704C120.687 32.2733 121.44 32.058 122.29 32.058C123.186 32.058 123.945 32.2507 124.568 32.636C125.203 33.0213 125.685 33.5483 126.013 34.217C126.342 34.8857 126.506 35.6393 126.506 36.478C126.506 36.6027 126.501 36.716 126.489 36.818C126.489 36.92 126.484 36.9993 126.472 37.056H119.774C119.865 37.9173 120.165 38.5633 120.675 38.994C121.197 39.4247 121.786 39.64 122.443 39.64C123.033 39.64 123.52 39.5097 123.905 39.249C124.291 38.977 124.597 38.6427 124.823 38.246L126.336 38.977C125.962 39.657 125.452 40.2123 124.806 40.643C124.16 41.0623 123.356 41.272 122.392 41.272ZM122.307 33.622C121.695 33.622 121.174 33.809 120.743 34.183C120.313 34.557 120.024 35.0557 119.876 35.679H124.687C124.665 35.3843 124.568 35.0783 124.398 34.761C124.228 34.4437 123.968 34.1773 123.616 33.962C123.276 33.7353 122.84 33.622 122.307 33.622ZM133.979 41L130.715 28.828H132.789L134.727 36.733L134.931 37.787H135.033L135.288 36.733L137.736 28.828H139.606L141.952 36.733L142.207 37.77H142.309L142.513 36.733L144.451 28.828H146.508L143.295 41H141.323L138.994 32.925L138.722 31.786H138.62L138.331 32.925L135.9 41H133.979ZM149.922 41.272C149.299 41.272 148.743 41.153 148.256 40.915C147.769 40.6657 147.389 40.32 147.117 39.878C146.845 39.436 146.709 38.9317 146.709 38.365C146.709 37.753 146.868 37.2317 147.185 36.801C147.514 36.359 147.95 36.0247 148.494 35.798C149.038 35.5713 149.639 35.458 150.296 35.458C150.84 35.458 151.316 35.509 151.724 35.611C152.143 35.713 152.461 35.8207 152.676 35.934V35.475C152.676 34.9083 152.472 34.455 152.064 34.115C151.656 33.775 151.129 33.605 150.483 33.605C150.041 33.605 149.622 33.707 149.225 33.911C148.828 34.1037 148.511 34.37 148.273 34.71L147.015 33.741C147.389 33.2197 147.882 32.8117 148.494 32.517C149.117 32.211 149.797 32.058 150.534 32.058C151.792 32.058 152.761 32.3697 153.441 32.993C154.121 33.605 154.461 34.4663 154.461 35.577V41H152.676V39.929H152.574C152.347 40.2803 152.007 40.592 151.554 40.864C151.101 41.136 150.557 41.272 149.922 41.272ZM150.245 39.776C150.721 39.776 151.14 39.6627 151.503 39.436C151.866 39.2093 152.149 38.9147 152.353 38.552C152.568 38.178 152.676 37.7757 152.676 37.345C152.415 37.1977 152.109 37.0787 151.758 36.988C151.407 36.886 151.033 36.835 150.636 36.835C149.888 36.835 149.355 36.988 149.038 37.294C148.721 37.5887 148.562 37.9513 148.562 38.382C148.562 38.79 148.715 39.1243 149.021 39.385C149.327 39.6457 149.735 39.776 150.245 39.776ZM156.499 41V28.828H158.335V41H156.499ZM160.517 41V28.828H162.353V41H160.517ZM168.395 41.272C167.545 41.272 166.786 41.0737 166.117 40.677C165.449 40.2803 164.922 39.7363 164.536 39.045C164.162 38.3537 163.975 37.566 163.975 36.682C163.975 35.8547 164.157 35.0897 164.519 34.387C164.882 33.6843 165.386 33.1233 166.032 32.704C166.69 32.2733 167.443 32.058 168.293 32.058C169.189 32.058 169.948 32.2507 170.571 32.636C171.206 33.0213 171.688 33.5483 172.016 34.217C172.345 34.8857 172.509 35.6393 172.509 36.478C172.509 36.6027 172.504 36.716 172.492 36.818C172.492 36.92 172.487 36.9993 172.475 37.056H165.777C165.868 37.9173 166.168 38.5633 166.678 38.994C167.2 39.4247 167.789 39.64 168.446 39.64C169.036 39.64 169.523 39.5097 169.908 39.249C170.294 38.977 170.6 38.6427 170.826 38.246L172.339 38.977C171.965 39.657 171.455 40.2123 170.809 40.643C170.163 41.0623 169.359 41.272 168.395 41.272ZM168.31 33.622C167.698 33.622 167.177 33.809 166.746 34.183C166.316 34.557 166.027 35.0557 165.879 35.679H170.69C170.668 35.3843 170.571 35.0783 170.401 34.761C170.231 34.4437 169.971 34.1773 169.619 33.962C169.279 33.7353 168.843 33.622 168.31 33.622ZM174.882 38.484V33.928H173.369V32.33H174.882V29.882H176.718V32.33H178.843V33.928H176.718V38.093C176.718 38.5237 176.803 38.8523 176.973 39.079C177.154 39.3057 177.454 39.419 177.874 39.419C178.089 39.419 178.27 39.3907 178.418 39.334C178.576 39.2773 178.735 39.198 178.894 39.096V40.881C178.701 40.9603 178.497 41.0227 178.282 41.068C178.066 41.1133 177.811 41.136 177.517 41.136C176.712 41.136 176.072 40.9037 175.596 40.439C175.12 39.963 174.882 39.3113 174.882 38.484Z" fill="white"/>
<rect x="0.5" y="0.5" width="198" height="53" rx="26.5" stroke="#747775"/>
<defs>
<linearGradient id="paint0_linear_1492_15167" x1="37.2843" y1="33.5448" x2="18.7823" y2="55.2227" gradientUnits="userSpaceOnUse">
<stop stop-color="#4285F4"/>
<stop offset="1" stop-color="#1B74E8"/>
</linearGradient>
</defs>
</svg>
