<svg width="235" height="54" viewBox="0 0 235 54" fill="none" xmlns="http://www.w3.org/2000/svg">
<rect x="0.5" y="0.5" width="234" height="53" rx="26.5" fill="#1F1F1F"/>
<path d="M57 23.291H21V17.6456C21 14.5809 23.6422 12.0001 26.7798 12.0001H51.2202C54.3578 12.0001 57 14.5809 57 17.6456V23.291Z" fill="#34A853"/>
<path d="M57 28.5H21V22.5C21 19.2429 23.6422 16.5 26.7798 16.5H51.2202C54.3578 16.5 57 19.2429 57 22.5V28.5Z" fill="#FBBC04"/>
<path d="M57 33.5H21V27.5C21 24.2429 23.6422 21.5 26.7798 21.5H51.2202C54.3578 21.5 57 24.2429 57 27.5V33.5Z" fill="#EA4335"/>
<path d="M21 24.7409L43.8493 29.9025C46.4795 30.5477 49.4384 29.9025 51.5753 28.2895L57 24.4183V36.5157C57 39.5804 54.3699 41.9999 51.2466 41.9999H26.7534C23.6301 41.9999 21 39.5804 21 36.5157V24.7409Z" fill="url(#paint0_linear_1492_15311)"/>
<path d="M70.053 21V11.692H73.251C73.8143 11.692 74.3257 11.8133 74.785 12.056C75.2443 12.2987 75.6083 12.6323 75.877 13.057C76.1543 13.4817 76.293 13.9757 76.293 14.539C76.293 15.1023 76.1543 15.6007 75.877 16.034C75.6083 16.4587 75.2443 16.7923 74.785 17.035C74.3257 17.269 73.8143 17.386 73.251 17.386H71.483V21H70.053ZM73.29 13.044H71.483V16.034H73.29C73.628 16.034 73.914 15.9647 74.148 15.826C74.382 15.6787 74.5597 15.4923 74.681 15.267C74.811 15.033 74.876 14.7903 74.876 14.539C74.876 14.2877 74.811 14.0493 74.681 13.824C74.5597 13.5987 74.382 13.4123 74.148 13.265C73.914 13.1177 73.628 13.044 73.29 13.044ZM77.5251 21V14.37H78.8511V15.345H78.9291C79.0764 15.007 79.3277 14.7297 79.6831 14.513C80.0471 14.2877 80.4371 14.175 80.8531 14.175C81.0351 14.175 81.1867 14.188 81.3081 14.214C81.4381 14.24 81.5551 14.2703 81.6591 14.305V15.761C81.4944 15.6917 81.3254 15.6353 81.1521 15.592C80.9874 15.5487 80.8141 15.527 80.6321 15.527C80.3027 15.527 80.0081 15.618 79.7481 15.8C79.4967 15.9733 79.2974 16.2117 79.1501 16.515C79.0027 16.8097 78.9291 17.1347 78.9291 17.49V21H77.5251ZM83.5488 13.395C83.2888 13.395 83.0635 13.304 82.8728 13.122C82.6908 12.9313 82.5998 12.706 82.5998 12.446C82.5998 12.186 82.6908 11.965 82.8728 11.783C83.0635 11.601 83.2888 11.51 83.5488 11.51C83.8088 11.51 84.0298 11.601 84.2118 11.783C84.4025 11.965 84.4978 12.186 84.4978 12.446C84.4978 12.706 84.4025 12.9313 84.2118 13.122C84.0298 13.304 83.8088 13.395 83.5488 13.395ZM82.8468 21V14.37H84.2508V21H82.8468ZM88.7634 21.208C88.1654 21.208 87.6237 21.0607 87.1384 20.766C86.6617 20.4627 86.2804 20.0467 85.9944 19.518C85.717 18.9807 85.5784 18.3697 85.5784 17.685C85.5784 17.0003 85.717 16.3937 85.9944 15.865C86.2804 15.3363 86.6617 14.9203 87.1384 14.617C87.6237 14.3137 88.1654 14.162 88.7634 14.162C89.2747 14.162 89.7124 14.2747 90.0764 14.5C90.449 14.7253 90.722 14.981 90.8954 15.267H90.9734L90.8954 14.344V11.692H92.2864V21H90.9734V20.116H90.8954C90.722 20.402 90.449 20.6577 90.0764 20.883C89.7124 21.0997 89.2747 21.208 88.7634 21.208ZM88.9714 19.921C89.318 19.921 89.643 19.83 89.9464 19.648C90.2584 19.466 90.5054 19.2103 90.6874 18.881C90.878 18.543 90.9734 18.1443 90.9734 17.685C90.9734 17.2257 90.878 16.8313 90.6874 16.502C90.5054 16.164 90.2584 15.904 89.9464 15.722C89.643 15.54 89.318 15.449 88.9714 15.449C88.6247 15.449 88.2997 15.54 87.9964 15.722C87.693 15.904 87.446 16.164 87.2554 16.502C87.0647 16.8313 86.9694 17.2257 86.9694 17.685C86.9694 18.1443 87.0647 18.543 87.2554 18.881C87.446 19.2103 87.693 19.466 87.9964 19.648C88.2997 19.83 88.6247 19.921 88.9714 19.921ZM95.9566 21.208C95.48 21.208 95.0553 21.117 94.6826 20.935C94.31 20.7443 94.0196 20.48 93.8116 20.142C93.6036 19.804 93.4996 19.4183 93.4996 18.985C93.4996 18.517 93.621 18.1183 93.8636 17.789C94.115 17.451 94.4486 17.1953 94.8646 17.022C95.2806 16.8487 95.74 16.762 96.2426 16.762C96.6586 16.762 97.0226 16.801 97.3346 16.879C97.6553 16.957 97.898 17.0393 98.0626 17.126V16.775C98.0626 16.3417 97.9066 15.995 97.5946 15.735C97.2826 15.475 96.8796 15.345 96.3856 15.345C96.0476 15.345 95.727 15.423 95.4236 15.579C95.1203 15.7263 94.8776 15.93 94.6956 16.19L93.7336 15.449C94.0196 15.0503 94.3966 14.7383 94.8646 14.513C95.3413 14.279 95.8613 14.162 96.4246 14.162C97.3866 14.162 98.1276 14.4003 98.6476 14.877C99.1676 15.345 99.4276 16.0037 99.4276 16.853V21H98.0626V20.181H97.9846C97.8113 20.4497 97.5513 20.688 97.2046 20.896C96.858 21.104 96.442 21.208 95.9566 21.208ZM96.2036 20.064C96.5676 20.064 96.8883 19.9773 97.1656 19.804C97.443 19.6307 97.6596 19.4053 97.8156 19.128C97.9803 18.842 98.0626 18.5343 98.0626 18.205C97.8633 18.0923 97.6293 18.0013 97.3606 17.932C97.092 17.854 96.806 17.815 96.5026 17.815C95.9306 17.815 95.5233 17.932 95.2806 18.166C95.038 18.3913 94.9166 18.6687 94.9166 18.998C94.9166 19.31 95.0336 19.5657 95.2676 19.765C95.5016 19.9643 95.8136 20.064 96.2036 20.064ZM101.548 19.076V15.592H100.391V14.37H101.548V12.498H102.952V14.37H104.577V15.592H102.952V18.777C102.952 19.1063 103.017 19.3577 103.147 19.531C103.286 19.7043 103.516 19.791 103.836 19.791C104.001 19.791 104.14 19.7693 104.252 19.726C104.374 19.6827 104.495 19.622 104.616 19.544V20.909C104.469 20.9697 104.313 21.0173 104.148 21.052C103.984 21.0867 103.789 21.104 103.563 21.104C102.948 21.104 102.458 20.9263 102.094 20.571C101.73 20.207 101.548 19.7087 101.548 19.076ZM103.68 13.603V11.692H104.993L104.668 13.603H103.68ZM111.704 21.208C111.106 21.208 110.564 21.0607 110.079 20.766C109.602 20.4627 109.221 20.0467 108.935 19.518C108.657 18.9807 108.519 18.3697 108.519 17.685C108.519 17.0003 108.657 16.3937 108.935 15.865C109.221 15.3363 109.602 14.9203 110.079 14.617C110.564 14.3137 111.106 14.162 111.704 14.162C112.215 14.162 112.653 14.2747 113.017 14.5C113.389 14.7253 113.662 14.981 113.836 15.267H113.914L113.836 14.344V11.692H115.227V21H113.914V20.116H113.836C113.662 20.402 113.389 20.6577 113.017 20.883C112.653 21.0997 112.215 21.208 111.704 21.208ZM111.912 19.921C112.258 19.921 112.583 19.83 112.887 19.648C113.199 19.466 113.446 19.2103 113.628 18.881C113.818 18.543 113.914 18.1443 113.914 17.685C113.914 17.2257 113.818 16.8313 113.628 16.502C113.446 16.164 113.199 15.904 112.887 15.722C112.583 15.54 112.258 15.449 111.912 15.449C111.565 15.449 111.24 15.54 110.937 15.722C110.633 15.904 110.386 16.164 110.196 16.502C110.005 16.8313 109.91 17.2257 109.91 17.685C109.91 18.1443 110.005 18.543 110.196 18.881C110.386 19.2103 110.633 19.466 110.937 19.648C111.24 19.83 111.565 19.921 111.912 19.921ZM119.937 21.208C119.252 21.208 118.65 21.052 118.13 20.74C117.61 20.428 117.203 20.0077 116.908 19.479C116.613 18.9503 116.466 18.3523 116.466 17.685C116.466 17.0263 116.613 16.4327 116.908 15.904C117.203 15.3667 117.61 14.942 118.13 14.63C118.65 14.318 119.252 14.162 119.937 14.162C120.613 14.162 121.211 14.318 121.731 14.63C122.251 14.942 122.658 15.3667 122.953 15.904C123.248 16.4327 123.395 17.0263 123.395 17.685C123.395 18.3523 123.248 18.9503 122.953 19.479C122.658 20.0077 122.251 20.428 121.731 20.74C121.211 21.052 120.613 21.208 119.937 21.208ZM119.937 19.921C120.301 19.921 120.639 19.8343 120.951 19.661C121.263 19.479 121.514 19.2233 121.705 18.894C121.904 18.556 122.004 18.153 122.004 17.685C122.004 17.217 121.904 16.8183 121.705 16.489C121.514 16.151 121.263 15.8953 120.951 15.722C120.639 15.54 120.301 15.449 119.937 15.449C119.573 15.449 119.231 15.54 118.91 15.722C118.598 15.8953 118.342 16.151 118.143 16.489C117.952 16.8183 117.857 17.217 117.857 17.685C117.857 18.153 117.952 18.556 118.143 18.894C118.342 19.2233 118.598 19.479 118.91 19.661C119.231 19.8343 119.573 19.921 119.937 19.921ZM130.14 21.208C129.343 21.208 128.706 21.0347 128.229 20.688C127.753 20.3327 127.423 19.9123 127.241 19.427L128.502 18.881C128.658 19.2363 128.884 19.5093 129.178 19.7C129.473 19.882 129.807 19.973 130.179 19.973C130.526 19.973 130.825 19.9123 131.076 19.791C131.328 19.661 131.453 19.453 131.453 19.167C131.453 18.8897 131.328 18.686 131.076 18.556C130.825 18.426 130.513 18.3133 130.14 18.218L129.347 18.036C129.027 17.958 128.728 17.8367 128.45 17.672C128.173 17.5073 127.948 17.295 127.774 17.035C127.601 16.7663 127.514 16.4543 127.514 16.099C127.514 15.709 127.631 15.371 127.865 15.085C128.099 14.7903 128.407 14.565 128.788 14.409C129.178 14.2443 129.599 14.162 130.049 14.162C130.665 14.162 131.202 14.2833 131.661 14.526C132.129 14.76 132.472 15.1153 132.688 15.592L131.479 16.138C131.323 15.8433 131.12 15.6397 130.868 15.527C130.626 15.4057 130.357 15.345 130.062 15.345C129.733 15.345 129.456 15.4143 129.23 15.553C129.014 15.6917 128.905 15.865 128.905 16.073C128.905 16.2983 129.001 16.476 129.191 16.606C129.391 16.736 129.633 16.84 129.919 16.918L130.881 17.152C131.54 17.3167 132.034 17.568 132.363 17.906C132.693 18.2353 132.857 18.6383 132.857 19.115C132.857 19.5397 132.736 19.9123 132.493 20.233C132.251 20.545 131.921 20.7877 131.505 20.961C131.098 21.1257 130.643 21.208 130.14 21.208ZM134.096 21V11.692H135.5V21H134.096ZM139.56 21.208C138.745 21.208 138.13 20.9653 137.714 20.48C137.307 19.986 137.103 19.3187 137.103 18.478V14.37H138.507V18.283C138.507 18.8463 138.637 19.2623 138.897 19.531C139.166 19.791 139.499 19.921 139.898 19.921C140.253 19.921 140.561 19.83 140.821 19.648C141.09 19.4573 141.293 19.2147 141.432 18.92C141.579 18.6167 141.653 18.2873 141.653 17.932V14.37H143.044V21H141.731V20.103H141.653C141.462 20.415 141.176 20.6793 140.795 20.896C140.422 21.104 140.011 21.208 139.56 21.208ZM144.548 21V19.83L148.24 15.592H144.665V14.37H149.956V15.54L146.277 19.778H150.06V21H144.548ZM146.706 13.096L145.315 11.523V11.432H146.654L147.252 12.238H147.382L147.993 11.432H149.345V11.523L147.941 13.096H146.706ZM155.037 21.208C154.525 21.208 154.083 21.0997 153.711 20.883C153.347 20.6577 153.078 20.402 152.905 20.116H152.827V21H151.501V11.692H152.905V14.344L152.827 15.267H152.905C153.078 14.981 153.347 14.7253 153.711 14.5C154.083 14.2747 154.525 14.162 155.037 14.162C155.643 14.162 156.185 14.3137 156.662 14.617C157.138 14.9203 157.515 15.3363 157.793 15.865C158.079 16.3937 158.222 17.0003 158.222 17.685C158.222 18.3697 158.079 18.9807 157.793 19.518C157.515 20.0467 157.138 20.4627 156.662 20.766C156.185 21.0607 155.643 21.208 155.037 21.208ZM154.829 19.921C155.175 19.921 155.5 19.83 155.804 19.648C156.107 19.466 156.354 19.2103 156.545 18.881C156.735 18.543 156.831 18.1443 156.831 17.685C156.831 17.2257 156.735 16.8313 156.545 16.502C156.354 16.164 156.107 15.904 155.804 15.722C155.5 15.54 155.175 15.449 154.829 15.449C154.482 15.449 154.157 15.54 153.854 15.722C153.55 15.904 153.303 16.164 153.113 16.502C152.922 16.8313 152.827 17.2257 152.827 17.685C152.827 18.1443 152.922 18.543 153.113 18.881C153.303 19.2103 153.55 19.466 153.854 19.648C154.157 19.83 154.482 19.921 154.829 19.921ZM161.519 23.483C161.493 23.5523 161.463 23.6173 161.428 23.678C161.402 23.7387 161.385 23.782 161.376 23.808H159.881C159.925 23.7127 159.985 23.574 160.063 23.392C160.15 23.2187 160.232 23.0497 160.31 22.885C160.388 22.7203 160.471 22.534 160.557 22.326C160.653 22.118 160.748 21.9143 160.843 21.715L161.337 20.636L158.568 14.37H160.128L162.026 18.894H162.091L163.924 14.37H165.471L162.039 22.274C161.944 22.4993 161.84 22.7333 161.727 22.976C161.623 23.2273 161.554 23.3963 161.519 23.483Z" fill="white"/>
<path d="M76.14 41.272C75.2673 41.272 74.4457 41.1133 73.675 40.796C72.9157 40.4787 72.2413 40.0367 71.652 39.47C71.0627 38.892 70.598 38.2177 70.258 37.447C69.9293 36.665 69.765 35.8207 69.765 34.914C69.765 34.0073 69.9293 33.1687 70.258 32.398C70.598 31.616 71.057 30.9417 71.635 30.375C72.2243 29.797 72.9043 29.3493 73.675 29.032C74.4457 28.7147 75.2673 28.556 76.14 28.556C77.0693 28.556 77.925 28.7203 78.707 29.049C79.5003 29.3777 80.1633 29.8367 80.696 30.426L79.404 31.701C79.0073 31.259 78.5313 30.919 77.976 30.681C77.432 30.443 76.82 30.324 76.14 30.324C75.3353 30.324 74.593 30.5167 73.913 30.902C73.233 31.276 72.6833 31.8087 72.264 32.5C71.856 33.18 71.652 33.9847 71.652 34.914C71.652 35.8433 71.8617 36.6537 72.281 37.345C72.7003 38.025 73.25 38.5577 73.93 38.943C74.61 39.317 75.3523 39.504 76.157 39.504C76.8937 39.504 77.5623 39.368 78.163 39.096C78.7637 38.8127 79.2453 38.416 79.608 37.906C79.982 37.396 80.2087 36.784 80.288 36.07H76.123V34.421H82.039C82.107 34.727 82.141 35.05 82.141 35.39V35.407C82.141 36.5857 81.8803 37.617 81.359 38.501C80.849 39.3737 80.1407 40.0537 79.234 40.541C78.3273 41.0283 77.296 41.272 76.14 41.272ZM87.6149 41.272C86.7195 41.272 85.9319 41.068 85.2519 40.66C84.5719 40.252 84.0392 39.7023 83.6539 39.011C83.2685 38.3197 83.0759 37.5377 83.0759 36.665C83.0759 35.8037 83.2685 35.0273 83.6539 34.336C84.0392 33.6333 84.5719 33.078 85.2519 32.67C85.9319 32.262 86.7195 32.058 87.6149 32.058C88.4989 32.058 89.2809 32.262 89.9609 32.67C90.6409 33.078 91.1735 33.6333 91.5589 34.336C91.9442 35.0273 92.1369 35.8037 92.1369 36.665C92.1369 37.5377 91.9442 38.3197 91.5589 39.011C91.1735 39.7023 90.6409 40.252 89.9609 40.66C89.2809 41.068 88.4989 41.272 87.6149 41.272ZM87.6149 39.589C88.0909 39.589 88.5329 39.4757 88.9409 39.249C89.3489 39.011 89.6775 38.6767 89.9269 38.246C90.1875 37.804 90.3179 37.277 90.3179 36.665C90.3179 36.053 90.1875 35.5317 89.9269 35.101C89.6775 34.659 89.3489 34.3247 88.9409 34.098C88.5329 33.86 88.0909 33.741 87.6149 33.741C87.1389 33.741 86.6912 33.86 86.2719 34.098C85.8639 34.3247 85.5295 34.659 85.2689 35.101C85.0195 35.5317 84.8949 36.053 84.8949 36.665C84.8949 37.277 85.0195 37.804 85.2689 38.246C85.5295 38.6767 85.8639 39.011 86.2719 39.249C86.6912 39.4757 87.1389 39.589 87.6149 39.589ZM97.9078 41.272C97.0125 41.272 96.2248 41.068 95.5448 40.66C94.8648 40.252 94.3322 39.7023 93.9468 39.011C93.5615 38.3197 93.3688 37.5377 93.3688 36.665C93.3688 35.8037 93.5615 35.0273 93.9468 34.336C94.3322 33.6333 94.8648 33.078 95.5448 32.67C96.2248 32.262 97.0125 32.058 97.9078 32.058C98.7918 32.058 99.5738 32.262 100.254 32.67C100.934 33.078 101.467 33.6333 101.852 34.336C102.237 35.0273 102.43 35.8037 102.43 36.665C102.43 37.5377 102.237 38.3197 101.852 39.011C101.467 39.7023 100.934 40.252 100.254 40.66C99.5738 41.068 98.7918 41.272 97.9078 41.272ZM97.9078 39.589C98.3838 39.589 98.8258 39.4757 99.2338 39.249C99.6418 39.011 99.9705 38.6767 100.22 38.246C100.481 37.804 100.611 37.277 100.611 36.665C100.611 36.053 100.481 35.5317 100.22 35.101C99.9705 34.659 99.6418 34.3247 99.2338 34.098C98.8258 33.86 98.3838 33.741 97.9078 33.741C97.4318 33.741 96.9842 33.86 96.5648 34.098C96.1568 34.3247 95.8225 34.659 95.5618 35.101C95.3125 35.5317 95.1878 36.053 95.1878 36.665C95.1878 37.277 95.3125 37.804 95.5618 38.246C95.8225 38.6767 96.1568 39.011 96.5648 39.249C96.9842 39.4757 97.4318 39.589 97.9078 39.589ZM108.031 44.944C107.271 44.944 106.614 44.8193 106.059 44.57C105.515 44.332 105.073 44.0203 104.733 43.635C104.393 43.261 104.149 42.8757 104.002 42.479L105.702 41.765C105.883 42.2183 106.172 42.5867 106.569 42.87C106.977 43.1647 107.464 43.312 108.031 43.312C108.824 43.312 109.447 43.074 109.901 42.598C110.365 42.122 110.598 41.4477 110.598 40.575V39.742H110.496C110.224 40.15 109.844 40.4787 109.357 40.728C108.881 40.966 108.337 41.085 107.725 41.085C106.988 41.085 106.314 40.898 105.702 40.524C105.09 40.15 104.597 39.6287 104.223 38.96C103.849 38.28 103.662 37.4867 103.662 36.58C103.662 35.662 103.849 34.8687 104.223 34.2C104.597 33.52 105.09 32.993 105.702 32.619C106.314 32.245 106.988 32.058 107.725 32.058C108.337 32.058 108.881 32.1827 109.357 32.432C109.844 32.6813 110.224 33.01 110.496 33.418H110.598V32.33H112.349V40.541C112.349 41.4817 112.162 42.2807 111.788 42.938C111.425 43.5953 110.921 44.094 110.275 44.434C109.629 44.774 108.881 44.944 108.031 44.944ZM108.048 39.419C108.501 39.419 108.92 39.3113 109.306 39.096C109.691 38.8693 110.003 38.5463 110.241 38.127C110.479 37.6963 110.598 37.1807 110.598 36.58C110.598 35.9567 110.479 35.4353 110.241 35.016C110.003 34.5853 109.691 34.2623 109.306 34.047C108.92 33.8317 108.501 33.724 108.048 33.724C107.594 33.724 107.169 33.8373 106.773 34.064C106.387 34.2793 106.076 34.5967 105.838 35.016C105.6 35.4353 105.481 35.9567 105.481 36.58C105.481 37.192 105.6 37.7133 105.838 38.144C106.076 38.5633 106.387 38.8807 106.773 39.096C107.169 39.3113 107.594 39.419 108.048 39.419ZM114.514 41V28.828H116.35V41H114.514ZM122.392 41.272C121.542 41.272 120.783 41.0737 120.114 40.677C119.446 40.2803 118.919 39.7363 118.533 39.045C118.159 38.3537 117.972 37.566 117.972 36.682C117.972 35.8547 118.154 35.0897 118.516 34.387C118.879 33.6843 119.383 33.1233 120.029 32.704C120.687 32.2733 121.44 32.058 122.29 32.058C123.186 32.058 123.945 32.2507 124.568 32.636C125.203 33.0213 125.685 33.5483 126.013 34.217C126.342 34.8857 126.506 35.6393 126.506 36.478C126.506 36.6027 126.501 36.716 126.489 36.818C126.489 36.92 126.484 36.9993 126.472 37.056H119.774C119.865 37.9173 120.165 38.5633 120.675 38.994C121.197 39.4247 121.786 39.64 122.443 39.64C123.033 39.64 123.52 39.5097 123.905 39.249C124.291 38.977 124.597 38.6427 124.823 38.246L126.336 38.977C125.962 39.657 125.452 40.2123 124.806 40.643C124.16 41.0623 123.356 41.272 122.392 41.272ZM122.307 33.622C121.695 33.622 121.174 33.809 120.743 34.183C120.313 34.557 120.024 35.0557 119.876 35.679H124.687C124.665 35.3843 124.568 35.0783 124.398 34.761C124.228 34.4437 123.968 34.1773 123.616 33.962C123.276 33.7353 122.84 33.622 122.307 33.622ZM132.483 41V28.828H136.665C137.402 28.828 138.071 28.9867 138.671 29.304C139.272 29.6213 139.748 30.0577 140.099 30.613C140.462 31.1683 140.643 31.8143 140.643 32.551C140.643 33.2877 140.462 33.9393 140.099 34.506C139.748 35.0613 139.272 35.4977 138.671 35.815C138.071 36.121 137.402 36.274 136.665 36.274H134.353V41H132.483ZM136.716 30.596H134.353V34.506H136.716C137.158 34.506 137.532 34.4153 137.838 34.234C138.144 34.0413 138.377 33.7977 138.535 33.503C138.705 33.197 138.79 32.8797 138.79 32.551C138.79 32.2223 138.705 31.9107 138.535 31.616C138.377 31.3213 138.144 31.0777 137.838 30.885C137.532 30.6923 137.158 30.596 136.716 30.596ZM145.618 41.272C144.768 41.272 144.009 41.0737 143.34 40.677C142.671 40.2803 142.144 39.7363 141.759 39.045C141.385 38.3537 141.198 37.566 141.198 36.682C141.198 35.8547 141.379 35.0897 141.742 34.387C142.105 33.6843 142.609 33.1233 143.255 32.704C143.912 32.2733 144.666 32.058 145.516 32.058C146.411 32.058 147.171 32.2507 147.794 32.636C148.429 33.0213 148.91 33.5483 149.239 34.217C149.568 34.8857 149.732 35.6393 149.732 36.478C149.732 36.6027 149.726 36.716 149.715 36.818C149.715 36.92 149.709 36.9993 149.698 37.056H143C143.091 37.9173 143.391 38.5633 143.901 38.994C144.422 39.4247 145.012 39.64 145.669 39.64C146.258 39.64 146.746 39.5097 147.131 39.249C147.516 38.977 147.822 38.6427 148.049 38.246L149.562 38.977C149.188 39.657 148.678 40.2123 148.032 40.643C147.386 41.0623 146.581 41.272 145.618 41.272ZM145.533 33.622C144.921 33.622 144.4 33.809 143.969 34.183C143.538 34.557 143.249 35.0557 143.102 35.679H147.913C147.89 35.3843 147.794 35.0783 147.624 34.761C147.454 34.4437 147.193 34.1773 146.842 33.962C146.502 33.7353 146.066 33.622 145.533 33.622ZM151.435 41V32.33H153.169V33.52H153.271C153.521 33.1007 153.889 32.755 154.376 32.483C154.875 32.1997 155.419 32.058 156.008 32.058C157.074 32.058 157.873 32.3753 158.405 33.01C158.938 33.6447 159.204 34.4833 159.204 35.526V41H157.385V35.764C157.385 35.0613 157.21 34.5513 156.858 34.234C156.507 33.9053 156.048 33.741 155.481 33.741C155.039 33.741 154.654 33.8657 154.325 34.115C153.997 34.353 153.736 34.6703 153.543 35.067C153.362 35.4637 153.271 35.8887 153.271 36.342V41H151.435ZM154.716 30.664L152.897 28.607V28.488H154.648L155.43 29.542H155.6L156.399 28.488H158.167V28.607L156.331 30.664H154.716ZM163.934 41.272C163.31 41.272 162.755 41.153 162.268 40.915C161.78 40.6657 161.401 40.32 161.129 39.878C160.857 39.436 160.721 38.9317 160.721 38.365C160.721 37.753 160.879 37.2317 161.197 36.801C161.525 36.359 161.962 36.0247 162.506 35.798C163.05 35.5713 163.65 35.458 164.308 35.458C164.852 35.458 165.328 35.509 165.736 35.611C166.155 35.713 166.472 35.8207 166.688 35.934V35.475C166.688 34.9083 166.484 34.455 166.076 34.115C165.668 33.775 165.141 33.605 164.495 33.605C164.053 33.605 163.633 33.707 163.237 33.911C162.84 34.1037 162.523 34.37 162.285 34.71L161.027 33.741C161.401 33.2197 161.894 32.8117 162.506 32.517C163.129 32.211 163.809 32.058 164.546 32.058C165.804 32.058 166.773 32.3697 167.453 32.993C168.133 33.605 168.473 34.4663 168.473 35.577V41H166.688V39.929H166.586C166.359 40.2803 166.019 40.592 165.566 40.864C165.112 41.136 164.568 41.272 163.934 41.272ZM164.257 39.776C164.733 39.776 165.152 39.6627 165.515 39.436C165.877 39.2093 166.161 38.9147 166.365 38.552C166.58 38.178 166.688 37.7757 166.688 37.345C166.427 37.1977 166.121 37.0787 165.77 36.988C165.418 36.886 165.044 36.835 164.648 36.835C163.9 36.835 163.367 36.988 163.05 37.294C162.732 37.5887 162.574 37.9513 162.574 38.382C162.574 38.79 162.727 39.1243 163.033 39.385C163.339 39.6457 163.747 39.776 164.257 39.776ZM170.035 41V39.47L174.863 33.928H170.188V32.33H177.107V33.86L172.296 39.402H177.243V41H170.035ZM172.857 30.664L171.038 28.607V28.488H172.789L173.571 29.542H173.741L174.54 28.488H176.308V28.607L174.472 30.664H172.857ZM182.756 41.272C181.906 41.272 181.146 41.0737 180.478 40.677C179.809 40.2803 179.282 39.7363 178.897 39.045C178.523 38.3537 178.336 37.566 178.336 36.682C178.336 35.8547 178.517 35.0897 178.88 34.387C179.242 33.6843 179.747 33.1233 180.393 32.704C181.05 32.2733 181.804 32.058 182.654 32.058C183.549 32.058 184.308 32.2507 184.932 32.636C185.566 33.0213 186.048 33.5483 186.377 34.217C186.705 34.8857 186.87 35.6393 186.87 36.478C186.87 36.6027 186.864 36.716 186.853 36.818C186.853 36.92 186.847 36.9993 186.836 37.056H180.138C180.228 37.9173 180.529 38.5633 181.039 38.994C181.56 39.4247 182.149 39.64 182.807 39.64C183.396 39.64 183.883 39.5097 184.269 39.249C184.654 38.977 184.96 38.6427 185.187 38.246L186.7 38.977C186.326 39.657 185.816 40.2123 185.17 40.643C184.524 41.0623 183.719 41.272 182.756 41.272ZM182.671 33.622C182.059 33.622 181.537 33.809 181.107 34.183C180.676 34.557 180.387 35.0557 180.24 35.679H185.051C185.028 35.3843 184.932 35.0783 184.762 34.761C184.592 34.4437 184.331 34.1773 183.98 33.962C183.64 33.7353 183.203 33.622 182.671 33.622ZM188.573 41V32.33H190.307V33.52H190.409C190.658 33.1007 191.027 32.755 191.514 32.483C192.013 32.1997 192.557 32.058 193.146 32.058C194.211 32.058 195.01 32.3753 195.543 33.01C196.076 33.6447 196.342 34.4833 196.342 35.526V41H194.523V35.764C194.523 35.0613 194.347 34.5513 193.996 34.234C193.645 33.9053 193.186 33.741 192.619 33.741C192.177 33.741 191.792 33.8657 191.463 34.115C191.134 34.353 190.874 34.6703 190.681 35.067C190.5 35.4637 190.409 35.8887 190.409 36.342V41H188.573ZM198.434 41V28.828H200.27V36.002L203.942 32.33H206.22V32.432L202.871 35.747L206.339 40.898V41H204.163L201.579 37.022L200.27 38.314V41H198.434ZM210.036 41.272C209.413 41.272 208.857 41.153 208.37 40.915C207.883 40.6657 207.503 40.32 207.231 39.878C206.959 39.436 206.823 38.9317 206.823 38.365C206.823 37.753 206.982 37.2317 207.299 36.801C207.628 36.359 208.064 36.0247 208.608 35.798C209.152 35.5713 209.753 35.458 210.41 35.458C210.954 35.458 211.43 35.509 211.838 35.611C212.257 35.713 212.575 35.8207 212.79 35.934V35.475C212.79 34.9083 212.586 34.455 212.178 34.115C211.77 33.775 211.243 33.605 210.597 33.605C210.155 33.605 209.736 33.707 209.339 33.911C208.942 34.1037 208.625 34.37 208.387 34.71L207.129 33.741C207.503 33.2197 207.996 32.8117 208.608 32.517C209.231 32.211 209.911 32.058 210.648 32.058C211.906 32.058 212.875 32.3697 213.555 32.993C214.235 33.605 214.575 34.4663 214.575 35.577V41H212.79V39.929H212.688C212.461 40.2803 212.121 40.592 211.668 40.864C211.215 41.136 210.671 41.272 210.036 41.272ZM210.359 39.776C210.835 39.776 211.254 39.6627 211.617 39.436C211.98 39.2093 212.263 38.9147 212.467 38.552C212.682 38.178 212.79 37.7757 212.79 37.345C212.529 37.1977 212.223 37.0787 211.872 36.988C211.521 36.886 211.147 36.835 210.75 36.835C210.002 36.835 209.469 36.988 209.152 37.294C208.835 37.5887 208.676 37.9513 208.676 38.382C208.676 38.79 208.829 39.1243 209.135 39.385C209.441 39.6457 209.849 39.776 210.359 39.776Z" fill="white"/>
<rect x="0.5" y="0.5" width="234" height="53" rx="26.5" stroke="#747775"/>
<defs>
<linearGradient id="paint0_linear_1492_15311" x1="37.2843" y1="33.5448" x2="18.7823" y2="55.2227" gradientUnits="userSpaceOnUse">
<stop stop-color="#4285F4"/>
<stop offset="1" stop-color="#1B74E8"/>
</linearGradient>
</defs>
</svg>
